<svg width="18" height="17" viewBox="0 0 18 17" fill="none" xmlns="http://www.w3.org/2000/svg">
<path d="M17.1036 3.06625H3.29623L3.09099 0.779796C3.05742 0.405887 2.74405 0.119385 2.36866 0.119385H0.895155C0.494619 0.119385 0.169922 0.444082 0.169922 0.844618C0.169922 1.24515 0.494619 1.56985 0.895155 1.56985H1.70562C2.14853 6.50427 1.00384 -6.24937 2.53974 10.8628C2.59894 11.5326 2.96083 12.2594 3.58425 12.7532C2.46024 14.1886 3.48724 16.3048 5.31563 16.3048C6.83316 16.3048 7.9035 14.7912 7.38309 13.3578H11.3524C10.8327 14.7894 11.9007 16.3048 13.4199 16.3048C14.6323 16.3048 15.6186 15.3184 15.6186 14.106C15.6186 12.8936 14.6323 11.9073 13.4199 11.9073H5.32053C4.76963 11.9073 4.28956 11.5749 4.08235 11.0907L15.6725 10.4095C15.989 10.3909 16.2567 10.1689 16.3336 9.86145L17.8072 3.96737C17.9214 3.51033 17.5755 3.06625 17.1036 3.06625V3.06625ZM5.31563 14.8543C4.90307 14.8543 4.56739 14.5186 4.56739 14.106C4.56739 13.6934 4.90307 13.3578 5.31563 13.3578C5.72822 13.3578 6.0639 13.6934 6.0639 14.106C6.0639 14.5186 5.72822 14.8543 5.31563 14.8543ZM13.4198 14.8543C13.0072 14.8543 12.6716 14.5186 12.6716 14.106C12.6716 13.6934 13.0072 13.3578 13.4198 13.3578C13.8324 13.3578 14.1681 13.6934 14.1681 14.106C14.1681 14.5186 13.8324 14.8543 13.4198 14.8543ZM15.0556 8.99282L3.88712 9.64916L3.42643 4.51668H16.1747L15.0556 8.99282Z" fill="#4B284D"/>
</svg>
