<svg width="18" height="17" viewBox="0 0 18 17" fill="none" xmlns="http://www.w3.org/2000/svg">
<path d="M17.1036 3.68222H3.29623L3.09099 1.39576C3.05742 1.02185 2.74405 0.735352 2.36866 0.735352H0.895155C0.494619 0.735352 0.169922 1.06005 0.169922 1.46059C0.169922 1.86112 0.494619 2.18582 0.895155 2.18582H1.70562C2.14853 7.12024 1.00384 -5.63341 2.53974 11.4788C2.59894 12.1486 2.96083 12.8753 3.58425 13.3692C2.46024 14.8046 3.48724 16.9207 5.31563 16.9207C6.83316 16.9207 7.9035 15.4072 7.38309 13.9737H11.3524C10.8327 15.4054 11.9007 16.9207 13.4199 16.9207C14.6323 16.9207 15.6186 15.9344 15.6186 14.722C15.6186 13.5096 14.6323 12.5233 13.4199 12.5233H5.32053C4.76963 12.5233 4.28956 12.1909 4.08235 11.7066L15.6725 11.0255C15.989 11.0069 16.2567 10.7849 16.3336 10.4774L17.8072 4.58334C17.9214 4.1263 17.5755 3.68222 17.1036 3.68222ZM5.31563 15.4703C4.90307 15.4703 4.56739 15.1346 4.56739 14.722C4.56739 14.3094 4.90307 13.9737 5.31563 13.9737C5.72822 13.9737 6.0639 14.3094 6.0639 14.722C6.0639 15.1346 5.72822 15.4703 5.31563 15.4703ZM13.4198 15.4703C13.0072 15.4703 12.6716 15.1346 12.6716 14.722C12.6716 14.3094 13.0072 13.9737 13.4198 13.9737C13.8324 13.9737 14.1681 14.3094 14.1681 14.722C14.1681 15.1346 13.8324 15.4703 13.4198 15.4703ZM15.0556 9.60879L3.88712 10.2651L3.42643 5.13265H16.1747L15.0556 9.60879Z" fill="white"/>
</svg>
