<svg width="29" height="28" viewBox="0 0 29 28" fill="none" xmlns="http://www.w3.org/2000/svg">
<path d="M26.2626 11.935C26.0719 11.664 25.9161 11.37 25.7988 11.06C25.7523 10.7145 25.7523 10.3643 25.7988 10.0188C25.8852 9.28182 25.7512 8.53583 25.4138 7.875C24.9994 7.25997 24.4116 6.78185 23.7251 6.50125C23.4107 6.35994 23.1165 6.17752 22.8501 5.95875C22.6313 5.69238 22.4489 5.39814 22.3076 5.08375C22.0253 4.39588 21.5477 3.80576 20.9338 3.38625C20.2689 3.07246 19.5277 2.95702 18.7988 3.05375C18.4514 3.086 18.1011 3.07128 17.7576 3.01C17.4476 2.89277 17.1536 2.73696 16.8826 2.54625C16.2854 2.08147 15.5637 1.80436 14.8088 1.75C14.0571 1.80605 13.3386 2.08308 12.7438 2.54625C12.4728 2.73696 12.1788 2.89277 11.8688 3.01C11.5253 3.07107 11.1751 3.08579 10.8276 3.05375C10.0959 2.9553 9.35134 3.07078 8.68384 3.38625C8.06995 3.80576 7.59238 4.39588 7.31009 5.08375C7.16878 5.39814 6.98635 5.69238 6.76759 5.95875C6.50122 6.17752 6.20698 6.35994 5.89259 6.50125C5.20606 6.78185 4.61831 7.25997 4.20384 7.875C3.88316 8.5378 3.76449 9.28027 3.86259 10.01C3.89462 10.3575 3.87991 10.7077 3.81884 11.0513C3.70161 11.3612 3.5458 11.6552 3.35509 11.9263C2.89031 12.5235 2.6132 13.2452 2.55884 14C2.61489 14.7518 2.89191 15.4702 3.35509 16.065C3.5458 16.336 3.70161 16.63 3.81884 16.94C3.87991 17.2836 3.89462 17.6338 3.86259 17.9812C3.76273 18.7138 3.88144 19.4596 4.20384 20.125C4.61831 20.74 5.20606 21.2182 5.89259 21.4987C6.20698 21.6401 6.50122 21.8225 6.76759 22.0413C6.98635 22.3076 7.16878 22.6019 7.31009 22.9163C7.59238 23.6041 8.06995 24.1942 8.68384 24.6137C9.34874 24.9275 10.09 25.043 10.8188 24.9463C11.1643 24.8995 11.5146 24.8995 11.8601 24.9463C12.1701 25.0635 12.4641 25.2193 12.7351 25.41C13.3271 25.8905 14.0493 26.183 14.8088 26.25C15.5606 26.1939 16.279 25.9169 16.8738 25.4538C17.1449 25.263 17.4389 25.1072 17.7488 24.99C18.0944 24.9435 18.4446 24.9435 18.7901 24.99C19.526 25.0749 20.2708 24.9442 20.9338 24.6137C21.5477 24.1942 22.0253 23.6041 22.3076 22.9163C22.4489 22.6019 22.6313 22.3076 22.8501 22.0413C23.1165 21.8225 23.4107 21.6401 23.7251 21.4987C24.4116 21.2182 24.9994 20.74 25.4138 20.125C25.7345 19.4622 25.8532 18.7197 25.7551 17.99C25.7086 17.6445 25.7086 17.2943 25.7551 16.9488C25.8723 16.6388 26.0281 16.3448 26.2188 16.0738C26.6993 15.4817 26.9919 14.7595 27.0588 14C27.0028 13.2482 26.7258 12.5298 26.2626 11.935ZM24.7926 15.1288C24.4914 15.543 24.2608 16.0042 24.1101 16.4938C23.9983 17.0078 23.963 17.5356 24.0051 18.06C24.0684 18.4593 24.0324 18.868 23.9001 19.25C23.6296 19.5572 23.291 19.797 22.9113 19.95C22.4362 20.1715 21.9992 20.4669 21.6163 20.825C21.2582 21.2078 20.9629 21.6449 20.7413 22.12C20.5883 22.4997 20.3486 22.8383 20.0413 23.1087C19.6593 23.241 19.2506 23.2771 18.8513 23.2138C18.3269 23.1719 17.7992 23.2073 17.2851 23.3188C16.7936 23.4712 16.3297 23.7016 15.9113 24.0013C15.5877 24.2511 15.2102 24.4219 14.8088 24.5C14.3998 24.4193 14.0159 24.2423 13.6888 23.9837C13.2704 23.6841 12.8066 23.4537 12.3151 23.3012C11.9864 23.2176 11.6479 23.1794 11.3088 23.1875H10.7663C10.3621 23.2566 9.94701 23.2235 9.55884 23.0912C9.2516 22.8208 9.01189 22.4822 8.85884 22.1025C8.63729 21.6274 8.34198 21.1903 7.98384 20.8075C7.60102 20.4494 7.16395 20.154 6.68884 19.9325C6.31722 19.7821 5.98498 19.5487 5.71759 19.25C5.58529 18.868 5.54923 18.4593 5.61259 18.06C5.65472 17.5356 5.61933 17.0078 5.50759 16.4938C5.35688 16.0042 5.12627 15.543 4.82509 15.1288C4.56697 14.7981 4.39013 14.4115 4.30884 14C4.39013 13.5885 4.56697 13.2019 4.82509 12.8713C5.12627 12.457 5.35688 11.9958 5.50759 11.5062C5.61933 10.9922 5.65472 10.4644 5.61259 9.94C5.54923 9.54073 5.58529 9.132 5.71759 8.75C5.98808 8.44277 6.32668 8.20305 6.70634 8.05C7.18145 7.82846 7.61852 7.53314 8.00134 7.175C8.35948 6.79218 8.65479 6.35511 8.87634 5.88C9.02669 5.50838 9.26016 5.17614 9.55884 4.90875C9.9417 4.78053 10.3494 4.74456 10.7488 4.80375C11.2732 4.84562 11.801 4.81025 12.3151 4.69875C12.8066 4.5463 13.2704 4.31587 13.6888 4.01625C14.0159 3.75767 14.3998 3.5807 14.8088 3.5C15.2179 3.5807 15.6018 3.75767 15.9288 4.01625C16.3472 4.31587 16.8111 4.5463 17.3026 4.69875C17.8166 4.81088 18.3444 4.84626 18.8688 4.80375C19.2681 4.74039 19.6768 4.77645 20.0588 4.90875C20.3661 5.17925 20.6058 5.51785 20.7588 5.8975C20.9804 6.37261 21.2757 6.80968 21.6338 7.1925C22.0167 7.55064 22.4537 7.84596 22.9288 8.0675C23.3085 8.22055 23.6471 8.46027 23.9176 8.7675C24.0499 9.1495 24.0859 9.55823 24.0226 9.9575C23.9805 10.4819 24.0158 11.0097 24.1276 11.5238C24.2783 12.0133 24.5089 12.4745 24.8101 12.8888C25.0595 13.2159 25.2302 13.5962 25.3088 14C25.2275 14.4115 25.0507 14.7981 24.7926 15.1288Z" fill="#4B284D"/>
<path d="M14.8088 6.125C13.2513 6.125 11.7288 6.58686 10.4337 7.45218C9.13869 8.31749 8.12933 9.5474 7.53329 10.9864C6.93725 12.4253 6.7813 14.0087 7.08516 15.5363C7.38902 17.0639 8.13904 18.4671 9.24038 19.5685C10.3417 20.6698 11.7449 21.4198 13.2725 21.7237C14.8001 22.0275 16.3835 21.8716 17.8225 21.2756C19.2614 20.6795 20.4914 19.6702 21.3567 18.3751C22.222 17.0801 22.6838 15.5575 22.6838 14C22.6838 11.9114 21.8542 9.90838 20.3773 8.43153C18.9005 6.95469 16.8974 6.125 14.8088 6.125ZM14.8088 20.125C13.5974 20.125 12.4132 19.7658 11.406 19.0928C10.3987 18.4197 9.61367 17.4631 9.15008 16.3439C8.68649 15.2247 8.5652 13.9932 8.80153 12.8051C9.03787 11.6169 9.62122 10.5256 10.4778 9.66897C11.3344 8.81237 12.4258 8.22903 13.6139 7.99269C14.802 7.75636 16.0336 7.87765 17.1528 8.34124C18.272 8.80483 19.2286 9.58988 19.9016 10.5971C20.5746 11.6044 20.9338 12.7886 20.9338 14C20.9338 15.6245 20.2885 17.1824 19.1399 18.331C17.9912 19.4797 16.4333 20.125 14.8088 20.125Z" fill="#4B284D"/>
<path d="M16.6727 11.4188L15.5964 9.24003C15.5248 9.09209 15.4129 8.96733 15.2736 8.88003C15.1344 8.79273 14.9733 8.74643 14.8089 8.74643C14.6446 8.74643 14.4835 8.79273 14.3442 8.88003C14.205 8.96733 14.0931 9.09209 14.0214 9.24003L12.9452 11.4188L10.5389 11.7688C10.3787 11.7935 10.2285 11.8623 10.105 11.9674C9.98156 12.0726 9.88976 12.2099 9.83985 12.3642C9.78994 12.5185 9.78387 12.6836 9.82234 12.8411C9.8608 12.9986 9.94228 13.1424 10.0577 13.2563L11.8077 14.9538L11.3964 17.3513C11.3652 17.5153 11.3816 17.6849 11.4436 17.8399C11.5056 17.995 11.6107 18.129 11.7464 18.2263C11.8732 18.314 12.0209 18.3666 12.1745 18.3789C12.3282 18.3912 12.4823 18.3627 12.6214 18.2963L14.8089 17.1413L16.9614 18.2788C17.086 18.3426 17.224 18.3756 17.3639 18.375C17.5493 18.3757 17.7301 18.3175 17.8802 18.2088C18.0159 18.1115 18.121 17.9775 18.183 17.8224C18.2451 17.6674 18.2614 17.4978 18.2302 17.3338L17.8189 14.9363L19.5689 13.2388C19.6843 13.1249 19.7658 12.9811 19.8043 12.8236C19.8427 12.6661 19.8367 12.501 19.7868 12.3467C19.7369 12.1924 19.6451 12.0551 19.5216 11.9499C19.3982 11.8448 19.2479 11.776 19.0877 11.7513L16.6727 11.4188ZM16.2702 14.0438C16.1689 14.1421 16.0929 14.2635 16.0487 14.3976C16.0046 14.5317 15.9935 14.6745 16.0164 14.8138L16.2089 15.9163L15.2202 15.4C15.0936 15.3326 14.9524 15.2974 14.8089 15.2974C14.6655 15.2974 14.5243 15.3326 14.3977 15.4L13.4089 15.9163L13.6014 14.8138C13.6244 14.6745 13.6133 14.5317 13.5691 14.3976C13.5249 14.2635 13.449 14.1421 13.3477 14.0438L12.5514 13.265L13.6539 13.125C13.7941 13.104 13.9271 13.0492 14.0414 12.9653C14.1557 12.8815 14.248 12.7712 14.3102 12.6438L14.8089 11.6025L15.3077 12.6C15.3699 12.7274 15.4621 12.8378 15.5765 12.9216C15.6908 13.0054 15.8237 13.0602 15.9639 13.0813L17.0664 13.2475L16.2702 14.0438Z" fill="#4B284D"/>
</svg>
