<svg width="25" height="25" viewBox="0 0 25 25" fill="none" xmlns="http://www.w3.org/2000/svg">
<circle cx="12.0903" cy="12.8458" r="11.5" stroke="white"/>
<g clip-path="url(#clip0_162_1761)">
<path d="M17.1435 18.8458H15.9276C15.9276 16.7945 14.2071 15.1262 12.0908 15.1262C9.97443 15.1262 8.2545 16.7951 8.2545 18.8458H7.03857C7.03857 16.1233 9.30567 13.9103 12.0914 13.9103C14.8764 13.9103 17.1435 16.1233 17.1435 18.8458Z" fill="white"/>
<path d="M12.0914 13.5151C10.2535 13.5151 8.75732 12.0183 8.75732 10.1804C8.75672 8.34196 10.2529 6.84576 12.0914 6.84576C13.9305 6.84576 15.4267 8.34136 15.4267 10.1804C15.4267 12.0195 13.9305 13.5151 12.0914 13.5151ZM12.0914 8.06169C10.9229 8.06169 9.97265 9.01194 9.97265 10.1804C9.97265 11.349 10.9229 12.2992 12.0914 12.2992C13.2605 12.2992 14.2108 11.349 14.2108 10.1804C14.2108 9.01194 13.2593 8.06169 12.0914 8.06169Z" fill="white"/>
</g>
<defs>
<clipPath id="clip0_162_1761">
<rect width="12" height="12" fill="white" transform="translate(6.09082 6.84576)"/>
</clipPath>
</defs>
</svg>
