<svg width="14" height="15" viewBox="0 0 14 15" fill="none" xmlns="http://www.w3.org/2000/svg">
<g clip-path="url(#clip0_91_11428)">
<path d="M12.8956 14.8458H11.477C11.477 12.4526 9.4697 10.5063 7.00066 10.5063C4.53162 10.5063 2.52503 12.4533 2.52503 14.8458H1.10645C1.10645 11.6696 3.75139 9.08774 7.00137 9.08774C10.2506 9.08774 12.8956 11.6696 12.8956 14.8458Z" fill="#E95235"/>
<path d="M7.00157 8.62669C4.85738 8.62669 3.11182 6.88042 3.11182 4.73623C3.11111 2.59133 4.85667 0.845764 7.00157 0.845764C9.14718 0.845764 10.8927 2.59062 10.8927 4.73623C10.8927 6.88184 9.14718 8.62669 7.00157 8.62669ZM7.00157 2.26435C5.63831 2.26435 4.52969 3.37297 4.52969 4.73623C4.52969 6.09949 5.63831 7.20811 7.00157 7.20811C8.36554 7.20811 9.47417 6.09949 9.47417 4.73623C9.47417 3.37297 8.36412 2.26435 7.00157 2.26435Z" fill="#E95235"/>
</g>
<defs>
<clipPath id="clip0_91_11428">
<rect width="14" height="14" fill="white" transform="translate(0.000488281 0.845764)"/>
</clipPath>
</defs>
</svg>
