<svg width="29" height="28" viewBox="0 0 29 28" fill="none" xmlns="http://www.w3.org/2000/svg">
<path d="M25.7614 11.935C25.5707 11.664 25.4148 11.37 25.2976 11.06C25.2511 10.7145 25.2511 10.3643 25.2976 10.0188C25.384 9.28182 25.25 8.53583 24.9126 7.875C24.4981 7.25997 23.9104 6.78185 23.2239 6.50125C22.9095 6.35994 22.6152 6.17752 22.3489 5.95875C22.1301 5.69238 21.9477 5.39814 21.8064 5.08375C21.5241 4.39588 21.0465 3.80576 20.4326 3.38625C19.7677 3.07246 19.0264 2.95702 18.2976 3.05375C17.9501 3.086 17.5999 3.07128 17.2564 3.01C16.9464 2.89277 16.6524 2.73696 16.3814 2.54625C15.7841 2.08147 15.0624 1.80436 14.3076 1.75C13.5558 1.80605 12.8374 2.08308 12.2426 2.54625C11.9716 2.73696 11.6776 2.89277 11.3676 3.01C11.0241 3.07107 10.6738 3.08579 10.3264 3.05375C9.59467 2.9553 8.85012 3.07078 8.18262 3.38625C7.56873 3.80576 7.09115 4.39588 6.80887 5.08375C6.66756 5.39814 6.48513 5.69238 6.26637 5.95875C6 6.17752 5.70576 6.35994 5.39137 6.50125C4.70484 6.78185 4.11709 7.25997 3.70262 7.875C3.38194 8.5378 3.26327 9.28027 3.36137 10.01C3.3934 10.3575 3.37869 10.7077 3.31762 11.0513C3.20039 11.3612 3.04458 11.6552 2.85387 11.9263C2.38909 12.5235 2.11198 13.2452 2.05762 14C2.11367 14.7518 2.39069 15.4702 2.85387 16.065C3.04458 16.336 3.20039 16.63 3.31762 16.94C3.37869 17.2836 3.3934 17.6338 3.36137 17.9812C3.26151 18.7138 3.38022 19.4596 3.70262 20.125C4.11709 20.74 4.70484 21.2182 5.39137 21.4987C5.70576 21.6401 6 21.8225 6.26637 22.0413C6.48513 22.3076 6.66756 22.6019 6.80887 22.9163C7.09115 23.6041 7.56873 24.1942 8.18262 24.6137C8.84752 24.9275 9.58878 25.043 10.3176 24.9463C10.6631 24.8995 11.0134 24.8995 11.3589 24.9463C11.6688 25.0635 11.9628 25.2193 12.2339 25.41C12.8259 25.8905 13.5481 26.183 14.3076 26.25C15.0594 26.1939 15.7778 25.9169 16.3726 25.4538C16.6437 25.263 16.9376 25.1072 17.2476 24.99C17.5931 24.9435 17.9433 24.9435 18.2889 24.99C19.0248 25.0749 19.7696 24.9442 20.4326 24.6137C21.0465 24.1942 21.5241 23.6041 21.8064 22.9163C21.9477 22.6019 22.1301 22.3076 22.3489 22.0413C22.6152 21.8225 22.9095 21.6401 23.2239 21.4987C23.9104 21.2182 24.4981 20.74 24.9126 20.125C25.2333 19.4622 25.352 18.7197 25.2539 17.99C25.2074 17.6445 25.2074 17.2943 25.2539 16.9488C25.3711 16.6388 25.5269 16.3448 25.7176 16.0738C26.1981 15.4817 26.4906 14.7595 26.5576 14C26.5016 13.2482 26.2245 12.5298 25.7614 11.935ZM24.2914 15.1288C23.9902 15.543 23.7596 16.0042 23.6089 16.4938C23.4971 17.0078 23.4617 17.5356 23.5039 18.06C23.5672 18.4593 23.5312 18.868 23.3989 19.25C23.1284 19.5572 22.7898 19.797 22.4101 19.95C21.935 20.1715 21.4979 20.4669 21.1151 20.825C20.757 21.2078 20.4617 21.6449 20.2401 22.12C20.0871 22.4997 19.8474 22.8383 19.5401 23.1087C19.1581 23.241 18.7494 23.2771 18.3501 23.2138C17.8257 23.1719 17.298 23.2073 16.7839 23.3188C16.2923 23.4712 15.8285 23.7016 15.4101 24.0013C15.0865 24.2511 14.7089 24.4219 14.3076 24.5C13.8986 24.4193 13.5147 24.2423 13.1876 23.9837C12.7692 23.6841 12.3054 23.4537 11.8139 23.3012C11.4852 23.2176 11.1467 23.1794 10.8076 23.1875H10.2651C9.86089 23.2566 9.44579 23.2235 9.05762 23.0912C8.75038 22.8208 8.51067 22.4822 8.35762 22.1025C8.13607 21.6274 7.84076 21.1903 7.48262 20.8075C7.0998 20.4494 6.66273 20.154 6.18762 19.9325C5.816 19.7821 5.48376 19.5487 5.21637 19.25C5.08407 18.868 5.04801 18.4593 5.11137 18.06C5.15349 17.5356 5.11811 17.0078 5.00637 16.4938C4.85566 16.0042 4.62505 15.543 4.32387 15.1288C4.06575 14.7981 3.88891 14.4115 3.80762 14C3.88891 13.5885 4.06575 13.2019 4.32387 12.8713C4.62505 12.457 4.85566 11.9958 5.00637 11.5062C5.11811 10.9922 5.15349 10.4644 5.11137 9.94C5.04801 9.54073 5.08407 9.132 5.21637 8.75C5.48686 8.44277 5.82546 8.20305 6.20512 8.05C6.68023 7.82846 7.1173 7.53314 7.50012 7.175C7.85826 6.79218 8.15357 6.35511 8.37512 5.88C8.52547 5.50838 8.75894 5.17614 9.05762 4.90875C9.44048 4.78053 9.84822 4.74456 10.2476 4.80375C10.772 4.84562 11.2997 4.81025 11.8139 4.69875C12.3054 4.5463 12.7692 4.31587 13.1876 4.01625C13.5147 3.75767 13.8986 3.5807 14.3076 3.5C14.7167 3.5807 15.1006 3.75767 15.4276 4.01625C15.846 4.31587 16.3098 4.5463 16.8014 4.69875C17.3154 4.81088 17.8432 4.84626 18.3676 4.80375C18.7669 4.74039 19.1756 4.77645 19.5576 4.90875C19.8649 5.17925 20.1046 5.51785 20.2576 5.8975C20.4792 6.37261 20.7745 6.80968 21.1326 7.1925C21.5154 7.55064 21.9525 7.84596 22.4276 8.0675C22.8073 8.22055 23.1459 8.46027 23.4164 8.7675C23.5487 9.1495 23.5847 9.55823 23.5214 9.9575C23.4792 10.4819 23.5146 11.0097 23.6264 11.5238C23.7771 12.0133 24.0077 12.4745 24.3089 12.8888C24.5583 13.2159 24.7289 13.5962 24.8076 14C24.7263 14.4115 24.5495 14.7981 24.2914 15.1288Z" fill="white"/>
<path d="M14.3076 6.125C12.7501 6.125 11.2275 6.58686 9.9325 7.45218C8.63747 8.31749 7.62811 9.5474 7.03207 10.9864C6.43603 12.4253 6.28008 14.0087 6.58394 15.5363C6.8878 17.0639 7.63782 18.4671 8.73915 19.5685C9.84049 20.6698 11.2437 21.4198 12.7713 21.7237C14.2989 22.0275 15.8823 21.8716 17.3213 21.2756C18.7602 20.6795 19.9901 19.6702 20.8554 18.3751C21.7208 17.0801 22.1826 15.5575 22.1826 14C22.1826 11.9114 21.3529 9.90838 19.8761 8.43153C18.3992 6.95469 16.3962 6.125 14.3076 6.125ZM14.3076 20.125C13.0962 20.125 11.912 19.7658 10.9048 19.0928C9.8975 18.4197 9.11245 17.4631 8.64886 16.3439C8.18527 15.2247 8.06398 13.9932 8.30031 12.8051C8.53665 11.6169 9.12 10.5256 9.97659 9.66897C10.8332 8.81237 11.9246 8.22903 13.1127 7.99269C14.3008 7.75636 15.5324 7.87765 16.6516 8.34124C17.7708 8.80483 18.7274 9.58988 19.4004 10.5971C20.0734 11.6044 20.4326 12.7886 20.4326 14C20.4326 15.6245 19.7873 17.1824 18.6387 18.331C17.49 19.4797 15.9321 20.125 14.3076 20.125Z" fill="white"/>
<path d="M16.1717 11.4188L15.0955 9.24003C15.0238 9.09209 14.9119 8.96733 14.7727 8.88003C14.6334 8.79273 14.4723 8.74643 14.308 8.74643C14.1436 8.74643 13.9825 8.79273 13.8433 8.88003C13.704 8.96733 13.5921 9.09209 13.5205 9.24003L12.4442 11.4188L10.038 11.7688C9.8777 11.7935 9.72747 11.8623 9.60403 11.9674C9.48059 12.0726 9.38879 12.2099 9.33887 12.3642C9.28896 12.5185 9.2829 12.6836 9.32136 12.8411C9.35983 12.9986 9.44131 13.1424 9.55671 13.2563L11.3067 14.9538L10.8955 17.3513C10.8642 17.5153 10.8806 17.6849 10.9426 17.8399C11.0046 17.995 11.1097 18.129 11.2455 18.2263C11.3722 18.314 11.5199 18.3666 11.6735 18.3789C11.8272 18.3912 11.9814 18.3627 12.1205 18.2963L14.308 17.1413L16.4605 18.2788C16.585 18.3426 16.723 18.3756 16.863 18.375C17.0483 18.3757 17.2291 18.3175 17.3792 18.2088C17.515 18.1115 17.62 17.9775 17.6821 17.8224C17.7441 17.6674 17.7604 17.4978 17.7292 17.3338L17.318 14.9363L19.068 13.2388C19.1834 13.1249 19.2648 12.9811 19.3033 12.8236C19.3418 12.6661 19.3357 12.501 19.2858 12.3467C19.2359 12.1924 19.1441 12.0551 19.0206 11.9499C18.8972 11.8448 18.747 11.776 18.5867 11.7513L16.1717 11.4188ZM15.7692 14.0438C15.6679 14.1421 15.592 14.2635 15.5478 14.3976C15.5036 14.5317 15.4925 14.6745 15.5155 14.8138L15.708 15.9163L14.7192 15.4C14.5926 15.3326 14.4514 15.2974 14.308 15.2974C14.1645 15.2974 14.0233 15.3326 13.8967 15.4L12.908 15.9163L13.1005 14.8138C13.1234 14.6745 13.1123 14.5317 13.0681 14.3976C13.024 14.2635 12.948 14.1421 12.8467 14.0438L12.0505 13.265L13.153 13.125C13.2931 13.104 13.4261 13.0492 13.5404 12.9653C13.6548 12.8815 13.747 12.7712 13.8092 12.6438L14.308 11.6025L14.8067 12.6C14.8689 12.7274 14.9612 12.8378 15.0755 12.9216C15.1898 13.0054 15.3228 13.0602 15.463 13.0813L16.5655 13.2475L15.7692 14.0438Z" fill="white"/>
</svg>
