<svg width="29" height="28" viewBox="0 0 29 28" fill="none" xmlns="http://www.w3.org/2000/svg">
<path d="M18.1261 1.74999C16.4889 1.75159 14.8856 2.22223 13.5023 3.1073C12.1191 3.99237 11.0125 5.25561 10.3109 6.75048C9.60931 8.24536 9.34151 9.9106 9.53855 11.553C9.73559 13.1955 10.3894 14.7478 11.4241 16.03L9.90018 17.5787L9.82225 17.5C9.49778 17.1741 9.05886 16.9911 8.60135 16.9911C8.14384 16.9911 7.70492 17.1741 7.38045 17.5L3.40604 21.5162C2.91786 21.9972 2.62166 22.6427 2.57377 23.33C2.52587 24.0173 2.72962 24.6984 3.14627 25.2437C3.3906 25.5423 3.69396 25.7861 4.0369 25.9594C4.37984 26.1326 4.75482 26.2316 5.13781 26.25H5.27635C5.99259 26.247 6.67932 25.9613 7.18996 25.4537L11.199 21.3587C11.5216 21.0309 11.7026 20.5873 11.7026 20.125C11.7026 19.6627 11.5216 19.2191 11.199 18.8912L11.1211 18.8125L12.6537 17.2725C13.7279 18.1605 14.9976 18.7746 16.3558 19.063C17.7141 19.3514 19.121 19.3056 20.458 18.9296C21.7951 18.5535 23.0231 17.8582 24.0386 16.9022C25.0541 15.9463 25.8273 14.7576 26.293 13.4365C26.7588 12.1153 26.9035 10.7004 26.7149 9.3109C26.5263 7.92143 26.0099 6.59813 25.2093 5.45252C24.4087 4.3069 23.3473 3.37254 22.1146 2.72818C20.8819 2.08382 19.514 1.74833 18.1261 1.74999ZM5.92576 24.2112C5.8317 24.3112 5.71696 24.3889 5.58972 24.4388C5.46249 24.4887 5.32591 24.5096 5.18976 24.5C5.05388 24.4919 4.9212 24.455 4.80037 24.3917C4.67953 24.3284 4.57323 24.2401 4.48839 24.1325C4.34438 23.9233 4.27918 23.6689 4.30459 23.4153C4.33 23.1618 4.44434 22.9258 4.62694 22.75L8.60135 18.7337L9.97811 20.125L5.92576 24.2112ZM18.1261 17.5C16.756 17.5 15.4168 17.0894 14.2776 16.3203C13.1385 15.5511 12.2506 14.4579 11.7263 13.1788C11.202 11.8997 11.0648 10.4922 11.3321 9.13436C11.5994 7.77649 12.2591 6.52921 13.2279 5.55024C14.1967 4.57128 15.431 3.90459 16.7747 3.63449C18.1184 3.3644 19.5112 3.50302 20.777 4.03283C22.0427 4.56265 23.1246 5.45985 23.8857 6.611C24.6469 7.76214 25.0532 9.11552 25.0532 10.5C25.0532 12.3565 24.3234 14.137 23.0243 15.4497C21.7252 16.7625 19.9633 17.5 18.1261 17.5Z" fill="#4B284D"/>
</svg>
