<svg width="29" height="28" viewBox="0 0 29 28" fill="none" xmlns="http://www.w3.org/2000/svg">
<path d="M17.6251 1.74999C15.9879 1.75159 14.3846 2.22223 13.0014 3.1073C11.6181 3.99237 10.5115 5.25561 9.80992 6.75048C9.10834 8.24536 8.84054 9.9106 9.03758 11.553C9.23462 13.1955 9.88843 14.7478 10.9232 16.03L9.3992 17.5787L9.32127 17.5C8.9968 17.1741 8.55788 16.9911 8.10037 16.9911C7.64286 16.9911 7.20394 17.1741 6.87948 17.5L2.90506 21.5162C2.41689 21.9972 2.12068 22.6427 2.07279 23.33C2.02489 24.0173 2.22865 24.6984 2.6453 25.2437C2.88963 25.5423 3.19298 25.7861 3.53592 25.9594C3.87887 26.1326 4.25384 26.2316 4.63683 26.25H4.77537C5.49162 26.247 6.17835 25.9613 6.68898 25.4537L10.698 21.3587C11.0206 21.0309 11.2016 20.5873 11.2016 20.125C11.2016 19.6627 11.0206 19.2191 10.698 18.8912L10.6201 18.8125L12.1527 17.2725C13.2269 18.1605 14.4966 18.7746 15.8549 19.063C17.2131 19.3514 18.62 19.3056 19.957 18.9296C21.2941 18.5535 22.5221 17.8582 23.5376 16.9022C24.5531 15.9463 25.3263 14.7576 25.7921 13.4365C26.2578 12.1153 26.4025 10.7004 26.2139 9.3109C26.0253 7.92143 25.5089 6.59813 24.7083 5.45252C23.9077 4.3069 22.8464 3.37254 21.6136 2.72818C20.3809 2.08382 19.013 1.74833 17.6251 1.74999ZM5.42479 24.2112C5.33073 24.3112 5.21598 24.3889 5.08875 24.4388C4.96151 24.4887 4.82494 24.5096 4.68878 24.5C4.5529 24.4919 4.42023 24.455 4.29939 24.3917C4.17855 24.3284 4.07226 24.2401 3.98742 24.1325C3.8434 23.9233 3.7782 23.6689 3.80361 23.4153C3.82902 23.1618 3.94336 22.9258 4.12596 22.75L8.10037 18.7337L9.47713 20.125L5.42479 24.2112ZM17.6251 17.5C16.2551 17.5 14.9158 17.0894 13.7766 16.3203C12.6375 15.5511 11.7496 14.4579 11.2253 13.1788C10.701 11.8997 10.5638 10.4922 10.8311 9.13436C11.0984 7.77649 11.7582 6.52921 12.7269 5.55024C13.6957 4.57128 14.93 3.90459 16.2737 3.63449C17.6174 3.3644 19.0102 3.50302 20.276 4.03283C21.5418 4.56265 22.6236 5.45985 23.3848 6.611C24.1459 7.76214 24.5522 9.11552 24.5522 10.5C24.5522 12.3565 23.8224 14.137 22.5233 15.4497C21.2242 16.7625 19.4623 17.5 17.6251 17.5Z" fill="white"/>
</svg>
