<svg width="29" height="29" viewBox="0 0 29 29" fill="none" xmlns="http://www.w3.org/2000/svg">
<circle cx="14.501" cy="14.8457" r="13.5" stroke="white"/>
<g clip-path="url(#clip0_288_231)">
<path d="M20.3966 21.8457H18.978C18.978 19.4525 16.9707 17.5062 14.5016 17.5062C12.0326 17.5062 10.026 19.4532 10.026 21.8457H8.60742C8.60742 18.6695 11.2524 16.0876 14.5023 16.0876C17.7516 16.0876 20.3966 18.6695 20.3966 21.8457Z" fill="white"/>
<path d="M14.5026 15.6266C12.3584 15.6266 10.6128 13.8804 10.6128 11.7362C10.6121 9.59127 12.3577 7.8457 14.5026 7.8457C16.6482 7.8457 18.3937 9.59056 18.3937 11.7362C18.3937 13.8818 16.6482 15.6266 14.5026 15.6266ZM14.5026 9.26429C13.1393 9.26429 12.0307 10.3729 12.0307 11.7362C12.0307 13.0994 13.1393 14.208 14.5026 14.208C15.8665 14.208 16.9751 13.0994 16.9751 11.7362C16.9751 10.3729 15.8651 9.26429 14.5026 9.26429Z" fill="white"/>
</g>
<defs>
<clipPath id="clip0_288_231">
<rect width="14" height="14" fill="white" transform="translate(7.50146 7.8457)"/>
</clipPath>
</defs>
</svg>
