<svg width="29" height="28" viewBox="0 0 29 28" fill="none" xmlns="http://www.w3.org/2000/svg">
<path d="M23.9326 5.25C19.0676 5.25 14.8939 1.9775 14.8501 1.9425C14.6956 1.82043 14.5045 1.75403 14.3076 1.75403C14.1107 1.75403 13.9196 1.82043 13.7651 1.9425C13.7214 1.9775 9.56512 5.25 4.68262 5.25C4.45055 5.25 4.22799 5.34219 4.0639 5.50628C3.8998 5.67038 3.80762 5.89294 3.80762 6.125V14C3.80762 19.8713 6.17887 22.75 13.9489 26.1712C14.0617 26.222 14.1839 26.2482 14.3076 26.2482C14.4313 26.2482 14.5536 26.222 14.6664 26.1712C22.4364 22.75 24.8076 19.8713 24.8076 14V6.125C24.8076 5.89294 24.7154 5.67038 24.5513 5.50628C24.3872 5.34219 24.1647 5.25 23.9326 5.25ZM23.0576 14C23.0576 18.5325 21.8326 21 14.3076 24.4125C6.78262 21 5.55762 18.5325 5.55762 14V7C8.70969 6.67833 11.7245 5.54477 14.3076 3.71C16.8908 5.54477 19.9055 6.67833 23.0576 7V14Z" fill="white"/>
</svg>
