<svg width="28" height="29" viewBox="0 0 28 29" fill="none" xmlns="http://www.w3.org/2000/svg">
<circle cx="14" cy="14.8458" r="13.5" stroke="#E95235"/>
<g clip-path="url(#clip0_91_11426)">
<path d="M19.8956 21.8458H18.477C18.477 19.4526 16.4697 17.5063 14.0007 17.5063C11.5316 17.5063 9.52503 19.4533 9.52503 21.8458H8.10645C8.10645 18.6696 10.7514 16.0877 14.0014 16.0877C17.2506 16.0877 19.8956 18.6696 19.8956 21.8458Z" fill="#E95235"/>
<path d="M14.0016 15.6267C11.8574 15.6267 10.1118 13.8804 10.1118 11.7362C10.1111 9.59133 11.8567 7.84576 14.0016 7.84576C16.1472 7.84576 17.8927 9.59062 17.8927 11.7362C17.8927 13.8818 16.1472 15.6267 14.0016 15.6267ZM14.0016 9.26435C12.6383 9.26435 11.5297 10.373 11.5297 11.7362C11.5297 13.0995 12.6383 14.2081 14.0016 14.2081C15.3655 14.2081 16.4742 13.0995 16.4742 11.7362C16.4742 10.373 15.3641 9.26435 14.0016 9.26435Z" fill="#E95235"/>
</g>
<defs>
<clipPath id="clip0_91_11426">
<rect width="14" height="14" fill="white" transform="translate(7.00049 7.84576)"/>
</clipPath>
</defs>
</svg>
