<svg width="29" height="28" viewBox="0 0 29 28" fill="none" xmlns="http://www.w3.org/2000/svg">
<path d="M24.4336 5.25C19.5686 5.25 15.3948 1.9775 15.3511 1.9425C15.1966 1.82043 15.0055 1.75403 14.8086 1.75403C14.6117 1.75403 14.4206 1.82043 14.2661 1.9425C14.2223 1.9775 10.0661 5.25 5.18359 5.25C4.95153 5.25 4.72897 5.34219 4.56488 5.50628C4.40078 5.67038 4.30859 5.89294 4.30859 6.125V14C4.30859 19.8713 6.67984 22.75 14.4498 26.1712C14.5626 26.222 14.6849 26.2482 14.8086 26.2482C14.9323 26.2482 15.0545 26.222 15.1673 26.1712C22.9373 22.75 25.3086 19.8713 25.3086 14V6.125C25.3086 5.89294 25.2164 5.67038 25.0523 5.50628C24.8882 5.34219 24.6657 5.25 24.4336 5.25ZM23.5586 14C23.5586 18.5325 22.3336 21 14.8086 24.4125C7.28359 21 6.05859 18.5325 6.05859 14V7C9.21066 6.67833 12.2255 5.54477 14.8086 3.71C17.3917 5.54477 20.4065 6.67833 23.5586 7V14Z" fill="#4B284D"/>
</svg>
