<svg width="29" height="28" viewBox="0 0 29 28" fill="none" xmlns="http://www.w3.org/2000/svg">
<path d="M26.4789 13.65L24.5451 9.275C24.4774 9.11984 24.3661 8.98766 24.2248 8.89448C24.0835 8.80129 23.9182 8.7511 23.7489 8.75H19.0676L19.3476 6.22125C19.3614 6.09849 19.349 5.97421 19.3113 5.85658C19.2736 5.73894 19.2114 5.63062 19.1289 5.53875C19.0471 5.44811 18.9472 5.37559 18.8357 5.32586C18.7242 5.27613 18.6035 5.25029 18.4814 5.25H6.43262C6.20055 5.25 5.97799 5.34219 5.8139 5.50628C5.6498 5.67038 5.55762 5.89294 5.55762 6.125C5.55762 6.35706 5.6498 6.57962 5.8139 6.74372C5.97799 6.90781 6.20055 7 6.43262 7H17.5014L16.1451 19.25H11.9976C11.9067 18.8796 11.7264 18.5372 11.4726 18.2525C11.262 18.0128 11.002 17.8214 10.7106 17.6915C10.4191 17.5616 10.103 17.4963 9.78387 17.5C9.24436 17.5143 8.72118 17.6881 8.28044 17.9996C7.8397 18.3111 7.50117 18.7462 7.30762 19.25H4.68262C4.45055 19.25 4.22799 19.3422 4.0639 19.5063C3.8998 19.6704 3.80762 19.8929 3.80762 20.125C3.80762 20.3571 3.8998 20.5796 4.0639 20.7437C4.22799 20.9078 4.45055 21 4.68262 21H7.17637C7.27085 21.369 7.45068 21.7107 7.70137 21.9975C7.9138 22.235 8.17411 22.4249 8.46518 22.5546C8.75624 22.6843 9.07147 22.7509 9.39012 22.75C9.92934 22.7346 10.452 22.5603 10.8925 22.249C11.3331 21.9376 11.6718 21.5031 11.8664 21H18.5514C18.6459 21.369 18.8257 21.7107 19.0764 21.9975C19.2888 22.235 19.5491 22.4249 19.8402 22.5546C20.1312 22.6843 20.4465 22.7509 20.7651 22.75C21.3043 22.7346 21.827 22.5603 22.2675 22.249C22.7081 21.9376 23.0468 21.5031 23.2414 21H24.9914C25.2077 21.0013 25.4168 20.9225 25.5784 20.7786C25.74 20.6348 25.8426 20.4363 25.8664 20.2212L26.5401 14.0962C26.5641 13.9447 26.5428 13.7895 26.4789 13.65ZM9.39012 21C9.31756 21.0031 9.24523 20.9898 9.17856 20.961C9.11188 20.9322 9.05259 20.8887 9.00512 20.8337C8.93643 20.7488 8.88618 20.6504 8.85756 20.545C8.82894 20.4395 8.82257 20.3293 8.83887 20.2212C8.86122 19.9756 8.96728 19.745 9.13932 19.5682C9.31135 19.3914 9.5389 19.2791 9.78387 19.25C9.85643 19.2469 9.92875 19.2602 9.99543 19.289C10.0621 19.3178 10.1214 19.3613 10.1689 19.4162C10.2376 19.5012 10.2878 19.5996 10.3164 19.705C10.345 19.8105 10.3514 19.9207 10.3351 20.0287C10.3128 20.2744 10.2067 20.505 10.0347 20.6818C9.86264 20.8586 9.63509 20.9709 9.39012 21ZM24.3351 13.125H21.8151L22.1039 10.5H23.1801L24.3351 13.125ZM20.7651 21C20.6926 21.0031 20.6202 20.9898 20.5536 20.961C20.4869 20.9322 20.4276 20.8887 20.3801 20.8337C20.3114 20.7488 20.2612 20.6504 20.2326 20.545C20.2039 20.4395 20.1976 20.3293 20.2139 20.2212C20.2362 19.9756 20.3423 19.745 20.5143 19.5682C20.6863 19.3914 20.9139 19.2791 21.1589 19.25C21.2314 19.2469 21.3038 19.2602 21.3704 19.289C21.4371 19.3178 21.4964 19.3613 21.5439 19.4162C21.6126 19.5012 21.6628 19.5996 21.6914 19.705C21.72 19.8105 21.7264 19.9207 21.7101 20.0287C21.6878 20.2744 21.5817 20.505 21.4097 20.6818C21.2376 20.8586 21.0101 20.9709 20.7651 21ZM23.3901 19.25C23.2992 18.8796 23.1189 18.5372 22.8651 18.2525C22.6515 18.0119 22.3885 17.8201 22.094 17.6903C21.7996 17.5604 21.4806 17.4955 21.1589 17.5C20.6194 17.5143 20.0962 17.6881 19.6554 17.9996C19.2147 18.3111 18.8762 18.7462 18.6826 19.25H17.8951L18.8664 10.5H20.3451L19.9689 13.9037C19.9551 14.0265 19.9675 14.1508 20.0052 14.2684C20.0429 14.3861 20.105 14.4944 20.1876 14.5862C20.2694 14.6769 20.3693 14.7494 20.4808 14.7991C20.5923 14.8489 20.713 14.8747 20.8351 14.875H24.7026L24.2214 19.25H23.3901Z" fill="white"/>
<path d="M6.43262 17.5C6.66468 17.5 6.88724 17.4078 7.05134 17.2437C7.21543 17.0796 7.30762 16.8571 7.30762 16.625C7.30762 16.3929 7.21543 16.1704 7.05134 16.0063C6.88724 15.8422 6.66468 15.75 6.43262 15.75H3.80762C3.57555 15.75 3.35299 15.8422 3.1889 16.0063C3.0248 16.1704 2.93262 16.3929 2.93262 16.625C2.93262 16.8571 3.0248 17.0796 3.1889 17.2437C3.35299 17.4078 3.57555 17.5 3.80762 17.5H6.43262Z" fill="white"/>
<path d="M3.80762 14C4.03968 14 4.26224 13.9078 4.42634 13.7437C4.59043 13.5796 4.68262 13.3571 4.68262 13.125C4.68262 12.8929 4.59043 12.6704 4.42634 12.5063C4.26224 12.3422 4.03968 12.25 3.80762 12.25H2.93262C2.70055 12.25 2.47799 12.3422 2.3139 12.5063C2.1498 12.6704 2.05762 12.8929 2.05762 13.125C2.05762 13.3571 2.1498 13.5796 2.3139 13.7437C2.47799 13.9078 2.70055 14 2.93262 14H3.80762Z" fill="white"/>
<path d="M7.30762 12.25C7.07555 12.25 6.85299 12.3422 6.6889 12.5063C6.5248 12.6704 6.43262 12.8929 6.43262 13.125C6.43262 13.3571 6.5248 13.5796 6.6889 13.7437C6.85299 13.9078 7.07555 14 7.30762 14H10.8076C11.0397 14 11.2622 13.9078 11.4263 13.7437C11.5904 13.5796 11.6826 13.3571 11.6826 13.125C11.6826 12.8929 11.5904 12.6704 11.4263 12.5063C11.2622 12.3422 11.0397 12.25 10.8076 12.25H7.30762Z" fill="white"/>
<path d="M4.68262 10.5H13.4326C13.6647 10.5 13.8872 10.4078 14.0513 10.2437C14.2154 10.0796 14.3076 9.85706 14.3076 9.625C14.3076 9.39294 14.2154 9.17038 14.0513 9.00628C13.8872 8.84219 13.6647 8.75 13.4326 8.75H4.68262C4.45055 8.75 4.22799 8.84219 4.0639 9.00628C3.8998 9.17038 3.80762 9.39294 3.80762 9.625C3.80762 9.85706 3.8998 10.0796 4.0639 10.2437C4.22799 10.4078 4.45055 10.5 4.68262 10.5Z" fill="white"/>
</svg>
