<svg width="29" height="28" viewBox="0 0 29 28" fill="none" xmlns="http://www.w3.org/2000/svg">
<path d="M26.9801 13.65L25.0463 9.275C24.9786 9.11984 24.8674 8.98766 24.726 8.89448C24.5847 8.80129 24.4194 8.7511 24.2501 8.75H19.5688L19.8488 6.22125C19.8626 6.09849 19.8502 5.97421 19.8125 5.85658C19.7748 5.73894 19.7127 5.63062 19.6301 5.53875C19.5483 5.44811 19.4484 5.37559 19.3369 5.32586C19.2254 5.27613 19.1047 5.25029 18.9826 5.25H6.93384C6.70177 5.25 6.47921 5.34219 6.31512 5.50628C6.15103 5.67038 6.05884 5.89294 6.05884 6.125C6.05884 6.35706 6.15103 6.57962 6.31512 6.74372C6.47921 6.90781 6.70177 7 6.93384 7H18.0026L16.6463 19.25H12.4988C12.4079 18.8796 12.2276 18.5372 11.9738 18.2525C11.7632 18.0128 11.5033 17.8214 11.2118 17.6915C10.9203 17.5616 10.6042 17.4963 10.2851 17.5C9.74558 17.5143 9.2224 17.6881 8.78166 17.9996C8.34092 18.3111 8.00239 18.7462 7.80884 19.25H5.18384C4.95177 19.25 4.72921 19.3422 4.56512 19.5063C4.40103 19.6704 4.30884 19.8929 4.30884 20.125C4.30884 20.3571 4.40103 20.5796 4.56512 20.7437C4.72921 20.9078 4.95177 21 5.18384 21H7.67759C7.77207 21.369 7.9519 21.7107 8.20259 21.9975C8.41502 22.235 8.67533 22.4249 8.9664 22.5546C9.25746 22.6843 9.57269 22.7509 9.89134 22.75C10.4306 22.7346 10.9532 22.5603 11.3937 22.249C11.8343 21.9376 12.1731 21.5031 12.3676 21H19.0526C19.1471 21.369 19.3269 21.7107 19.5776 21.9975C19.79 22.235 20.0503 22.4249 20.3414 22.5546C20.6325 22.6843 20.9477 22.7509 21.2663 22.75C21.8056 22.7346 22.3282 22.5603 22.7687 22.249C23.2093 21.9376 23.5481 21.5031 23.7426 21H25.4926C25.7089 21.0013 25.918 20.9225 26.0796 20.7786C26.2412 20.6348 26.3438 20.4363 26.3676 20.2212L27.0413 14.0962C27.0653 13.9447 27.044 13.7895 26.9801 13.65ZM9.89134 21C9.81878 21.0031 9.74645 20.9898 9.67978 20.961C9.6131 20.9322 9.55381 20.8887 9.50634 20.8337C9.43765 20.7488 9.3874 20.6504 9.35878 20.545C9.33016 20.4395 9.32379 20.3293 9.34009 20.2212C9.36244 19.9756 9.46851 19.745 9.64054 19.5682C9.81257 19.3914 10.0401 19.2791 10.2851 19.25C10.3576 19.2469 10.43 19.2602 10.4966 19.289C10.5633 19.3178 10.6226 19.3613 10.6701 19.4162C10.7388 19.5012 10.789 19.5996 10.8176 19.705C10.8463 19.8105 10.8526 19.9207 10.8363 20.0287C10.814 20.2744 10.7079 20.505 10.5359 20.6818C10.3639 20.8586 10.1363 20.9709 9.89134 21ZM24.8363 13.125H22.3163L22.6051 10.5H23.6813L24.8363 13.125ZM21.2663 21C21.1938 21.0031 21.1215 20.9898 21.0548 20.961C20.9881 20.9322 20.9288 20.8887 20.8813 20.8337C20.8127 20.7488 20.7624 20.6504 20.7338 20.545C20.7052 20.4395 20.6988 20.3293 20.7151 20.2212C20.7374 19.9756 20.8435 19.745 21.0155 19.5682C21.1876 19.3914 21.4151 19.2791 21.6601 19.25C21.7326 19.2469 21.805 19.2602 21.8716 19.289C21.9383 19.3178 21.9976 19.3613 22.0451 19.4162C22.1138 19.5012 22.164 19.5996 22.1926 19.705C22.2213 19.8105 22.2276 19.9207 22.2113 20.0287C22.189 20.2744 22.0829 20.505 21.9109 20.6818C21.7389 20.8586 21.5113 20.9709 21.2663 21ZM23.8913 19.25C23.8004 18.8796 23.6201 18.5372 23.3663 18.2525C23.1527 18.0119 22.8897 17.8201 22.5952 17.6903C22.3008 17.5604 21.9819 17.4955 21.6601 17.5C21.1206 17.5143 20.5974 17.6881 20.1567 17.9996C19.7159 18.3111 19.3774 18.7462 19.1838 19.25H18.3963L19.3676 10.5H20.8463L20.4701 13.9037C20.4563 14.0265 20.4687 14.1508 20.5064 14.2684C20.5441 14.3861 20.6063 14.4944 20.6888 14.5862C20.7706 14.6769 20.8705 14.7494 20.982 14.7991C21.0935 14.8489 21.2142 14.8747 21.3363 14.875H25.2038L24.7226 19.25H23.8913Z" fill="#4B284D"/>
<path d="M6.93384 17.5C7.1659 17.5 7.38846 17.4078 7.55256 17.2437C7.71665 17.0796 7.80884 16.8571 7.80884 16.625C7.80884 16.3929 7.71665 16.1704 7.55256 16.0063C7.38846 15.8422 7.1659 15.75 6.93384 15.75H4.30884C4.07677 15.75 3.85421 15.8422 3.69012 16.0063C3.52603 16.1704 3.43384 16.3929 3.43384 16.625C3.43384 16.8571 3.52603 17.0796 3.69012 17.2437C3.85421 17.4078 4.07677 17.5 4.30884 17.5H6.93384Z" fill="#4B284D"/>
<path d="M4.30884 14C4.5409 14 4.76346 13.9078 4.92756 13.7437C5.09165 13.5796 5.18384 13.3571 5.18384 13.125C5.18384 12.8929 5.09165 12.6704 4.92756 12.5063C4.76346 12.3422 4.5409 12.25 4.30884 12.25H3.43384C3.20177 12.25 2.97921 12.3422 2.81512 12.5063C2.65103 12.6704 2.55884 12.8929 2.55884 13.125C2.55884 13.3571 2.65103 13.5796 2.81512 13.7437C2.97921 13.9078 3.20177 14 3.43384 14H4.30884Z" fill="#4B284D"/>
<path d="M7.80884 12.25C7.57677 12.25 7.35421 12.3422 7.19012 12.5063C7.02603 12.6704 6.93384 12.8929 6.93384 13.125C6.93384 13.3571 7.02603 13.5796 7.19012 13.7437C7.35421 13.9078 7.57677 14 7.80884 14H11.3088C11.5409 14 11.7635 13.9078 11.9276 13.7437C12.0917 13.5796 12.1838 13.3571 12.1838 13.125C12.1838 12.8929 12.0917 12.6704 11.9276 12.5063C11.7635 12.3422 11.5409 12.25 11.3088 12.25H7.80884Z" fill="#4B284D"/>
<path d="M5.18384 10.5H13.9338C14.1659 10.5 14.3885 10.4078 14.5526 10.2437C14.7167 10.0796 14.8088 9.85706 14.8088 9.625C14.8088 9.39294 14.7167 9.17038 14.5526 9.00628C14.3885 8.84219 14.1659 8.75 13.9338 8.75H5.18384C4.95177 8.75 4.72921 8.84219 4.56512 9.00628C4.40103 9.17038 4.30884 9.39294 4.30884 9.625C4.30884 9.85706 4.40103 10.0796 4.56512 10.2437C4.72921 10.4078 4.95177 10.5 5.18384 10.5Z" fill="#4B284D"/>
</svg>
