<svg width="29" height="28" viewBox="0 0 29 28" fill="none" xmlns="http://www.w3.org/2000/svg">
<path d="M22.8204 8.6625C22.7989 8.44592 22.6982 8.24522 22.5381 8.09961C22.378 7.95399 22.1699 7.87391 21.9545 7.875H19.3569V7C19.3569 5.60761 18.8095 4.27226 17.8352 3.28769C16.8609 2.30312 15.5395 1.75 14.1616 1.75C12.7837 1.75 11.4622 2.30312 10.4879 3.28769C9.51362 4.27226 8.96625 5.60761 8.96625 7V7.875H6.3686C6.15319 7.87391 5.94512 7.95399 5.78501 8.09961C5.6249 8.24522 5.52425 8.44592 5.50271 8.6625L3.97875 23.3538C3.94104 23.7206 3.98023 24.0913 4.09378 24.4418C4.20733 24.7923 4.39268 25.1146 4.63776 25.3879C4.88284 25.6611 5.18215 25.8791 5.51618 26.0277C5.85021 26.1762 6.21147 26.252 6.57641 26.25H21.764C22.129 26.252 22.4902 26.1762 22.8243 26.0277C23.1583 25.8791 23.4576 25.6611 23.7027 25.3879C23.9478 25.1146 24.1331 24.7923 24.2467 24.4418C24.3602 24.0913 24.3994 23.7206 24.3617 23.3538L22.8204 8.6625ZM10.698 7C10.698 6.07174 11.0629 5.1815 11.7125 4.52513C12.362 3.86875 13.243 3.5 14.1616 3.5C15.0802 3.5 15.9611 3.86875 16.6107 4.52513C17.2602 5.1815 17.6251 6.07174 17.6251 7V7.875H10.698V7ZM22.4048 24.2113C22.3238 24.3019 22.225 24.3744 22.1147 24.4241C22.0043 24.4739 21.8849 24.4997 21.764 24.5H6.55909C6.43772 24.5006 6.31757 24.4754 6.20644 24.4261C6.09531 24.3768 5.9957 24.3044 5.91405 24.2136C5.8324 24.1228 5.77055 24.0157 5.7325 23.8993C5.69446 23.7828 5.68107 23.6595 5.69321 23.5375L7.1479 9.625H21.1752L22.6213 23.5375C22.6337 23.6588 22.6208 23.7815 22.5835 23.8975C22.5462 24.0135 22.4854 24.1204 22.4048 24.2113Z" fill="white"/>
<path d="M18.491 11.375C18.2614 11.375 18.0412 11.4672 17.8788 11.6313C17.7164 11.7954 17.6252 12.0179 17.6252 12.25C17.6252 13.1783 17.2603 14.0685 16.6107 14.7249C15.9612 15.3813 15.0802 15.75 14.1616 15.75C13.243 15.75 12.3621 15.3813 11.7125 14.7249C11.063 14.0685 10.6981 13.1783 10.6981 12.25C10.6981 12.0179 10.6069 11.7954 10.4445 11.6313C10.2821 11.4672 10.0618 11.375 9.83219 11.375C9.60255 11.375 9.38231 11.4672 9.21992 11.6313C9.05754 11.7954 8.96631 12.0179 8.96631 12.25C8.96631 13.6424 9.51367 14.9777 10.488 15.9623C11.4623 16.9469 12.7837 17.5 14.1616 17.5C15.5395 17.5 16.861 16.9469 17.8353 15.9623C18.8096 14.9777 19.3569 13.6424 19.3569 12.25C19.3569 12.0179 19.2657 11.7954 19.1033 11.6313C18.9409 11.4672 18.7207 11.375 18.491 11.375Z" fill="white"/>
</svg>
