<svg width="29" height="28" viewBox="0 0 29 28" fill="none" xmlns="http://www.w3.org/2000/svg">
<path d="M23.3216 8.6625C23.3001 8.44592 23.1995 8.24522 23.0393 8.09961C22.8792 7.95399 22.6712 7.87391 22.4558 7.875H19.8581V7C19.8581 5.60761 19.3107 4.27226 18.3364 3.28769C17.3621 2.30312 16.0407 1.75 14.6628 1.75C13.2849 1.75 11.9635 2.30312 10.9891 3.28769C10.0148 4.27226 9.46748 5.60761 9.46748 7V7.875H6.86982C6.65442 7.87391 6.44634 7.95399 6.28623 8.09961C6.12612 8.24522 6.02547 8.44592 6.00393 8.6625L4.47997 23.3538C4.44226 23.7206 4.48145 24.0913 4.595 24.4418C4.70855 24.7923 4.8939 25.1146 5.13898 25.3879C5.38406 25.6611 5.68337 25.8791 6.0174 26.0277C6.35144 26.1762 6.71269 26.252 7.07763 26.25H22.2653C22.6302 26.252 22.9915 26.1762 23.3255 26.0277C23.6595 25.8791 23.9588 25.6611 24.2039 25.3879C24.449 25.1146 24.6343 24.7923 24.7479 24.4418C24.8614 24.0913 24.9006 23.7206 24.8629 23.3538L23.3216 8.6625ZM11.1992 7C11.1992 6.07174 11.5642 5.1815 12.2137 4.52513C12.8632 3.86875 13.7442 3.5 14.6628 3.5C15.5814 3.5 16.4623 3.86875 17.1119 4.52513C17.7614 5.1815 18.1263 6.07174 18.1263 7V7.875H11.1992V7ZM22.906 24.2113C22.8251 24.3019 22.7262 24.3744 22.6159 24.4241C22.5055 24.4739 22.3861 24.4997 22.2653 24.5H7.06031C6.93894 24.5006 6.81879 24.4754 6.70766 24.4261C6.59654 24.3768 6.49692 24.3044 6.41527 24.2136C6.33362 24.1228 6.27177 24.0157 6.23372 23.8993C6.19568 23.7828 6.18229 23.6595 6.19443 23.5375L7.64912 9.625H21.6765L23.1225 23.5375C23.1349 23.6588 23.122 23.7815 23.0847 23.8975C23.0475 24.0135 22.9866 24.1204 22.906 24.2113Z" fill="#4B284D"/>
<path d="M18.9924 11.375C18.7627 11.375 18.5425 11.4672 18.3801 11.6313C18.2177 11.7954 18.1265 12.0179 18.1265 12.25C18.1265 13.1783 17.7616 14.0685 17.1121 14.7249C16.4625 15.3813 15.5816 15.75 14.663 15.75C13.7444 15.75 12.8634 15.3813 12.2139 14.7249C11.5643 14.0685 11.1994 13.1783 11.1994 12.25C11.1994 12.0179 11.1082 11.7954 10.9458 11.6313C10.7834 11.4672 10.5632 11.375 10.3335 11.375C10.1039 11.375 9.88365 11.4672 9.72126 11.6313C9.55888 11.7954 9.46765 12.0179 9.46765 12.25C9.46765 13.6424 10.015 14.9777 10.9893 15.9623C11.9636 16.9469 13.2851 17.5 14.663 17.5C16.0408 17.5 17.3623 16.9469 18.3366 15.9623C19.3109 14.9777 19.8583 13.6424 19.8583 12.25C19.8583 12.0179 19.767 11.7954 19.6047 11.6313C19.4423 11.4672 19.222 11.375 18.9924 11.375Z" fill="#4B284D"/>
</svg>
