<svg width="29" height="28" viewBox="0 0 29 28" fill="none" xmlns="http://www.w3.org/2000/svg">
<path d="M26.3413 23.2925L24.8013 19.25C24.6213 18.7408 24.2886 18.2995 23.8485 17.9863C23.4085 17.6732 22.8826 17.5033 22.3425 17.5H20.7413C22.4301 15.5433 23.4212 13.0811 23.5588 10.5C23.5588 8.17936 22.6369 5.95376 20.996 4.31282C19.355 2.67187 17.1294 1.75 14.8088 1.75C12.4881 1.75 10.2625 2.67187 8.6216 4.31282C6.98065 5.95376 6.05878 8.17936 6.05878 10.5C6.19639 13.0811 7.18745 15.5433 8.87628 17.5H7.27503C6.73495 17.5033 6.20904 17.6732 5.76903 17.9863C5.32901 18.2995 4.9963 18.7408 4.81628 19.25L3.27628 23.2925C3.15368 23.6236 3.11273 23.9795 3.1569 24.3298C3.20107 24.6801 3.32907 25.0147 3.53003 25.305C3.72949 25.5966 3.99715 25.8352 4.30976 25.9999C4.62236 26.1646 4.97045 26.2504 5.32378 26.25H24.2938C24.6471 26.2504 24.9952 26.1646 25.3078 25.9999C25.6204 25.8352 25.8881 25.5966 26.0875 25.305C26.2885 25.0147 26.4165 24.6801 26.4607 24.3298C26.5048 23.9795 26.4639 23.6236 26.3413 23.2925ZM14.8088 3.5C16.6653 3.5 18.4458 4.2375 19.7585 5.55025C21.0713 6.86301 21.8088 8.64348 21.8088 10.5C21.8088 15.2337 16.4713 19.565 14.8088 20.7987C13.1463 19.565 7.80878 15.2337 7.80878 10.5C7.80878 8.64348 8.54628 6.86301 9.85903 5.55025C11.1718 4.2375 12.9523 3.5 14.8088 3.5ZM24.6525 24.3075C24.614 24.3674 24.5608 24.4165 24.498 24.4501C24.4353 24.4838 24.365 24.501 24.2938 24.5H5.32378C5.25257 24.501 5.18228 24.4838 5.11952 24.4501C5.05677 24.4165 5.0036 24.3674 4.96503 24.3075C4.93281 24.2453 4.916 24.1763 4.916 24.1062C4.916 24.0362 4.93281 23.9672 4.96503 23.905L6.49628 19.8188C6.5561 19.6581 6.66179 19.5185 6.80024 19.4174C6.93868 19.3163 7.10378 19.2581 7.27503 19.25H10.4338C11.631 20.4959 12.9501 21.6186 14.3713 22.6012C14.5142 22.6953 14.6815 22.7455 14.8525 22.7455C15.0236 22.7455 15.1909 22.6953 15.3338 22.6012C16.7398 21.6162 18.0441 20.4936 19.2275 19.25H22.3425C22.5213 19.2494 22.696 19.3036 22.843 19.4053C22.9901 19.507 23.1025 19.6513 23.165 19.8188L24.6963 23.905C24.722 23.9707 24.7314 24.0415 24.7238 24.1116C24.7162 24.1817 24.6917 24.2489 24.6525 24.3075Z" fill="#4B284D"/>
<path d="M19.1836 10.5C19.1836 9.63469 18.927 8.78883 18.4463 8.06937C17.9655 7.3499 17.2823 6.78915 16.4828 6.45801C15.6834 6.12688 14.8037 6.04024 13.9551 6.20905C13.1064 6.37786 12.3269 6.79454 11.715 7.40639C11.1031 8.01825 10.6865 8.7978 10.5177 9.64647C10.3488 10.4951 10.4355 11.3748 10.7666 12.1742C11.0978 12.9737 11.6585 13.6569 12.378 14.1377C13.0974 14.6184 13.9433 14.875 14.8086 14.875C15.9689 14.875 17.0817 14.414 17.9022 13.5936C18.7227 12.7731 19.1836 11.6603 19.1836 10.5ZM12.1836 10.5C12.1836 9.98081 12.3375 9.47329 12.626 9.04161C12.9144 8.60994 13.3244 8.27348 13.8041 8.0748C14.2837 7.87612 14.8115 7.82414 15.3207 7.92542C15.8299 8.02671 16.2976 8.27672 16.6648 8.64383C17.0319 9.01094 17.2819 9.47867 17.3832 9.98787C17.4844 10.4971 17.4325 11.0249 17.2338 11.5045C17.0351 11.9842 16.6986 12.3942 16.267 12.6826C15.8353 12.971 15.3278 13.125 14.8086 13.125C14.1124 13.125 13.4447 12.8484 12.9524 12.3561C12.4602 11.8639 12.1836 11.1962 12.1836 10.5Z" fill="#4B284D"/>
</svg>
