<svg width="29" height="28" viewBox="0 0 29 28" fill="none" xmlns="http://www.w3.org/2000/svg">
<path d="M25.8403 23.2925L24.3003 19.25C24.1203 18.7408 23.7876 18.2995 23.3476 17.9863C22.9075 17.6732 22.3816 17.5033 21.8416 17.5H20.2403C21.9291 15.5433 22.9202 13.0811 23.0578 10.5C23.0578 8.17936 22.1359 5.95376 20.495 4.31282C18.854 2.67187 16.6285 1.75 14.3078 1.75C11.9872 1.75 9.76156 2.67187 8.12062 4.31282C6.47968 5.95376 5.55781 8.17936 5.55781 10.5C5.69542 13.0811 6.68647 15.5433 8.37531 17.5H6.77406C6.23398 17.5033 5.70807 17.6732 5.26805 17.9863C4.82803 18.2995 4.49533 18.7408 4.31531 19.25L2.77531 23.2925C2.6527 23.6236 2.61175 23.9795 2.65592 24.3298C2.7001 24.6801 2.82809 25.0147 3.02906 25.305C3.22852 25.5966 3.49618 25.8352 3.80878 25.9999C4.12138 26.1646 4.46947 26.2504 4.82281 26.25H23.7928C24.1461 26.2504 24.4942 26.1646 24.8068 25.9999C25.1194 25.8352 25.3871 25.5966 25.5866 25.305C25.7875 25.0147 25.9155 24.6801 25.9597 24.3298C26.0039 23.9795 25.9629 23.6236 25.8403 23.2925ZM14.3078 3.5C16.1643 3.5 17.9448 4.2375 19.2576 5.55025C20.5703 6.86301 21.3078 8.64348 21.3078 10.5C21.3078 15.2337 15.9703 19.565 14.3078 20.7987C12.6453 19.565 7.30781 15.2337 7.30781 10.5C7.30781 8.64348 8.0453 6.86301 9.35806 5.55025C10.6708 4.2375 12.4513 3.5 14.3078 3.5ZM24.1516 24.3075C24.113 24.3674 24.0598 24.4165 23.9971 24.4501C23.9343 24.4838 23.864 24.501 23.7928 24.5H4.82281C4.75159 24.501 4.6813 24.4838 4.61855 24.4501C4.55579 24.4165 4.50263 24.3674 4.46406 24.3075C4.43184 24.2453 4.41502 24.1763 4.41502 24.1062C4.41502 24.0362 4.43184 23.9672 4.46406 23.905L5.99531 19.8188C6.05512 19.6581 6.16081 19.5185 6.29926 19.4174C6.43771 19.3163 6.60281 19.2581 6.77406 19.25H9.93281C11.13 20.4959 12.4491 21.6186 13.8703 22.6012C14.0132 22.6953 14.1805 22.7455 14.3516 22.7455C14.5226 22.7455 14.6899 22.6953 14.8328 22.6012C16.2388 21.6162 17.5431 20.4936 18.7266 19.25H21.8416C22.0203 19.2494 22.195 19.3036 22.3421 19.4053C22.4891 19.507 22.6015 19.6513 22.6641 19.8188L24.1953 23.905C24.221 23.9707 24.2304 24.0415 24.2228 24.1116C24.2152 24.1817 24.1907 24.2489 24.1516 24.3075Z" fill="white"/>
<path d="M18.6826 10.5C18.6826 9.63469 18.426 8.78883 17.9453 8.06937C17.4646 7.3499 16.7813 6.78915 15.9819 6.45801C15.1824 6.12688 14.3028 6.04024 13.4541 6.20905C12.6054 6.37786 11.8259 6.79454 11.214 7.40639C10.6022 8.01825 10.1855 8.7978 10.0167 9.64647C9.84787 10.4951 9.93451 11.3748 10.2656 12.1742C10.5968 12.9737 11.1575 13.6569 11.877 14.1377C12.5965 14.6184 13.4423 14.875 14.3076 14.875C15.4679 14.875 16.5807 14.414 17.4012 13.5936C18.2217 12.7731 18.6826 11.6603 18.6826 10.5ZM11.6826 10.5C11.6826 9.98081 11.8366 9.47329 12.125 9.04161C12.4135 8.60994 12.8234 8.27348 13.3031 8.0748C13.7827 7.87612 14.3105 7.82414 14.8197 7.92542C15.3289 8.02671 15.7967 8.27672 16.1638 8.64383C16.5309 9.01094 16.7809 9.47867 16.8822 9.98787C16.9835 10.4971 16.9315 11.0249 16.7328 11.5045C16.5341 11.9842 16.1977 12.3942 15.766 12.6826C15.3343 12.971 14.8268 13.125 14.3076 13.125C13.6114 13.125 12.9437 12.8484 12.4515 12.3561C11.9592 11.8639 11.6826 11.1962 11.6826 10.5Z" fill="white"/>
</svg>
