<svg width="28" height="28" viewBox="0 0 28 28" fill="none" xmlns="http://www.w3.org/2000/svg">
<path d="M23.625 4.375H4.375C3.67881 4.375 3.01113 4.65156 2.51884 5.14384C2.02656 5.63613 1.75 6.30381 1.75 7V21C1.75 21.6962 2.02656 22.3639 2.51884 22.8562C3.01113 23.3484 3.67881 23.625 4.375 23.625H23.625C24.3212 23.625 24.9889 23.3484 25.4812 22.8562C25.9734 22.3639 26.25 21.6962 26.25 21V7C26.25 6.30381 25.9734 5.63613 25.4812 5.14384C24.9889 4.65156 24.3212 4.375 23.625 4.375ZM14 15.3913L4.73375 6.125H23.2663L14 15.3913ZM10.1413 14L3.5 20.6413V7.35875L10.1413 14ZM11.375 15.2337L13.3787 17.2462C13.4601 17.3283 13.5569 17.3934 13.6635 17.4378C13.7701 17.4822 13.8845 17.5051 14 17.5051C14.1155 17.5051 14.2299 17.4822 14.3365 17.4378C14.4431 17.3934 14.5399 17.3283 14.6212 17.2462L16.625 15.2337L23.2663 21.875H4.73375L11.375 15.2337ZM17.8587 14L24.5 7.35875V20.6413L17.8587 14Z" fill="#4B284D"/>
</svg>
