<svg width="29" height="28" viewBox="0 0 29 28" fill="none" xmlns="http://www.w3.org/2000/svg">
<path d="M23.9326 4.375H4.68262C3.98642 4.375 3.31875 4.65156 2.82646 5.14384C2.33418 5.63613 2.05762 6.30381 2.05762 7V21C2.05762 21.6962 2.33418 22.3639 2.82646 22.8562C3.31875 23.3484 3.98642 23.625 4.68262 23.625H23.9326C24.6288 23.625 25.2965 23.3484 25.7888 22.8562C26.2811 22.3639 26.5576 21.6962 26.5576 21V7C26.5576 6.30381 26.2811 5.63613 25.7888 5.14384C25.2965 4.65156 24.6288 4.375 23.9326 4.375ZM14.3076 15.3913L5.04137 6.125H23.5739L14.3076 15.3913ZM10.4489 14L3.80762 20.6413V7.35875L10.4489 14ZM11.6826 15.2337L13.6864 17.2462C13.7677 17.3283 13.8645 17.3934 13.9711 17.4378C14.0777 17.4822 14.1921 17.5051 14.3076 17.5051C14.4231 17.5051 14.5375 17.4822 14.6441 17.4378C14.7507 17.3934 14.8475 17.3283 14.9289 17.2462L16.9326 15.2337L23.5739 21.875H5.04137L11.6826 15.2337ZM18.1664 14L24.8076 7.35875V20.6413L18.1664 14Z" fill="white"/>
</svg>
