<svg width="29" height="28" viewBox="0 0 29 28" fill="none" xmlns="http://www.w3.org/2000/svg">
<path d="M14.8088 14C16.0202 14 17.2045 13.6408 18.2117 12.9678C19.219 12.2947 20.004 11.3381 20.4676 10.2189C20.9312 9.09974 21.0525 7.86821 20.8162 6.68007C20.5798 5.49194 19.9965 4.40057 19.1399 3.54397C18.2833 2.68738 17.1919 2.10403 16.0038 1.86769C14.8156 1.63136 13.5841 1.75265 12.4649 2.21624C11.3457 2.67983 10.3891 3.46488 9.71609 4.47213C9.04306 5.47939 8.68384 6.66359 8.68384 7.875C8.68384 9.49945 9.32915 11.0574 10.4778 12.206C11.6265 13.3547 13.1844 14 14.8088 14ZM14.8088 3.5C15.6741 3.5 16.52 3.75659 17.2395 4.23732C17.9589 4.71805 18.5197 5.40134 18.8508 6.20076C19.1819 7.00019 19.2686 7.87986 19.0998 8.72852C18.931 9.57719 18.5143 10.3567 17.9024 10.9686C17.2906 11.5804 16.511 11.9971 15.6624 12.1659C14.8137 12.3347 13.934 12.2481 13.1346 11.917C12.3352 11.5858 11.6519 11.0251 11.1712 10.3056C10.6904 9.58616 10.4338 8.7403 10.4338 7.875C10.4338 6.71468 10.8948 5.60188 11.7152 4.78141C12.5357 3.96094 13.6485 3.5 14.8088 3.5Z" fill="#4B284D"/>
<path d="M18.3088 15.75H11.3088C9.22026 15.75 7.21722 16.5797 5.74037 18.0565C4.26352 19.5334 3.43384 21.5364 3.43384 23.625C3.43384 24.3212 3.7104 24.9889 4.20268 25.4812C4.69497 25.9735 5.36264 26.25 6.05884 26.25H23.5588C24.255 26.25 24.9227 25.9735 25.415 25.4812C25.9073 24.9889 26.1838 24.3212 26.1838 23.625C26.1838 21.5364 25.3542 19.5334 23.8773 18.0565C22.4005 16.5797 20.3974 15.75 18.3088 15.75ZM23.5588 24.5H6.05884C5.82677 24.5 5.60421 24.4078 5.44012 24.2437C5.27603 24.0796 5.18384 23.8571 5.18384 23.625C5.18384 22.0006 5.82915 20.4426 6.97781 19.294C8.12647 18.1453 9.68439 17.5 11.3088 17.5H18.3088C19.9333 17.5 21.4912 18.1453 22.6399 19.294C23.7885 20.4426 24.4338 22.0006 24.4338 23.625C24.4338 23.8571 24.3417 24.0796 24.1776 24.2437C24.0135 24.4078 23.7909 24.5 23.5588 24.5Z" fill="#4B284D"/>
</svg>
