<svg width="29" height="28" viewBox="0 0 29 28" fill="none" xmlns="http://www.w3.org/2000/svg">
<path d="M14.3076 14C15.519 14 16.7032 13.6408 17.7105 12.9678C18.7177 12.2947 19.5028 11.3381 19.9664 10.2189C20.43 9.09974 20.5513 7.86821 20.3149 6.68007C20.0786 5.49194 19.4952 4.40057 18.6386 3.54397C17.7821 2.68738 16.6907 2.10403 15.5025 1.86769C14.3144 1.63136 13.0829 1.75265 11.9637 2.21624C10.8445 2.67983 9.88789 3.46488 9.21487 4.47213C8.54184 5.47939 8.18262 6.66359 8.18262 7.875C8.18262 9.49945 8.82793 11.0574 9.97659 12.206C11.1252 13.3547 12.6832 14 14.3076 14ZM14.3076 3.5C15.1729 3.5 16.0188 3.75659 16.7382 4.23732C17.4577 4.71805 18.0185 5.40134 18.3496 6.20076C18.6807 7.00019 18.7674 7.87986 18.5986 8.72852C18.4297 9.57719 18.0131 10.3567 17.4012 10.9686C16.7894 11.5804 16.0098 11.9971 15.1611 12.1659C14.3125 12.3347 13.4328 12.2481 12.6334 11.917C11.834 11.5858 11.1507 11.0251 10.6699 10.3056C10.1892 9.58616 9.93262 8.7403 9.93262 7.875C9.93262 6.71468 10.3936 5.60188 11.214 4.78141C12.0345 3.96094 13.1473 3.5 14.3076 3.5Z" fill="white"/>
<path d="M17.8076 15.75H10.8076C8.71904 15.75 6.716 16.5797 5.23915 18.0565C3.7623 19.5334 2.93262 21.5364 2.93262 23.625C2.93262 24.3212 3.20918 24.9889 3.70146 25.4812C4.19375 25.9735 4.86142 26.25 5.55762 26.25H23.0576C23.7538 26.25 24.4215 25.9735 24.9138 25.4812C25.4061 24.9889 25.6826 24.3212 25.6826 23.625C25.6826 21.5364 24.8529 19.5334 23.3761 18.0565C21.8992 16.5797 19.8962 15.75 17.8076 15.75ZM23.0576 24.5H5.55762C5.32555 24.5 5.10299 24.4078 4.9389 24.2437C4.7748 24.0796 4.68262 23.8571 4.68262 23.625C4.68262 22.0006 5.32793 20.4426 6.47659 19.294C7.62525 18.1453 9.18317 17.5 10.8076 17.5H17.8076C19.4321 17.5 20.99 18.1453 22.1386 19.294C23.2873 20.4426 23.9326 22.0006 23.9326 23.625C23.9326 23.8571 23.8404 24.0796 23.6763 24.2437C23.5122 24.4078 23.2897 24.5 23.0576 24.5Z" fill="white"/>
</svg>
