<svg width="28" height="28" viewBox="0 0 28 28" fill="none" xmlns="http://www.w3.org/2000/svg">
<path d="M26.1709 13.6413C26.0221 13.3 22.3471 5.25 13.9996 5.25C5.65214 5.25 1.97714 13.3 1.82839 13.6413C1.77768 13.7541 1.75146 13.8763 1.75146 14C1.75146 14.1237 1.77768 14.2459 1.82839 14.3587C1.97714 14.7 5.65214 22.75 13.9996 22.75C22.3471 22.75 26.0221 14.7 26.1709 14.3587C26.2216 14.2459 26.2478 14.1237 26.2478 14C26.2478 13.8763 26.2216 13.7541 26.1709 13.6413ZM13.9996 21C7.72589 21 4.37464 15.47 3.60464 14C4.37464 12.53 7.72589 7 13.9996 7C20.2734 7 23.6246 12.53 24.3946 14C23.6246 15.47 20.2734 21 13.9996 21Z" fill="#4B284D"/>
<path d="M14 8.75C12.9616 8.75 11.9466 9.05791 11.0833 9.63478C10.2199 10.2117 9.54699 11.0316 9.14963 11.9909C8.75227 12.9502 8.64831 14.0058 8.85088 15.0242C9.05345 16.0426 9.55347 16.9781 10.2877 17.7123C11.0219 18.4465 11.9574 18.9465 12.9758 19.1491C13.9942 19.3517 15.0498 19.2477 16.0091 18.8504C16.9684 18.453 17.7883 17.7801 18.3652 16.9167C18.9421 16.0534 19.25 15.0384 19.25 14C19.25 12.6076 18.6969 11.2723 17.7123 10.2877C16.7277 9.30312 15.3924 8.75 14 8.75ZM14 17.5C13.3078 17.5 12.6311 17.2947 12.0555 16.9101C11.4799 16.5256 11.0313 15.9789 10.7664 15.3394C10.5015 14.6998 10.4322 13.9961 10.5673 13.3172C10.7023 12.6382 11.0356 12.0146 11.5251 11.5251C12.0146 11.0356 12.6383 10.7023 13.3172 10.5673C13.9961 10.4322 14.6999 10.5015 15.3394 10.7664C15.9789 11.0313 16.5256 11.4799 16.9101 12.0555C17.2947 12.6311 17.5 13.3078 17.5 14C17.5 14.9283 17.1312 15.8185 16.4749 16.4749C15.8185 17.1312 14.9283 17.5 14 17.5Z" fill="#4B284D"/>
</svg>
