<svg width="29" height="28" viewBox="0 0 29 28" fill="none" xmlns="http://www.w3.org/2000/svg">
<path d="M26.4785 13.6413C26.3298 13.3 22.6548 5.25 14.3073 5.25C5.95976 5.25 2.28476 13.3 2.13601 13.6413C2.0853 13.7541 2.05908 13.8763 2.05908 14C2.05908 14.1237 2.0853 14.2459 2.13601 14.3587C2.28476 14.7 5.95976 22.75 14.3073 22.75C22.6548 22.75 26.3298 14.7 26.4785 14.3587C26.5292 14.2459 26.5554 14.1237 26.5554 14C26.5554 13.8763 26.5292 13.7541 26.4785 13.6413ZM14.3073 21C8.03351 21 4.68226 15.47 3.91226 14C4.68226 12.53 8.03351 7 14.3073 7C20.581 7 23.9323 12.53 24.7023 14C23.9323 15.47 20.581 21 14.3073 21Z" fill="white"/>
<path d="M14.3076 8.75C13.2693 8.75 12.2542 9.05791 11.3909 9.63478C10.5275 10.2117 9.85461 11.0316 9.45725 11.9909C9.05989 12.9502 8.95592 14.0058 9.1585 15.0242C9.36107 16.0426 9.86108 16.9781 10.5953 17.7123C11.3295 18.4465 12.265 18.9465 13.2834 19.1491C14.3018 19.3517 15.3574 19.2477 16.3167 18.8504C17.276 18.453 18.096 17.7801 18.6728 16.9167C19.2497 16.0534 19.5576 15.0384 19.5576 14C19.5576 12.6076 19.0045 11.2723 18.0199 10.2877C17.0354 9.30312 15.7 8.75 14.3076 8.75ZM14.3076 17.5C13.6154 17.5 12.9387 17.2947 12.3631 16.9101C11.7876 16.5256 11.3389 15.9789 11.074 15.3394C10.8091 14.6998 10.7398 13.9961 10.8749 13.3172C11.0099 12.6382 11.3433 12.0146 11.8327 11.5251C12.3222 11.0356 12.9459 10.7023 13.6248 10.5673C14.3037 10.4322 15.0075 10.5015 15.647 10.7664C16.2865 11.0313 16.8332 11.4799 17.2178 12.0555C17.6023 12.6311 17.8076 13.3078 17.8076 14C17.8076 14.9283 17.4389 15.8185 16.7825 16.4749C16.1261 17.1312 15.2359 17.5 14.3076 17.5Z" fill="white"/>
</svg>
