<svg width="42" height="43" viewBox="0 0 42 43" fill="none" xmlns="http://www.w3.org/2000/svg">
<g clip-path="url(#clip0_207_4319)">
<path d="M10.5 0.808167C9.05625 0.808167 7.875 1.98942 7.875 3.43317V40.1832C7.875 41.6269 9.05625 42.8082 10.5 42.8082H36.75C38.1938 42.8082 39.375 41.6269 39.375 40.1832V11.3082L28.875 0.808167H10.5Z" fill="#E2E5E7"/>
<path d="M31.5 11.3082H39.375L28.875 0.808167V8.68317C28.875 10.1269 30.0562 11.3082 31.5 11.3082Z" fill="#B0B7BD"/>
<path d="M39.375 19.1832L31.5 11.3082H39.375V19.1832Z" fill="#CAD1D8"/>
<path d="M34.125 34.9332C34.125 35.655 33.5344 36.2457 32.8125 36.2457H3.9375C3.21562 36.2457 2.625 35.655 2.625 34.9332V21.8082C2.625 21.0863 3.21562 20.4957 3.9375 20.4957H32.8125C33.5344 20.4957 34.125 21.0863 34.125 21.8082V34.9332Z" fill="#F15642"/>
<path d="M8.34619 25.6761C8.34619 25.3296 8.61919 24.9516 9.05888 24.9516H11.4831C12.8481 24.9516 14.0766 25.8651 14.0766 27.616C14.0766 29.275 12.8481 30.199 11.4831 30.199H9.73088V31.585C9.73088 32.047 9.43688 32.3082 9.05888 32.3082C8.71238 32.3082 8.34619 32.047 8.34619 31.585V25.6761ZM9.73088 26.2733V28.8878H11.4831C12.1866 28.8878 12.7431 28.267 12.7431 27.616C12.7431 26.8823 12.1866 26.2733 11.4831 26.2733H9.73088Z" fill="white"/>
<path d="M16.1322 32.3082C15.7857 32.3082 15.4077 32.1192 15.4077 31.6585V25.6971C15.4077 25.3204 15.7857 25.0461 16.1322 25.0461H18.5354C23.3313 25.0461 23.2263 32.3082 18.6299 32.3082H16.1322ZM16.7937 26.3271V31.0285H18.5354C21.3691 31.0285 21.4951 26.3271 18.5354 26.3271H16.7937Z" fill="white"/>
<path d="M24.9271 26.4111V28.0793H27.6033C27.9813 28.0793 28.3593 28.4573 28.3593 28.8235C28.3593 29.17 27.9813 29.4535 27.6033 29.4535H24.9271V31.6571C24.9271 32.0246 24.6659 32.3068 24.2984 32.3068C23.8364 32.3068 23.5542 32.0246 23.5542 31.6571V25.6958C23.5542 25.3191 23.8377 25.0448 24.2984 25.0448H27.9826C28.4446 25.0448 28.7176 25.3191 28.7176 25.6958C28.7176 26.0318 28.4446 26.4098 27.9826 26.4098H24.9271V26.4111Z" fill="white"/>
<path d="M32.8125 36.2457H7.875V37.5582H32.8125C33.5344 37.5582 34.125 36.9676 34.125 36.2457V34.9332C34.125 35.6551 33.5344 36.2457 32.8125 36.2457Z" fill="#CAD1D8"/>
</g>
<defs>
<clipPath id="clip0_207_4319">
<rect width="42" height="42" fill="white" transform="translate(0 0.808167)"/>
</clipPath>
</defs>
</svg>
