<svg width="17" height="17" viewBox="0 0 17 17" fill="none" xmlns="http://www.w3.org/2000/svg">
<path d="M13.8778 3.11281C13.1406 2.37801 12.1422 1.96541 11.1013 1.96541C10.0605 1.96541 9.06205 2.37801 8.32484 3.11281L1.86334 9.57381C1.60134 9.83159 1.39297 10.1387 1.25025 10.4774C1.10752 10.8161 1.03326 11.1797 1.03176 11.5473C1.03026 11.9148 1.10154 12.279 1.24149 12.6189C1.38144 12.9588 1.58729 13.2676 1.84717 13.5275C2.10706 13.7874 2.41583 13.9933 2.75567 14.1333C3.09552 14.2733 3.45972 14.3446 3.82727 14.3431C4.19482 14.3417 4.55845 14.2675 4.89717 14.1248C5.2359 13.9821 5.54303 13.7738 5.80084 13.5118L11.8588 7.45431C12.1627 7.14414 12.3328 6.72725 12.3328 6.29306C12.3328 5.85888 12.1627 5.44199 11.8588 5.13181C11.5459 4.83333 11.1301 4.66681 10.6976 4.66681C10.2651 4.66681 9.84928 4.83333 9.53634 5.13181L3.88234 10.7858C3.79606 10.8808 3.74962 11.0054 3.75265 11.1337C3.75567 11.262 3.80792 11.3843 3.89858 11.4751C3.98924 11.566 4.11136 11.6185 4.23967 11.6218C4.36798 11.6251 4.49264 11.5789 4.58784 11.4928L10.2438 5.83931C10.366 5.72221 10.5286 5.65683 10.6978 5.65683C10.867 5.65683 11.0297 5.72221 11.1518 5.83931C11.2703 5.96073 11.3367 6.12366 11.3367 6.29331C11.3367 6.46297 11.2703 6.6259 11.1518 6.74731L5.09384 12.8048C4.75914 13.1395 4.30521 13.3274 3.83192 13.3274C3.35862 13.3273 2.90473 13.1393 2.57009 12.8046C2.23546 12.4699 2.04749 12.0159 2.04753 11.5426C2.04758 11.0693 2.23564 10.6155 2.57034 10.2808L9.03184 3.81981C9.5833 3.28354 10.3237 2.9859 11.0929 2.99127C11.8621 2.99664 12.5982 3.30458 13.1422 3.8485C13.6861 4.39241 13.994 5.12858 13.9994 5.89777C14.0048 6.66697 13.7071 7.40736 13.1708 7.95881L7.11334 14.0163C7.02226 14.1106 6.97187 14.2369 6.97301 14.368C6.97415 14.4991 7.02673 14.6245 7.11943 14.7172C7.21214 14.8099 7.33754 14.8625 7.46864 14.8637C7.59974 14.8648 7.72604 14.8144 7.82034 14.7233L13.8778 8.66631C14.6132 7.92928 15.0261 6.93068 15.0261 5.88956C15.0261 4.84845 14.6132 3.84985 13.8778 3.11281Z" fill="#373737"/>
</svg>
