<svg width="28" height="28" viewBox="0 0 28 28" fill="none" xmlns="http://www.w3.org/2000/svg">
<circle cx="14" cy="14" r="13.5" stroke="white"/>
<path d="M19.8956 21H18.477C18.477 18.6069 16.4697 16.6606 14.0007 16.6606C11.5316 16.6606 9.52503 18.6076 9.52503 21H8.10645C8.10645 17.8238 10.7514 15.242 14.0014 15.242C17.2506 15.242 19.8956 17.8238 19.8956 21Z" fill="white"/>
<path d="M14.0016 14.7809C11.8574 14.7809 10.1118 13.0347 10.1118 10.8905C10.1111 8.74557 11.8567 7 14.0016 7C16.1472 7 17.8927 8.74486 17.8927 10.8905C17.8927 13.0361 16.1472 14.7809 14.0016 14.7809ZM14.0016 8.41858C12.6383 8.41858 11.5297 9.52721 11.5297 10.8905C11.5297 12.2537 12.6383 13.3623 14.0016 13.3623C15.3655 13.3623 16.4742 12.2537 16.4742 10.8905C16.4742 9.52721 15.3641 8.41858 14.0016 8.41858Z" fill="white"/>
</svg>
