<svg width="24" height="25" viewBox="0 0 24 25" fill="none" xmlns="http://www.w3.org/2000/svg">
<path d="M2.8125 18.9727H6.5625C8.11331 18.9727 9.375 17.7166 9.375 16.1727C9.375 14.6288 8.11331 13.3727 6.5625 13.3727H5.625V10.5727C5.625 10.0573 5.20528 9.6394 4.6875 9.6394C4.16972 9.6394 3.75 10.0573 3.75 10.5727V13.3727H2.8125C1.26169 13.3727 0 14.6288 0 16.1727C0 17.7166 1.26169 18.9727 2.8125 18.9727ZM2.8125 15.2394H6.5625C7.07944 15.2394 7.5 15.658 7.5 16.1727C7.5 16.6873 7.07944 17.106 6.5625 17.106H2.8125C2.29556 17.106 1.875 16.6873 1.875 16.1727C1.875 15.658 2.29556 15.2394 2.8125 15.2394Z" fill="#F179AF"/>
<path d="M21.1875 18.9727C22.7383 18.9727 24 17.7166 24 16.1727C24 14.6288 22.7383 13.3727 21.1875 13.3727H20.25V10.5727C20.25 10.0573 19.8303 9.6394 19.3125 9.6394C18.7947 9.6394 18.375 10.0573 18.375 10.5727V13.3727H17.4375C15.8867 13.3727 14.625 14.6288 14.625 16.1727C14.625 17.7166 15.8867 18.9727 17.4375 18.9727H21.1875ZM16.5 16.1727C16.5 15.658 16.9206 15.2394 17.4375 15.2394H21.1875C21.7044 15.2394 22.125 15.658 22.125 16.1727C22.125 16.6873 21.7044 17.106 21.1875 17.106H17.4375C16.9206 17.106 16.5 16.6873 16.5 16.1727Z" fill="#F179AF"/>
<path d="M8.25 22.7059C7.73222 22.7059 7.3125 23.1238 7.3125 23.6393C7.3125 24.1547 7.73222 24.5726 8.25 24.5726H15.75C16.2678 24.5726 16.6875 24.1547 16.6875 23.6393C16.6875 23.1238 16.2678 22.7059 15.75 22.7059H12.9375V9.47885C13.7352 9.19717 14.3683 8.56694 14.6512 7.77273H21.1875C21.7053 7.77273 22.125 7.35488 22.125 6.8394C22.125 6.32393 21.7053 5.90608 21.1875 5.90608H14.6512C14.2642 4.81978 13.2222 4.03943 12 4.03943C10.7778 4.03943 9.7358 4.81978 9.34875 5.90608H2.8125C2.29472 5.90608 1.875 6.32393 1.875 6.8394C1.875 7.35488 2.29472 7.77273 2.8125 7.77273H9.34875C9.63169 8.5669 10.2647 9.19717 11.0625 9.47885V22.7059H8.25ZM12 5.90608C12.5169 5.90608 12.9375 6.32477 12.9375 6.8394C12.9375 7.35404 12.5169 7.77273 12 7.77273C11.4831 7.77273 11.0625 7.35404 11.0625 6.8394C11.0625 6.32477 11.4831 5.90608 12 5.90608Z" fill="#F179AF"/>
<path d="M10.125 2.54609H13.875C14.3928 2.54609 14.8125 2.12824 14.8125 1.61277C14.8125 1.09729 14.3928 0.679443 13.875 0.679443H10.125C9.60722 0.679443 9.1875 1.09729 9.1875 1.61277C9.1875 2.12824 9.60722 2.54609 10.125 2.54609Z" fill="#F179AF"/>
</svg>
