<svg width="485" height="295" viewBox="0 0 485 295" fill="none" xmlns="http://www.w3.org/2000/svg">
<rect width="485" height="295" fill="white"/>
<g clip-path="url(#clip0_3_1404)">
<path d="M215.193 139.617C216.822 139.444 218.459 139.356 220.097 139.353H220.551L223.943 144.196H223.88L224.095 144.411L224.206 144.563C222.558 144.515 220.711 144.483 218.8 144.483C215.185 144.483 212.079 144.603 209.531 144.835L215.193 139.617Z" fill="#F8D88B"/>
<path d="M234.032 127.215L250.14 115.804L249.949 144.939L234.796 152.354L234.032 127.215Z" fill="#FFF9B4"/>
<path d="M249.742 116.579L249.551 144.691L235.218 151.723L234.47 127.423L249.782 116.579H249.742ZM250.578 115.029L233.658 127.015L234.454 152.986L250.379 145.195L250.578 115.029Z" fill="#4B284D"/>
<path d="M224.357 117.754H215.392V113.95C215.392 113.95 218.728 113.399 219.859 113.399C220.989 113.399 224.357 113.95 224.357 113.95V117.754Z" fill="#FBB37B"/>
<path d="M224.66 122.78H215.105V120.095C216.686 119.801 218.28 119.588 219.882 119.456C221.485 119.587 223.079 119.801 224.66 120.095V122.78Z" fill="#FBB37B"/>
<path d="M221.069 135.797V138.29C220.671 138.29 220.273 138.29 219.866 138.29C218.38 138.285 216.895 138.387 215.423 138.594V125.633C216.859 125.193 218.359 125.001 219.858 125.065C221.364 125.002 222.869 125.196 224.309 125.641V135.813H221.865V135.757L221.069 135.797Z" fill="#FBB37B"/>
<path d="M271.79 136.956L274.25 137.14V136.085L274.394 123.124C274.394 122.86 274.927 122.652 275.58 122.652C276.233 122.652 276.767 122.86 276.767 123.124L276.91 136.325V137.379L277.993 137.459V136.373L278.16 117.945C278.16 117.61 278.686 117.338 279.331 117.338C279.975 117.338 280.509 117.61 280.509 117.945L280.652 136.58L280.493 138.178L283.989 138.434L287.516 145.89L271.79 144.659V136.956Z" fill="#E95235"/>
<path d="M236.875 116.108L249.909 106.439V113.431L234.032 125.225L234.024 125.153L236.875 116.108Z" fill="#FBB37B"/>
<path d="M251.597 104.545H253.046C253.154 104.55 253.262 104.533 253.363 104.496C253.465 104.458 253.557 104.4 253.635 104.325C253.714 104.25 253.776 104.161 253.818 104.061C253.861 103.961 253.883 103.854 253.882 103.746V101.652H255.722C255.849 101.652 255.975 101.622 256.088 101.564C256.582 101.342 257.028 101.025 257.399 100.63C257.771 100.235 258.061 99.7703 258.254 99.2627C258.417 99.2057 258.558 99.0969 258.654 98.9527C258.75 98.8085 258.797 98.6368 258.787 98.4636V97.6645C259.397 97.2076 260.078 96.854 260.802 96.6177C261.514 96.8544 262.184 97.2052 262.784 97.6565V98.4556C262.774 98.6279 262.82 98.7988 262.915 98.9429C263.01 99.0869 263.148 99.1963 263.31 99.2547C263.684 100.273 264.442 101.102 265.42 101.564C265.534 101.62 265.659 101.65 265.786 101.652H267.626V103.706C267.626 103.814 267.647 103.921 267.69 104.021C267.732 104.121 267.795 104.211 267.873 104.285C267.951 104.36 268.044 104.418 268.145 104.456C268.246 104.493 268.354 104.51 268.462 104.505H269.911V155.151L251.597 155.223V104.545Z" fill="#F179AF"/>
<path d="M272.969 150.149L276.281 150.389V150.317C276.285 150.261 276.285 150.205 276.281 150.149C276.219 149.753 276.015 149.394 275.707 149.139C275.398 148.884 275.008 148.752 274.609 148.766C273.685 148.766 272.937 149.294 272.937 149.941C272.933 149.994 272.933 150.048 272.937 150.101L272.969 150.149Z" fill="#4B284D"/>
<path d="M278.295 150.532L281.6 150.772V150.644C281.607 150.591 281.607 150.538 281.6 150.485C281.536 150.093 281.333 149.738 281.029 149.485C280.724 149.232 280.339 149.099 279.944 149.11C279.02 149.11 278.271 149.638 278.271 150.285C278.264 150.34 278.264 150.397 278.271 150.453L278.295 150.532Z" fill="#4B284D"/>
<path d="M283.614 150.924L286.927 151.164V150.98C286.931 150.924 286.931 150.868 286.927 150.812C286.865 150.416 286.661 150.056 286.353 149.799C286.045 149.543 285.654 149.409 285.254 149.422C284.331 149.422 283.582 149.949 283.582 150.604C283.578 150.658 283.578 150.711 283.582 150.764L283.614 150.924Z" fill="#4B284D"/>
<path d="M174.44 153.721H199.602C201.107 153.673 205.518 154.025 206.028 156.118C206.219 156.997 207.047 157.045 208.305 157.117C209.101 157.165 210.351 157.205 211.944 157.245C214.882 157.309 219.19 157.357 224.747 157.381C228.145 157.381 232.017 157.381 236.365 157.381C243.993 157.381 253.086 157.381 263.477 157.309C291.306 157.181 319.461 156.933 319.74 156.925C319.887 156.938 320.036 156.92 320.176 156.872C320.316 156.824 320.444 156.748 320.553 156.648C320.662 156.547 320.749 156.425 320.809 156.289C320.868 156.154 320.899 156.007 320.899 155.858C320.899 155.71 320.868 155.563 320.809 155.427C320.749 155.292 320.662 155.17 320.553 155.069C320.444 154.969 320.316 154.893 320.176 154.845C320.036 154.797 319.887 154.779 319.74 154.792L302.804 154.936L302.422 113.327C302.426 113.298 302.426 113.268 302.422 113.239C302.422 112.616 301.251 112.104 299.802 112.104C298.353 112.104 297.19 112.616 297.19 113.239V113.311L296.816 154.975H296.195L295.813 117.011C295.817 116.981 295.817 116.952 295.813 116.923C295.813 116.299 294.642 115.788 293.201 115.788C291.76 115.788 290.581 116.299 290.581 116.923C290.581 116.923 290.581 116.971 290.581 116.995L290.199 155.015H289.403L289.26 147.08L270.874 145.578L289.188 146.977L284.896 136.884L281.926 136.66L279.856 92.5743C279.86 92.5345 279.86 92.4943 279.856 92.4544C279.856 91.5754 278.263 90.8563 276.201 90.8563C274.139 90.8563 272.586 91.5754 272.586 92.4544C272.582 92.4863 272.582 92.5185 272.586 92.5503L270.89 128.885V103.602H268.605V100.701H265.818C265.366 100.498 264.97 100.188 264.662 99.7987C264.355 99.4093 264.145 98.9514 264.05 98.4636V98.3757H263.716V97.5766H264.218L263.971 97.3848C263.875 97.3129 261.717 95.7068 260.786 95.7068C259.846 95.7068 257.664 97.3049 257.601 97.3848L257.346 97.5766H257.856V98.3757H257.457V98.4636C257.365 98.9522 257.156 99.4109 256.848 99.8006C256.54 100.19 256.143 100.499 255.69 100.701H252.935V103.602H250.649V104.529L249.718 105.224V98.3837C249.722 98.3519 249.722 98.3197 249.718 98.2878C249.718 98.0481 249.479 97.8244 249.073 97.6326L248.866 81.1393C248.87 81.1235 248.87 81.1071 248.866 81.0913C248.866 80.7797 248.301 80.516 247.6 80.516C247.41 80.5162 247.22 80.5376 247.034 80.5799L247.281 97.1691L246.756 97.1052L246.533 79.8528V79.8128C246.533 79.4692 245.904 79.1975 245.123 79.1975C244.343 79.1975 243.706 79.4692 243.706 79.8128L243.483 97.0652L242.966 97.1691L243.181 80.6439C242.961 80.5807 242.733 80.5484 242.504 80.548C242.325 80.5495 242.146 80.5682 241.97 80.6039C241.54 80.6998 241.246 80.8996 241.246 81.1233L241.047 97.6246C240.633 97.8164 240.402 98.0401 240.402 98.2798C240.398 98.3036 240.398 98.3279 240.402 98.3518V112.168L237.026 114.685L236.811 115.356H235.043V118.257H233.793L232.2 70.863C232.2 70.863 232.2 70.823 232.2 70.807C232.2 70.3595 231.404 70.0079 230.337 70.0079C229.27 70.0079 228.482 70.3675 228.482 70.807C228.478 70.8228 228.478 70.8392 228.482 70.855L225.854 116.275C225.512 116.219 225.138 116.18 224.747 116.132V114.254C224.747 113.926 224.11 113.63 223.099 113.455L222.303 88.1473C222.307 88.1262 222.307 88.1045 222.303 88.0834C222.303 87.6439 221.507 87.2843 220.448 87.2843C219.389 87.2843 218.592 87.6519 218.592 88.0834V88.1314L217.151 113.327C215.853 113.527 215.001 113.854 215.001 114.238V116.156C212.613 116.443 211.076 116.915 211.076 117.458V119.056C211.036 119.104 211.011 119.162 211.004 119.224C211.004 119.727 212.644 120.175 215.129 120.423C215.527 119.975 217.517 119.624 219.906 119.624C222.295 119.624 224.357 119.975 224.684 120.423L225.607 120.391L225.536 121.629L224.811 121.541V120.551H224.62V121.35H222.685C221.841 121.302 220.949 121.278 220.026 121.278C219.102 121.278 218.21 121.278 217.374 121.35H215.081V120.551H214.898V121.549H215.176C212.7 121.837 211.06 122.349 211.06 122.916V124.45C211.018 124.5 210.993 124.561 210.988 124.626C210.988 125.089 212.414 125.505 214.603 125.769V139.337L207.986 145.466L207.747 145.69L207.596 145.77H207.469L207.532 154.344C205.598 151.547 200.366 151.587 199.57 151.611H198.933V148.183L200.581 149.677C200.959 150.02 201.457 150.197 201.966 150.171C202.474 150.145 202.951 149.917 203.292 149.538C203.634 149.158 203.81 148.658 203.784 148.148C203.758 147.638 203.531 147.159 203.153 146.817L201.194 145.043V142.717C201.606 142.856 202.051 142.851 202.459 142.702C202.867 142.554 203.213 142.271 203.44 141.901C203.667 141.53 203.762 141.093 203.71 140.661C203.658 140.228 203.462 139.827 203.153 139.521L201.194 137.747V136.325C201.606 136.463 202.051 136.458 202.459 136.31C202.867 136.161 203.213 135.879 203.44 135.508C203.667 135.137 203.762 134.7 203.71 134.268C203.658 133.836 203.462 133.434 203.153 133.128L201.194 131.354V129.932C201.606 130.07 202.051 130.065 202.459 129.917C202.867 129.768 203.213 129.486 203.44 129.115C203.667 128.744 203.762 128.307 203.71 127.875C203.658 127.443 203.462 127.041 203.153 126.736L198.065 122.125C197.684 121.811 197.197 121.657 196.706 121.693C196.214 121.73 195.756 121.955 195.425 122.322C195.094 122.688 194.917 123.169 194.93 123.663C194.942 124.158 195.144 124.628 195.493 124.978L197.452 126.736V128.094C197.041 127.955 196.595 127.961 196.187 128.109C195.779 128.257 195.434 128.54 195.206 128.911C194.979 129.282 194.884 129.719 194.936 130.151C194.988 130.583 195.184 130.985 195.493 131.29L197.452 133.128V134.527C197.041 134.388 196.595 134.393 196.187 134.542C195.779 134.69 195.434 134.973 195.206 135.343C194.979 135.714 194.884 136.151 194.936 136.583C194.988 137.016 195.184 137.417 195.493 137.723L197.452 139.521V141.846C197.041 141.708 196.595 141.713 196.187 141.861C195.779 142.01 195.434 142.292 195.206 142.663C194.979 143.034 194.884 143.471 194.936 143.903C194.988 144.335 195.184 144.737 195.493 145.043L197.882 147.184V151.563H188.773V148.774L189.776 149.677C190.154 150.02 190.652 150.197 191.161 150.171C191.669 150.145 192.146 149.917 192.487 149.538C192.828 149.158 193.005 148.658 192.979 148.148C192.953 147.638 192.726 147.159 192.348 146.817L190.389 145.043V142.717C190.8 142.856 191.246 142.851 191.654 142.702C192.062 142.554 192.407 142.271 192.635 141.901C192.862 141.53 192.957 141.093 192.905 140.661C192.853 140.228 192.657 139.827 192.348 139.521L190.389 137.747V136.325C190.8 136.463 191.246 136.458 191.654 136.31C192.062 136.161 192.407 135.879 192.635 135.508C192.862 135.137 192.957 134.7 192.905 134.268C192.853 133.836 192.657 133.434 192.348 133.128L190.389 131.354V129.932C190.8 130.07 191.246 130.065 191.654 129.917C192.062 129.768 192.407 129.486 192.635 129.115C192.862 128.744 192.957 128.307 192.905 127.875C192.853 127.443 192.657 127.041 192.348 126.736L187.26 122.125C186.879 121.811 186.392 121.657 185.901 121.693C185.409 121.73 184.951 121.955 184.62 122.322C184.289 122.688 184.112 123.169 184.125 123.663C184.137 124.158 184.339 124.628 184.688 124.978L186.639 126.736V128.094C186.228 127.955 185.782 127.961 185.374 128.109C184.966 128.257 184.621 128.54 184.393 128.911C184.166 129.282 184.071 129.719 184.123 130.151C184.175 130.583 184.371 130.985 184.68 131.29L186.639 133.128V134.527C186.228 134.388 185.782 134.393 185.374 134.542C184.966 134.69 184.621 134.973 184.393 135.343C184.166 135.714 184.071 136.151 184.123 136.583C184.175 137.016 184.371 137.417 184.68 137.723L186.639 139.521V141.846C186.228 141.708 185.782 141.713 185.374 141.861C184.966 142.01 184.621 142.292 184.393 142.663C184.166 143.034 184.071 143.471 184.123 143.903C184.175 144.335 184.371 144.737 184.68 145.043L187.69 147.768V151.563H174.44C174.293 151.551 174.145 151.569 174.005 151.616C173.865 151.664 173.736 151.741 173.627 151.841C173.518 151.941 173.431 152.063 173.372 152.199C173.312 152.335 173.281 152.482 173.281 152.63C173.281 152.779 173.312 152.925 173.372 153.061C173.431 153.197 173.518 153.319 173.627 153.419C173.736 153.52 173.865 153.596 174.005 153.644C174.145 153.692 174.293 153.71 174.44 153.697V153.721ZM288.352 155.087H286.919V151.611L283.606 151.38V155.111H281.592V151.228L278.287 150.996V155.135H276.273V150.868L272.96 150.636V155.175H271.838L271.79 147.512L288.225 148.886L288.352 155.087ZM288.225 148.111V148.463L271.79 147.048V146.769L288.225 148.111ZM271.79 136.956L274.25 137.14V136.085L274.394 123.124C274.394 122.86 274.927 122.652 275.58 122.652C276.233 122.652 276.766 122.86 276.766 123.124L276.91 136.325V137.379L277.993 137.459V136.373L278.16 117.946C278.16 117.61 278.685 117.338 279.33 117.338C279.975 117.338 280.509 117.61 280.509 117.946L280.652 136.58L280.493 138.179L283.988 138.434L287.516 145.89L271.79 144.659V136.956ZM251.597 104.545H253.046C253.154 104.55 253.262 104.533 253.363 104.496C253.464 104.458 253.557 104.4 253.635 104.325C253.713 104.251 253.776 104.161 253.818 104.061C253.861 103.961 253.882 103.854 253.882 103.746V101.652H255.722C255.849 101.653 255.975 101.622 256.088 101.564C256.582 101.342 257.027 101.025 257.399 100.63C257.771 100.235 258.061 99.7704 258.254 99.2627C258.417 99.2057 258.557 99.0969 258.654 98.9527C258.75 98.8086 258.797 98.6369 258.787 98.4636V97.6645C259.397 97.2076 260.078 96.854 260.802 96.6177C261.514 96.8545 262.184 97.2053 262.784 97.6565V98.4556C262.774 98.6279 262.82 98.7989 262.915 98.9429C263.009 99.087 263.148 99.1963 263.31 99.2547C263.684 100.273 264.442 101.102 265.42 101.564C265.534 101.62 265.659 101.65 265.786 101.652H267.626V103.706C267.625 103.814 267.647 103.921 267.69 104.021C267.732 104.121 267.794 104.211 267.873 104.285C267.951 104.36 268.043 104.418 268.145 104.456C268.246 104.494 268.354 104.51 268.462 104.505H269.911V155.151L251.597 155.223V104.545ZM234.764 146.553V145.61V146.553ZM234.764 144.499H234.693L234.31 133.424L234.764 133.168V144.499ZM234.764 132.105L234.279 132.385L234.151 128.709L234.764 128.43V132.105ZM237.209 148.95L236.309 149.43V144.723L237.209 144.22V148.95ZM237.209 143.101L236.309 143.612V132.329L237.209 131.81V143.101ZM237.209 130.683L236.309 131.21V127.215L237.209 126.736V130.683ZM239.661 147.648L238.578 148.223V143.429L239.661 142.821V147.648ZM239.661 141.711L238.578 142.326V131.019L239.661 130.403V141.711ZM239.661 129.269L238.578 129.932V125.713L239.661 125.057V129.269ZM242.114 146.345L240.848 147.016V142.222L242.114 141.511V146.345ZM242.114 140.32L240.848 141.039V129.724L242.114 128.997V140.32ZM242.114 127.846L240.848 128.581V124.186L242.114 123.387V127.846ZM244.566 145.035L243.109 145.834V140.911L244.566 140.112V145.035ZM244.566 138.922L243.109 139.721V128.43L244.566 127.631V138.922ZM244.566 126.424L243.125 127.271V122.668L244.582 121.685L244.566 126.424ZM247.011 143.732L245.418 144.603V139.633L247.011 138.714V143.732ZM247.011 137.531L245.418 138.466V127.135L247.011 126.192V137.531ZM247.011 125.009L245.418 125.952V121.142L247.011 119.999V125.009ZM249.495 142.406L249.36 142.502L247.671 143.397V138.362L249.495 137.339V142.406ZM249.495 136.141L247.671 137.172V125.833L249.495 124.794V136.141ZM249.495 123.587L247.671 124.642V119.616L249.495 118.313V123.587ZM236.874 116.108L249.909 106.439V113.431L234.032 125.225V125.137L236.874 116.108ZM224.134 145.243C220.575 145.115 216.052 145.115 211.984 145.33C214.197 145.203 216.538 145.155 218.791 145.155C220.695 145.155 222.526 145.155 224.166 145.235L224.134 145.243ZM231.874 144.795L230.759 144.747H230.52H229.859L229.915 136.413H230.066L231.014 136.628L231.874 136.836V144.795ZM229.732 126.855C229.732 126.648 230.114 126.48 230.584 126.48C231.054 126.48 231.444 126.648 231.444 126.855L231.531 136.085L232.543 136.325L229.963 135.701H229.652L229.74 126.847L229.732 126.855ZM226.308 127.415C226.308 127.207 226.698 127.039 227.168 127.039C227.638 127.039 228.02 127.207 228.02 127.415L228.1 135.725H226.228L226.316 127.375L226.308 127.415ZM215.439 114.382C215.439 114.382 215.439 114.326 215.439 114.294C215.702 114.046 217.215 113.59 219.843 113.59C222.47 113.59 223.983 114.046 224.246 114.294C224.241 114.323 224.241 114.352 224.246 114.382V115.98H222.422C221.626 115.98 220.83 115.924 220.034 115.924C219.237 115.924 218.441 115.924 217.645 115.98H215.439V114.382ZM224.811 120.055C223.76 119.256 220.288 119.256 219.874 119.256C218.059 119.256 215.79 119.464 214.962 120.055C213.764 119.998 212.585 119.728 211.482 119.256C212.288 118.885 213.153 118.663 214.038 118.601C216.018 118.348 218.013 118.228 220.01 118.241C221.918 118.232 223.824 118.342 225.719 118.569L225.607 119.959L224.811 120.055ZM228.856 136.836L228.991 143.98L225.169 144.132L221.857 139.441V136.908L228.856 136.836ZM221.069 135.797V138.29C220.671 138.29 220.273 138.29 219.866 138.29C218.38 138.285 216.895 138.387 215.423 138.594V125.633C216.859 125.193 218.359 125.001 219.858 125.065C221.364 125.002 222.869 125.196 224.309 125.641V135.813H221.865V135.757L221.069 135.797ZM225.161 127.95V125.825H225.281L225.161 127.95ZM211.466 124.658C212.271 124.287 213.138 124.068 214.022 124.011C216.002 123.751 217.997 123.628 219.994 123.643C221.797 123.636 223.6 123.732 225.392 123.931L225.305 125.385L224.795 125.441C223.744 124.642 220.272 124.642 219.858 124.642C218.043 124.642 215.774 124.85 214.946 125.441C213.749 125.389 212.57 125.124 211.466 124.658ZM215.192 139.617C216.822 139.444 218.459 139.356 220.097 139.353H220.551L223.943 144.196H223.88L224.095 144.411L224.206 144.563C222.558 144.515 220.71 144.483 218.799 144.483C215.184 144.483 212.079 144.603 209.531 144.835L215.192 139.617Z" fill="#4B284D"/>
<path d="M191.169 129.988C190.712 129.985 190.272 129.818 189.927 129.516L184.561 124.722C184.264 124.374 184.103 123.93 184.108 123.472C184.113 123.014 184.285 122.574 184.59 122.233C184.895 121.892 185.313 121.675 185.767 121.621C186.22 121.568 186.677 121.681 187.053 121.941L192.42 126.736C192.79 127.068 193.015 127.535 193.045 128.033C193.075 128.531 192.907 129.021 192.579 129.396C192.399 129.59 192.181 129.743 191.938 129.844C191.695 129.946 191.433 129.995 191.169 129.988Z" fill="#F179AF"/>
<path d="M191.122 142.981C190.665 142.98 190.223 142.813 189.88 142.51L184.505 137.715C184.15 137.379 183.939 136.917 183.917 136.427C183.895 135.937 184.064 135.458 184.388 135.091C184.712 134.725 185.166 134.499 185.653 134.462C186.14 134.425 186.622 134.58 186.998 134.894L192.364 139.689C192.651 139.942 192.853 140.277 192.945 140.649C193.037 141.02 193.014 141.411 192.879 141.77C192.744 142.128 192.504 142.436 192.19 142.654C191.876 142.872 191.504 142.989 191.122 142.989V142.981Z" fill="#F179AF"/>
<path d="M202.094 136.564C201.635 136.564 201.193 136.393 200.852 136.085L195.477 131.29C195.122 130.954 194.911 130.492 194.889 130.002C194.867 129.513 195.036 129.034 195.36 128.667C195.684 128.3 196.138 128.074 196.625 128.037C197.112 128.001 197.595 128.156 197.97 128.47L203.336 133.264C203.522 133.428 203.673 133.627 203.782 133.849C203.89 134.072 203.953 134.314 203.968 134.561C203.983 134.809 203.949 135.057 203.868 135.291C203.787 135.525 203.66 135.74 203.496 135.925C203.322 136.126 203.106 136.288 202.865 136.398C202.623 136.508 202.36 136.565 202.094 136.564Z" fill="#F179AF"/>
<path d="M202.094 150.333C201.636 150.336 201.194 150.167 200.852 149.861L195.477 145.067C195.122 144.73 194.911 144.268 194.889 143.779C194.867 143.289 195.036 142.81 195.36 142.443C195.684 142.076 196.138 141.851 196.625 141.814C197.112 141.777 197.595 141.932 197.97 142.246L203.336 147.04C203.522 147.204 203.673 147.403 203.782 147.626C203.89 147.848 203.953 148.09 203.968 148.338C203.983 148.585 203.949 148.833 203.868 149.067C203.787 149.301 203.66 149.517 203.496 149.701C203.321 149.902 203.106 150.062 202.864 150.171C202.622 150.28 202.359 150.335 202.094 150.333Z" fill="#F179AF"/>
<path d="M202.094 142.877C201.636 142.88 201.194 142.712 200.852 142.406L195.477 137.611C195.122 137.275 194.911 136.813 194.889 136.323C194.867 135.833 195.036 135.354 195.36 134.988C195.684 134.621 196.138 134.395 196.625 134.358C197.112 134.321 197.595 134.476 197.97 134.79L203.336 139.585C203.62 139.839 203.82 140.173 203.91 140.543C204 140.914 203.976 141.303 203.842 141.659C203.707 142.016 203.468 142.323 203.156 142.54C202.844 142.758 202.474 142.875 202.094 142.877Z" fill="#F8D88B"/>
<path d="M202.222 129.932C201.764 129.933 201.322 129.765 200.979 129.46L195.613 124.666C195.36 124.314 195.235 123.886 195.26 123.453C195.285 123.02 195.458 122.609 195.75 122.288C196.041 121.968 196.434 121.759 196.862 121.696C197.289 121.633 197.726 121.719 198.097 121.941L203.472 126.736C203.842 127.068 204.067 127.535 204.097 128.033C204.127 128.531 203.959 129.021 203.631 129.396C203.447 129.58 203.226 129.723 202.983 129.815C202.74 129.907 202.481 129.947 202.222 129.932Z" fill="#F8D88B"/>
<path d="M191.209 149.669C190.752 149.671 190.309 149.503 189.967 149.198L184.6 144.403C184.398 144.245 184.231 144.047 184.108 143.821C183.985 143.595 183.909 143.347 183.885 143.09C183.862 142.834 183.891 142.576 183.97 142.331C184.05 142.086 184.179 141.861 184.349 141.668C184.518 141.475 184.726 141.319 184.958 141.21C185.19 141.1 185.442 141.04 185.698 141.032C185.955 141.024 186.21 141.069 186.448 141.163C186.687 141.258 186.903 141.401 187.085 141.583L192.451 146.377C192.825 146.708 193.053 147.174 193.084 147.673C193.115 148.172 192.948 148.663 192.619 149.038C192.441 149.236 192.223 149.395 191.981 149.504C191.738 149.612 191.475 149.669 191.209 149.669Z" fill="#F8D88B"/>
<path d="M191.21 136.325C190.752 136.326 190.31 136.158 189.967 135.853L184.601 131.059C184.361 130.915 184.156 130.72 184.001 130.488C183.845 130.255 183.743 129.99 183.703 129.713C183.662 129.436 183.683 129.153 183.765 128.886C183.847 128.618 183.987 128.372 184.175 128.165C184.364 127.958 184.596 127.796 184.854 127.691C185.113 127.585 185.392 127.539 185.67 127.555C185.949 127.571 186.22 127.65 186.465 127.784C186.71 127.919 186.922 128.107 187.085 128.334L192.452 133.128C192.706 133.386 192.881 133.713 192.954 134.068C193.027 134.424 192.996 134.793 192.865 135.131C192.733 135.469 192.507 135.762 192.213 135.974C191.92 136.186 191.571 136.307 191.21 136.325Z" fill="#F8D88B"/>
<path d="M288.352 155.087H286.919V151.611L283.606 151.38V155.111H281.592V151.228L278.287 150.996V155.135H276.273V150.868L272.961 150.636V155.175H271.838L271.79 147.512L288.225 148.886L288.352 155.087Z" fill="#DE66A6"/>
<path d="M229.732 126.855C229.732 126.648 230.114 126.48 230.584 126.48C231.054 126.48 231.444 126.648 231.444 126.855L231.531 136.085L232.543 136.325L229.963 135.701H229.652L229.74 126.847L229.732 126.855Z" fill="#FBB37B"/>
<path d="M226.308 127.415C226.308 127.207 226.698 127.039 227.168 127.039C227.638 127.039 228.02 127.207 228.02 127.415L228.1 135.725H226.229L226.316 127.375L226.308 127.415Z" fill="#FBB37B"/>
<path d="M224.811 120.055C223.76 119.256 220.288 119.256 219.874 119.256C218.059 119.256 215.79 119.464 214.962 120.055C213.764 119.998 212.585 119.727 211.482 119.256C212.288 118.885 213.154 118.663 214.038 118.601C216.018 118.348 218.013 118.228 220.01 118.241C221.918 118.232 223.824 118.342 225.719 118.569L225.607 119.959L224.811 120.055Z" fill="#4B284D"/>
<path d="M228.841 136.844L228.976 143.988L225.154 144.14L221.857 139.441H221.865V136.908L228.841 136.844Z" fill="#F179AF"/>
<path d="M211.466 124.658C212.272 124.287 213.138 124.068 214.022 124.011C216.002 123.751 217.997 123.628 219.994 123.643C221.798 123.636 223.6 123.732 225.393 123.931L225.305 125.385L224.796 125.441C223.744 124.642 220.273 124.642 219.859 124.642C218.043 124.642 215.774 124.85 214.946 125.441C213.749 125.389 212.571 125.124 211.466 124.658Z" fill="#4B284D"/>
<path d="M231.906 144.795L230.791 144.747H230.552H229.892L229.947 136.413H230.099L231.046 136.628L231.906 136.836V144.795Z" fill="#F285B5"/>
<path d="M259.297 109.955V104.561C259.293 104.526 259.293 104.491 259.297 104.457C259.297 103.961 259.973 103.538 260.778 103.538C261.582 103.538 262.259 103.961 262.259 104.457C262.263 104.494 262.263 104.531 262.259 104.569V109.955H259.297Z" fill="#FFF9B4"/>
<path d="M260.762 103.937C261.431 103.937 261.845 104.273 261.837 104.489V104.561V109.579H259.711V104.537V104.457C259.711 104.273 260.117 103.937 260.794 103.937H260.762ZM260.794 103.138C259.751 103.138 258.915 103.73 258.915 104.457C258.911 104.518 258.911 104.579 258.915 104.641V110.378H262.633V104.641C262.638 104.579 262.638 104.518 262.633 104.457C262.633 103.73 261.789 103.138 260.754 103.138H260.794Z" fill="#4B284D"/>
<path d="M255.459 109.955V106.974C255.459 106.726 255.793 106.495 256.255 106.495C256.717 106.495 257.051 106.726 257.051 106.934V109.955H255.459Z" fill="#FFF9B4"/>
<path d="M256.239 106.894C256.374 106.892 256.507 106.928 256.621 106.998V109.579H255.825V106.998C255.94 106.928 256.073 106.892 256.207 106.894H256.239ZM256.207 106.095C255.555 106.095 255.021 106.471 255.021 106.894C255.017 106.934 255.017 106.974 255.021 107.014V110.338H257.41V107.054C257.414 107.014 257.414 106.974 257.41 106.934C257.41 106.471 256.876 106.135 256.215 106.135L256.207 106.095Z" fill="#4B284D"/>
<path d="M264.497 109.955V106.974C264.497 106.726 264.831 106.495 265.293 106.495C265.755 106.495 266.089 106.726 266.089 106.934V109.955H264.497Z" fill="#FFF9B4"/>
<path d="M265.277 106.894C265.412 106.892 265.544 106.928 265.659 106.998V109.579H264.863V106.998C264.977 106.926 265.11 106.89 265.245 106.894H265.277ZM265.245 106.095C264.592 106.095 264.059 106.471 264.059 106.894C264.055 106.934 264.055 106.974 264.059 107.014V110.338H266.447V107.054C266.451 107.014 266.451 106.974 266.447 106.934C266.447 106.471 265.914 106.135 265.253 106.135L265.245 106.095Z" fill="#4B284D"/>
<path d="M257.967 123.02H255.969V131.994H257.967V123.02Z" fill="#FFF9B4"/>
<path d="M257.569 123.419V131.594H256.367V123.419H257.569ZM258.365 122.62H255.57V132.393H258.365V122.62Z" fill="#4B284D"/>
<path d="M262.466 133.736H259.703V141.239H262.466V133.736Z" fill="#FFF9B4"/>
<path d="M262.068 134.135V140.84H260.101V134.135H262.068ZM262.864 133.336H259.305V141.639H262.864V133.336Z" fill="#4B284D"/>
<path d="M262.466 123.02H259.703V131.994H262.466V123.02Z" fill="#FFF9B4"/>
<path d="M262.068 123.419V131.594H260.101V123.419H262.068ZM262.864 122.62H259.305V132.393H262.864V122.62Z" fill="#4B284D"/>
<path d="M264.202 121.278V115.684C264.864 116.29 265.391 117.032 265.745 117.859C266.099 118.685 266.273 119.579 266.256 120.479C266.254 120.746 266.235 121.013 266.2 121.278H264.202Z" fill="#FFF9B4"/>
<path d="M264.624 116.667C265.45 117.746 265.893 119.07 265.882 120.431C265.89 120.58 265.89 120.729 265.882 120.878H264.624V116.667ZM263.828 114.877V121.677H266.622V121.31C266.657 121.018 266.676 120.724 266.678 120.431C266.71 119.333 266.466 118.245 265.967 117.267C265.469 116.289 264.733 115.454 263.828 114.837V114.877Z" fill="#4B284D"/>
<path d="M259.703 121.278V114.677C260.148 114.534 260.613 114.461 261.081 114.461C261.551 114.462 262.018 114.534 262.466 114.677V121.278H259.703Z" fill="#FFF9B4"/>
<path d="M261.08 114.861C261.413 114.861 261.745 114.901 262.068 114.981V120.878H260.101V114.981C260.421 114.901 260.75 114.861 261.08 114.861ZM261.08 114.062C260.473 114.063 259.871 114.177 259.305 114.398V121.677H262.864V114.398C262.295 114.176 261.69 114.062 261.08 114.062Z" fill="#4B284D"/>
<path d="M266.2 123.02H264.202V131.994H266.2V123.02Z" fill="#FFF9B4"/>
<path d="M265.802 123.419V131.594H264.624V123.419H265.826H265.802ZM266.622 122.62H263.828V132.393H266.622V122.62Z" fill="#4B284D"/>
<path d="M266.2 133.736H264.202V141.239H266.2V133.736Z" fill="#FFF9B4"/>
<path d="M265.802 134.135V140.84H264.624V134.135H265.826H265.802ZM266.622 133.336H263.828V141.639H266.622V133.336Z" fill="#4B284D"/>
<path d="M257.967 133.736H255.969V141.239H257.967V133.736Z" fill="#FFF9B4"/>
<path d="M257.569 134.135V140.84H256.367V134.135H257.569ZM258.365 133.336H255.57V141.639H258.365V133.336Z" fill="#4B284D"/>
<path d="M255.961 121.278C255.926 120.997 255.907 120.714 255.905 120.431C255.888 119.531 256.062 118.638 256.416 117.811C256.77 116.984 257.296 116.242 257.959 115.636V121.23L255.961 121.278Z" fill="#FFF9B4"/>
<path d="M257.569 116.667V120.878H256.327C256.327 120.718 256.327 120.566 256.327 120.431C256.316 119.069 256.762 117.743 257.593 116.667H257.569ZM258.389 114.877C257.483 115.493 256.746 116.329 256.246 117.306C255.746 118.284 255.5 119.372 255.531 120.471C255.532 120.765 255.553 121.058 255.595 121.35V121.717H258.389V114.877Z" fill="#4B284D"/>
<path d="M203.599 195.258C204.316 191.582 203.705 188.628 201.768 186.396C202.914 188.425 203.201 190.924 202.628 193.891C200.876 202.926 195.236 207.444 185.707 207.444H165.713L165.451 208.81H186.687C196.21 208.794 201.847 204.277 203.599 195.258Z" fill="#4B284D"/>
<path d="M265.914 181.497L260.722 206.709H276.711C279.132 206.709 280.607 205.454 281.138 202.945L281.934 199.189H273.701L274.243 196.584H279.968C282.357 196.584 283.869 195.322 284.395 192.797L285.191 189.009H284.132L283.583 191.646C283.049 194.171 281.576 195.434 279.148 195.434H273.423L272.626 199.189H271.599L272.587 194.451H278.304C280.729 194.451 282.208 193.188 282.739 190.663L283.535 186.883H276.233L276.743 184.422H283.423C285.86 184.422 287.341 183.167 287.867 180.658L288.663 176.895H287.604L287.054 179.508C286.524 182.017 285.045 183.271 282.619 183.271H275.939L275.19 186.883H274.179L275.135 182.288H281.815C284.252 182.288 285.733 181.034 286.258 178.525L287.054 174.761H267.307L266.264 179.851C266.35 179.397 266.307 178.929 266.141 178.498C265.975 178.067 265.692 177.692 265.325 177.414C265.498 178.101 265.498 178.821 265.325 179.508C264.794 182.017 263.273 183.271 260.762 183.271H255.985L251.836 203.624C251.279 206.373 249.442 207.745 246.326 207.74H242.695L242.464 208.89H247.106C250.217 208.89 252.054 207.518 252.617 204.775L256.765 184.422H261.543C263.828 184.422 265.253 183.471 265.914 181.497Z" fill="#4B284D"/>
<path d="M281.95 203.928C281.419 206.437 279.946 207.692 277.531 207.692H262.593L262.354 208.842H278.343C280.732 208.842 282.245 207.588 282.77 205.079L283.567 201.315H282.508L281.95 203.928Z" fill="#4B284D"/>
<path d="M306.602 192.797L315.902 184.326C317.039 183.464 317.841 182.233 318.172 180.842C318.249 180.283 318.195 179.713 318.015 179.178C317.836 178.643 317.535 178.156 317.137 177.758L317.041 177.662C317.35 178.293 317.459 179.004 317.352 179.699C317.025 181.087 316.225 182.317 315.09 183.175L305.79 191.646L311.435 200.172C311.824 200.657 312.098 201.224 312.236 201.83C312.374 202.436 312.372 203.066 312.232 203.672C311.791 204.932 310.952 206.012 309.843 206.749C309.331 207.184 308.738 207.513 308.098 207.716C307.458 207.919 306.785 207.992 306.116 207.931C305.212 207.805 304.386 207.347 303.799 206.645L303.967 206.901C304.257 207.477 304.68 207.976 305.2 208.355C305.721 208.734 306.324 208.984 306.96 209.082C307.627 209.141 308.299 209.067 308.938 208.864C309.576 208.661 310.168 208.333 310.679 207.899C311.774 207.157 312.598 206.077 313.028 204.823C313.171 204.216 313.174 203.584 313.035 202.976C312.897 202.368 312.622 201.8 312.232 201.315L306.602 192.797Z" fill="#4B284D"/>
<path d="M289.061 207.692H285.446L285.207 208.842H289.873C292.994 208.842 294.852 207.471 295.447 204.727L297.039 197.04L302.326 204.767C302.617 205.343 303.04 205.842 303.56 206.221C304.081 206.601 304.684 206.85 305.32 206.948C305.987 207.009 306.66 206.935 307.298 206.732C307.936 206.529 308.528 206.201 309.039 205.766C310.148 205.03 310.987 203.949 311.428 202.689C311.57 202.084 311.572 201.453 311.434 200.847C311.296 200.24 311.021 199.673 310.631 199.189L304.97 190.663L314.27 182.193C315.404 181.332 316.206 180.104 316.539 178.717C316.616 178.156 316.563 177.585 316.383 177.048C316.204 176.512 315.903 176.024 315.504 175.624C315.114 175.177 314.617 174.835 314.061 174.631C313.504 174.428 312.905 174.368 312.319 174.457C310.785 174.724 309.384 175.497 308.338 176.655L299.731 184.366L301.323 176.895H300.264L298.433 185.533L297.159 186.667L299.659 174.761H290.263L283.551 206.725H288.217C291.328 206.725 293.185 205.353 293.791 202.609L295.455 194.73L296.251 195.873L294.611 203.592C294.021 206.33 292.172 207.697 289.061 207.692Z" fill="#4B284D"/>
<path d="M184.736 206.245C194.259 206.245 199.897 201.733 201.648 192.709C202.407 188.836 201.686 185.762 199.483 183.487C202.978 181.577 205.176 178.437 206.028 174.018C206.689 170.598 206.171 168.001 204.491 166.187C205.367 167.865 205.558 170.014 205.048 172.643C204.165 177.222 201.863 180.434 198.137 182.328C197.669 181.988 197.177 181.684 196.664 181.417C200.677 179.59 203.159 176.279 204.109 171.485C205.51 164.229 201.643 160.598 192.507 160.593H172.107L170.993 166.482L164.623 200.372L163.5 206.245H184.736ZM188.415 191.965C187.788 195.258 185.875 196.904 182.674 196.904H181.081L182.475 189.576H186.4C187.132 189.562 187.861 189.681 188.55 189.928C188.608 190.61 188.562 191.297 188.415 191.965ZM190.883 174.178C190.318 177.11 188.622 178.573 185.771 178.573H184.561L185.747 172.332H189.275C189.854 172.322 190.431 172.4 190.987 172.563C191.024 173.104 190.989 173.647 190.883 174.178ZM183.796 169.783H187.316C189.187 169.783 190.342 170.374 190.795 171.557C190.037 171.12 189.169 170.911 188.295 170.957H184.768L183.319 178.573H182.116L183.796 169.783ZM180.508 187.027H184.425C186.464 187.027 187.748 187.658 188.279 188.921C187.415 188.398 186.413 188.15 185.405 188.21H181.487L179.823 196.904H178.629L180.508 187.027Z" fill="#4B284D"/>
<path d="M222.701 202.593C222.152 205.342 223.442 206.709 226.547 206.709H231.221L237.591 174.745H232.893C232.014 174.691 231.133 174.837 230.318 175.173C229.503 175.51 228.775 176.027 228.188 176.687L217.98 186.572L219.07 180.978C219.381 179.42 219.07 178.301 218.21 177.63C218.414 178.349 218.43 179.108 218.258 179.835L216.666 187.778L215.416 188.977L217.406 178.844C217.937 176.101 216.639 174.729 213.513 174.729H208.886L203.48 202.561C202.949 205.31 204.239 206.682 207.35 206.677C208.173 206.689 208.991 206.536 209.756 206.228C210.52 205.919 211.215 205.46 211.801 204.879L224.716 192.421L224.278 194.61L212.581 205.894C211.994 206.476 211.297 206.934 210.532 207.243C209.766 207.552 208.947 207.704 208.122 207.692C207.066 207.767 206.014 207.501 205.12 206.932C205.55 208.203 206.816 208.842 208.942 208.842C209.766 208.856 210.584 208.703 211.349 208.395C212.113 208.086 212.808 207.627 213.393 207.044L223.808 197L222.701 202.593Z" fill="#4B284D"/>
<path d="M245.514 206.757C248.63 206.757 250.467 205.385 251.024 202.641L255.173 182.288H259.95C262.471 182.288 263.992 181.034 264.513 178.525C265.033 176.016 264.024 174.761 261.487 174.761H238.754L238.348 176.911H238.22L232.057 207.692H227.367C226.314 207.772 225.263 207.505 224.374 206.932C224.798 208.2 226.07 208.837 228.188 208.842H232.854L238.348 181.306C238.687 181.667 239.105 181.943 239.57 182.114C240.034 182.285 240.532 182.344 241.023 182.288H245.801L245.602 183.271H241.851C241.083 183.315 240.319 183.132 239.654 182.744C239.996 183.855 240.991 184.422 242.671 184.422H245.347L240.832 206.757H245.514Z" fill="#4B284D"/>
<path d="M180.731 218.471H179.831L176.829 221.252L177.442 218.471H176.766L175.547 223.985H176.232L176.638 222.131L177.355 221.468L178.923 223.985H179.72L177.864 221.092L180.731 218.471Z" fill="#4B284D"/>
<path d="M183.677 218.471L180.261 223.985H181.057L181.806 222.762H184.553L184.768 223.985H185.516L184.513 218.471H183.677ZM182.172 222.147L183.98 219.183L184.497 222.147H182.172Z" fill="#4B284D"/>
<path d="M190.286 221.028C189.865 221.155 189.428 221.22 188.988 221.22C188.144 221.22 187.794 220.789 187.969 219.95L188.295 218.511H187.611L187.292 219.942C187.037 221.076 187.491 221.835 188.789 221.835C189.252 221.828 189.712 221.763 190.159 221.644L189.633 224.041H190.318L191.52 218.527H190.835L190.286 221.028Z" fill="#4B284D"/>
<path d="M191.926 223.985H195.533L195.661 223.37H192.738L193.152 221.468H196.027L196.154 220.861H193.296L193.694 219.079H196.608L196.744 218.471H193.145L191.926 223.985Z" fill="#4B284D"/>
<path d="M200.327 218.375C199.908 218.388 199.497 218.483 199.115 218.655C198.733 218.827 198.389 219.073 198.102 219.379C197.815 219.685 197.591 220.044 197.443 220.437C197.294 220.83 197.225 221.248 197.237 221.668C197.237 221.996 197.303 222.32 197.432 222.622C197.562 222.923 197.751 223.194 197.99 223.419C198.228 223.644 198.509 223.817 198.817 223.928C199.124 224.039 199.451 224.086 199.777 224.065C200.154 224.068 200.526 223.994 200.873 223.847C201.219 223.7 201.532 223.483 201.792 223.21L201.29 222.826C200.898 223.218 200.371 223.444 199.817 223.458C199.571 223.475 199.324 223.44 199.093 223.354C198.861 223.268 198.651 223.134 198.475 222.96C198.3 222.786 198.163 222.576 198.075 222.345C197.986 222.114 197.948 221.867 197.962 221.62C197.94 221.293 197.983 220.964 198.089 220.654C198.194 220.344 198.36 220.057 198.576 219.812C198.792 219.566 199.054 219.365 199.348 219.222C199.642 219.078 199.961 218.994 200.287 218.975C200.614 218.964 200.938 219.048 201.219 219.214C201.501 219.381 201.73 219.625 201.879 219.918L202.524 219.662C202.321 219.258 202.005 218.921 201.615 218.693C201.225 218.465 200.778 218.354 200.327 218.375Z" fill="#4B284D"/>
<path d="M203.536 219.079H205.271L204.197 223.985H204.881L205.956 219.079H207.7L207.835 218.471H203.663L203.536 219.079Z" fill="#4B284D"/>
<path d="M211.347 218.471H209.061L207.851 223.985H210.399C210.629 224.014 210.862 223.995 211.084 223.929C211.306 223.862 211.512 223.751 211.688 223.6C211.865 223.45 212.009 223.265 212.11 223.056C212.212 222.847 212.269 222.619 212.278 222.387C212.284 222.137 212.21 221.892 212.067 221.688C211.923 221.484 211.718 221.331 211.482 221.252C211.837 221.202 212.161 221.025 212.395 220.753C212.629 220.481 212.758 220.133 212.756 219.774C212.758 219.593 212.722 219.413 212.65 219.247C212.578 219.08 212.473 218.931 212.34 218.808C212.207 218.685 212.05 218.592 211.879 218.534C211.708 218.476 211.526 218.455 211.347 218.471ZM211.578 222.299C211.575 222.45 211.541 222.599 211.479 222.736C211.416 222.873 211.326 222.996 211.214 223.096C211.101 223.197 210.97 223.273 210.827 223.32C210.684 223.367 210.533 223.384 210.383 223.37H208.663L209.077 221.468H210.67C210.786 221.451 210.905 221.461 211.017 221.495C211.129 221.53 211.232 221.589 211.319 221.669C211.406 221.748 211.474 221.846 211.519 221.955C211.563 222.064 211.583 222.181 211.578 222.299ZM210.925 220.861H209.221L209.619 219.079H211.171C211.276 219.073 211.381 219.089 211.479 219.124C211.578 219.159 211.669 219.214 211.746 219.284C211.824 219.355 211.887 219.44 211.932 219.535C211.977 219.63 212.002 219.733 212.007 219.838C212.015 219.98 211.992 220.122 211.94 220.254C211.887 220.386 211.807 220.505 211.703 220.602C211.6 220.7 211.477 220.773 211.342 220.818C211.208 220.863 211.065 220.877 210.925 220.861Z" fill="#4B284D"/>
<path d="M216.745 218.375C215.902 218.403 215.103 218.765 214.526 219.382C213.948 219.999 213.638 220.821 213.664 221.668C213.663 221.996 213.729 222.32 213.859 222.622C213.988 222.923 214.178 223.194 214.416 223.419C214.654 223.644 214.935 223.817 215.243 223.928C215.55 224.039 215.877 224.086 216.204 224.065C216.622 224.053 217.034 223.958 217.415 223.785C217.797 223.613 218.141 223.367 218.428 223.061C218.715 222.756 218.939 222.396 219.088 222.003C219.236 221.611 219.306 221.193 219.293 220.773C219.294 220.444 219.227 220.119 219.097 219.817C218.967 219.515 218.777 219.243 218.538 219.018C218.299 218.794 218.017 218.621 217.708 218.51C217.4 218.399 217.072 218.354 216.745 218.375ZM216.235 223.474C215.99 223.49 215.743 223.454 215.513 223.367C215.282 223.281 215.072 223.146 214.897 222.973C214.721 222.799 214.585 222.59 214.496 222.36C214.407 222.129 214.367 221.883 214.38 221.636C214.358 221.308 214.4 220.98 214.505 220.669C214.61 220.358 214.775 220.071 214.992 219.825C215.208 219.579 215.471 219.379 215.765 219.235C216.059 219.092 216.379 219.009 216.705 218.991C216.951 218.976 217.197 219.013 217.427 219.1C217.657 219.187 217.866 219.321 218.041 219.494C218.216 219.668 218.353 219.876 218.442 220.106C218.532 220.336 218.572 220.582 218.561 220.829C218.581 221.156 218.537 221.483 218.431 221.793C218.326 222.103 218.16 222.389 217.944 222.635C217.728 222.88 217.466 223.081 217.173 223.225C216.88 223.369 216.561 223.453 216.235 223.474Z" fill="#4B284D"/>
<path d="M223.354 222.882L224.334 218.471H223.649L222.438 223.985H223.091L227.288 219.486L226.292 223.985H226.985L228.195 218.471H227.495L223.354 222.882Z" fill="#4B284D"/>
<path d="M234.534 218.471H232.248L231.038 223.985H233.57C233.8 224.014 234.033 223.995 234.255 223.929C234.477 223.862 234.683 223.751 234.86 223.6C235.036 223.45 235.18 223.265 235.281 223.056C235.383 222.847 235.44 222.619 235.449 222.387C235.455 222.137 235.381 221.892 235.238 221.688C235.094 221.484 234.889 221.331 234.653 221.252C235.008 221.202 235.332 221.025 235.566 220.753C235.8 220.481 235.929 220.133 235.927 219.774C235.929 219.594 235.893 219.416 235.822 219.251C235.752 219.086 235.647 218.937 235.516 218.814C235.385 218.692 235.23 218.598 235.061 218.539C234.892 218.48 234.712 218.457 234.534 218.471ZM234.765 222.299C234.762 222.45 234.728 222.599 234.666 222.736C234.603 222.873 234.513 222.996 234.401 223.096C234.288 223.197 234.157 223.273 234.014 223.32C233.871 223.367 233.72 223.384 233.57 223.37H231.85L232.264 221.468H233.857C233.973 221.451 234.092 221.461 234.204 221.495C234.316 221.53 234.419 221.589 234.506 221.669C234.593 221.748 234.661 221.846 234.706 221.955C234.75 222.064 234.77 222.181 234.765 222.299ZM234.112 220.861H232.408L232.806 219.079H234.366C234.471 219.073 234.576 219.089 234.674 219.124C234.773 219.159 234.864 219.214 234.941 219.284C235.019 219.355 235.082 219.44 235.127 219.535C235.172 219.63 235.197 219.733 235.202 219.838C235.211 219.981 235.187 220.123 235.134 220.256C235.081 220.389 235 220.508 234.896 220.606C234.792 220.703 234.668 220.777 234.532 220.821C234.396 220.865 234.253 220.878 234.112 220.861Z" fill="#4B284D"/>
<path d="M241.731 218.471H240.832L237.822 221.252L238.443 218.471H237.758L236.548 223.985H237.233L237.631 222.131L238.347 221.468L239.916 223.985H240.712L238.865 221.092L241.731 218.471Z" fill="#4B284D"/>
<path d="M244.168 221.891L243.189 218.471H242.456L243.675 222.467L243.483 222.714C243.069 223.266 242.854 223.514 242.448 223.514C242.316 223.511 242.186 223.476 242.07 223.41C241.955 223.344 241.858 223.251 241.787 223.138L241.381 223.689C241.494 223.837 241.642 223.954 241.812 224.03C241.982 224.105 242.168 224.137 242.353 224.121C242.708 224.106 243.053 223.999 243.356 223.812C243.658 223.624 243.908 223.362 244.081 223.05L247.465 218.511H246.668L244.168 221.891Z" fill="#4B284D"/>
<path d="M250.69 218.375C250.271 218.388 249.859 218.483 249.478 218.655C249.096 218.827 248.752 219.073 248.465 219.379C248.178 219.685 247.954 220.044 247.806 220.437C247.657 220.83 247.587 221.248 247.6 221.668C247.599 221.996 247.666 222.32 247.795 222.622C247.925 222.923 248.114 223.194 248.352 223.419C248.59 223.644 248.872 223.817 249.179 223.928C249.487 224.039 249.814 224.086 250.14 224.065C250.516 224.069 250.889 223.994 251.236 223.847C251.582 223.7 251.895 223.483 252.155 223.21L251.653 222.826C251.26 223.218 250.733 223.444 250.18 223.458C249.934 223.475 249.687 223.44 249.456 223.354C249.224 223.268 249.014 223.134 248.838 222.96C248.663 222.786 248.526 222.576 248.438 222.345C248.349 222.114 248.311 221.867 248.325 221.62C248.303 221.293 248.346 220.964 248.452 220.654C248.557 220.344 248.722 220.057 248.939 219.812C249.155 219.566 249.417 219.365 249.711 219.222C250.005 219.078 250.324 218.994 250.65 218.975C250.977 218.964 251.3 219.048 251.582 219.214C251.864 219.381 252.093 219.625 252.242 219.918L252.887 219.662C252.684 219.258 252.368 218.921 251.978 218.693C251.588 218.465 251.14 218.354 250.69 218.375Z" fill="#4B284D"/>
<path d="M261.479 218.375C261.06 218.388 260.649 218.483 260.267 218.655C259.885 218.827 259.541 219.073 259.254 219.379C258.967 219.685 258.743 220.044 258.595 220.437C258.446 220.83 258.376 221.248 258.389 221.668C258.389 221.996 258.455 222.32 258.584 222.622C258.714 222.923 258.903 223.194 259.141 223.419C259.38 223.644 259.661 223.817 259.969 223.928C260.276 224.039 260.603 224.086 260.929 224.065C261.305 224.069 261.678 223.994 262.025 223.847C262.371 223.7 262.684 223.483 262.944 223.21L262.442 222.826C262.05 223.218 261.522 223.444 260.969 223.458C260.723 223.475 260.476 223.44 260.245 223.354C260.013 223.268 259.803 223.134 259.627 222.96C259.452 222.786 259.315 222.576 259.227 222.345C259.138 222.114 259.1 221.867 259.114 221.62C259.092 221.293 259.135 220.964 259.241 220.654C259.346 220.344 259.512 220.057 259.728 219.812C259.944 219.566 260.206 219.365 260.5 219.222C260.794 219.078 261.113 218.994 261.439 218.975C261.766 218.964 262.089 219.048 262.371 219.214C262.653 219.381 262.882 219.625 263.031 219.918L263.676 219.662C263.473 219.258 263.157 218.921 262.767 218.693C262.377 218.465 261.93 218.354 261.479 218.375Z" fill="#4B284D"/>
<path d="M266.861 219.894L267.188 220.317L268.271 219.382L267.259 223.985H267.944L269.155 218.471H268.549L266.861 219.894Z" fill="#4B284D"/>
<path d="M272.212 218.376C271.653 218.373 271.116 218.593 270.718 218.987C270.32 219.38 270.092 219.916 270.086 220.477C270.09 220.686 270.138 220.893 270.226 221.082C270.315 221.272 270.442 221.441 270.6 221.578C270.757 221.715 270.942 221.817 271.142 221.878C271.341 221.939 271.551 221.957 271.758 221.931C272.359 221.904 272.928 221.65 273.351 221.22C273.34 221.281 273.321 221.34 273.295 221.396C273.064 222.371 272.499 223.466 271.432 223.466C271.182 223.482 270.933 223.427 270.713 223.307C270.493 223.187 270.311 223.006 270.19 222.787L269.736 223.25C269.917 223.516 270.165 223.73 270.454 223.87C270.743 224.01 271.064 224.072 271.384 224.049C273.239 224.049 274.099 221.939 274.099 220.389C274.133 220.127 274.108 219.861 274.027 219.609C273.946 219.358 273.81 219.128 273.629 218.935C273.449 218.743 273.228 218.593 272.983 218.496C272.738 218.399 272.475 218.358 272.212 218.376ZM273.415 220.685C273.241 220.888 273.028 221.054 272.788 221.171C272.549 221.287 272.287 221.353 272.021 221.364C271.304 221.364 270.795 220.989 270.795 220.389C270.797 220.018 270.946 219.662 271.208 219.4C271.471 219.138 271.826 218.991 272.196 218.991C272.366 218.983 272.535 219.012 272.692 219.076C272.849 219.139 272.99 219.236 273.107 219.36C273.223 219.484 273.312 219.631 273.366 219.792C273.421 219.953 273.44 220.124 273.422 220.293C273.422 220.389 273.422 220.613 273.383 220.685H273.415Z" fill="#4B284D"/>
<path d="M277.404 218.376C276.845 218.373 276.307 218.593 275.909 218.987C275.511 219.38 275.284 219.916 275.278 220.477C275.282 220.686 275.329 220.893 275.418 221.082C275.506 221.272 275.633 221.441 275.791 221.578C275.949 221.715 276.133 221.817 276.333 221.878C276.533 221.939 276.743 221.957 276.95 221.931C277.552 221.91 278.123 221.655 278.542 221.22C278.531 221.28 278.515 221.339 278.494 221.396C278.256 222.371 277.698 223.466 276.623 223.466C276.375 223.482 276.126 223.426 275.908 223.306C275.689 223.186 275.509 223.006 275.389 222.787L274.927 223.25C275.11 223.517 275.359 223.731 275.649 223.871C275.94 224.011 276.262 224.072 276.583 224.049C278.431 224.049 279.291 221.939 279.291 220.389C279.324 220.127 279.299 219.861 279.218 219.609C279.137 219.358 279.001 219.128 278.821 218.935C278.64 218.743 278.42 218.593 278.175 218.496C277.93 218.399 277.666 218.358 277.404 218.376ZM278.606 220.685C278.434 220.89 278.221 221.056 277.981 221.173C277.741 221.29 277.479 221.355 277.212 221.364C276.496 221.364 275.986 220.989 275.986 220.389C275.988 220.018 276.137 219.662 276.4 219.4C276.662 219.138 277.017 218.991 277.388 218.991C277.557 218.983 277.726 219.012 277.883 219.076C278.04 219.139 278.182 219.236 278.298 219.36C278.415 219.484 278.503 219.631 278.558 219.792C278.612 219.953 278.631 220.124 278.614 220.293C278.614 220.389 278.614 220.613 278.606 220.685Z" fill="#4B284D"/>
<path d="M280.366 219.894L280.684 220.317L281.775 219.382L280.764 223.985H281.441L282.659 218.471H282.054L280.366 219.894Z" fill="#4B284D"/>
<path d="M285.501 223.985H286.186L287.261 219.079H290.175L290.311 218.471H286.712L285.501 223.985Z" fill="#4B284D"/>
<path d="M293.743 218.375C293.324 218.388 292.913 218.483 292.531 218.655C292.149 218.827 291.805 219.073 291.518 219.379C291.231 219.685 291.007 220.044 290.859 220.437C290.71 220.83 290.641 221.248 290.653 221.668C290.653 221.996 290.719 222.32 290.848 222.622C290.978 222.923 291.167 223.194 291.406 223.419C291.644 223.644 291.925 223.817 292.233 223.928C292.54 224.039 292.867 224.086 293.193 224.065C294.037 224.038 294.835 223.676 295.413 223.059C295.991 222.441 296.301 221.619 296.275 220.773C296.275 220.445 296.209 220.121 296.08 219.821C295.951 219.52 295.763 219.249 295.525 219.025C295.288 218.8 295.008 218.627 294.701 218.515C294.394 218.403 294.068 218.356 293.743 218.375ZM293.233 223.474C292.987 223.491 292.74 223.456 292.509 223.37C292.277 223.284 292.067 223.15 291.891 222.976C291.716 222.802 291.579 222.592 291.491 222.361C291.402 222.13 291.364 221.883 291.378 221.636C291.355 221.308 291.398 220.98 291.503 220.669C291.608 220.358 291.773 220.071 291.989 219.825C292.206 219.579 292.469 219.379 292.763 219.235C293.057 219.092 293.376 219.009 293.703 218.991C293.948 218.976 294.194 219.013 294.423 219.1C294.653 219.187 294.862 219.321 295.037 219.495C295.211 219.668 295.347 219.877 295.435 220.107C295.524 220.336 295.563 220.583 295.55 220.829C295.572 221.155 295.529 221.483 295.424 221.793C295.319 222.102 295.154 222.388 294.939 222.634C294.724 222.88 294.462 223.081 294.17 223.225C293.877 223.369 293.559 223.453 293.233 223.474Z" fill="#4B284D"/>
<path d="M302.764 218.471H299.404L298.457 221.236C297.812 223.106 297.374 223.362 296.721 223.434L296.378 225.032H297.055L297.278 224.017H301.371L301.148 225.032H301.833L302.191 223.434H301.697L302.764 218.471ZM301.013 223.37H297.828C298.48 222.842 298.94 222.111 299.133 221.292L299.89 219.079H301.96L301.013 223.37Z" fill="#4B284D"/>
<path d="M306.116 218.471L302.692 223.985H303.489L304.237 222.762H306.976L307.191 223.985H307.94L306.936 218.471H306.116ZM304.603 222.147L306.419 219.183L306.936 222.147H304.603Z" fill="#4B284D"/>
<path d="M216.65 163.853L214.341 166.139L214.818 163.853H214.293L213.361 168.376H213.887L214.197 166.858L214.747 166.315L215.949 168.376H216.562L215.137 166.003L217.343 163.853H216.65Z" fill="#4B284D"/>
<path d="M218.664 166.482C218.65 166.743 218.69 167.005 218.782 167.249C218.874 167.494 219.016 167.716 219.199 167.902C219.382 168.088 219.602 168.234 219.845 168.329C220.087 168.424 220.347 168.468 220.607 168.456C220.941 168.438 221.269 168.353 221.57 168.207C221.871 168.061 222.141 167.857 222.363 167.606C222.585 167.355 222.755 167.062 222.864 166.744C222.973 166.426 223.018 166.09 222.996 165.755C223.011 165.494 222.971 165.232 222.878 164.986C222.786 164.741 222.643 164.518 222.459 164.332C222.275 164.146 222.054 164.001 221.81 163.906C221.567 163.811 221.306 163.769 221.045 163.782C220.711 163.8 220.385 163.884 220.084 164.031C219.783 164.177 219.514 164.381 219.292 164.632C219.071 164.884 218.901 165.177 218.793 165.494C218.686 165.812 218.642 166.148 218.664 166.482ZM222.431 165.787C222.455 166.047 222.428 166.31 222.351 166.56C222.274 166.809 222.148 167.041 221.982 167.243C221.816 167.444 221.611 167.61 221.381 167.732C221.151 167.854 220.899 167.929 220.639 167.953C220.446 167.957 220.254 167.92 220.075 167.845C219.897 167.769 219.737 167.657 219.604 167.515C219.472 167.374 219.371 167.206 219.308 167.022C219.245 166.839 219.221 166.644 219.238 166.45C219.213 166.192 219.238 165.932 219.313 165.683C219.389 165.435 219.512 165.204 219.676 165.004C219.84 164.804 220.042 164.638 220.27 164.516C220.498 164.394 220.748 164.318 221.005 164.293C221.199 164.289 221.391 164.326 221.569 164.4C221.748 164.475 221.909 164.586 222.042 164.727C222.175 164.867 222.278 165.034 222.344 165.217C222.409 165.399 222.436 165.594 222.423 165.787H222.431Z" fill="#4B284D"/>
<path d="M228.06 168.376L228.992 163.853H228.466L228.068 165.803H225.6L225.998 163.853H225.472L224.541 168.376H225.066L225.496 166.307H227.964L227.534 168.376H228.06Z" fill="#4B284D"/>
<path d="M232.176 163.853L231.452 166.123C230.958 167.657 230.656 167.865 230.114 167.921L229.859 169.207H230.385L230.552 168.408H233.737L233.57 169.207H234.095L234.366 167.873H233.984L234.78 163.877L232.176 163.853ZM233.411 167.849H230.966C231.475 167.41 231.829 166.819 231.977 166.163L232.559 164.357H234.151L233.411 167.849Z" fill="#4B284D"/>
<path d="M237.09 163.853L236.166 168.376H236.668L239.892 164.692L239.128 168.376H239.654L240.585 163.853H240.052L236.875 167.473L237.615 163.853H237.09Z" fill="#4B284D"/>
<path d="M243.483 168.376L244.311 164.357H245.657L245.753 163.853H242.552L242.448 164.357H243.786L242.958 168.376H243.483Z" fill="#4B284D"/>
<path d="M250.387 164.357L250.482 163.853H247.719L246.788 168.376H249.559L249.654 167.873H247.409L247.727 166.315H249.933L250.036 165.811H247.839L248.141 164.357H250.387Z" fill="#4B284D"/>
<path d="M253.715 166.578C253.924 166.592 254.133 166.561 254.329 166.489C254.525 166.416 254.704 166.303 254.854 166.157C255.004 166.011 255.122 165.835 255.2 165.641C255.278 165.446 255.315 165.238 255.308 165.028C255.313 164.872 255.287 164.717 255.23 164.572C255.173 164.427 255.087 164.295 254.977 164.185C254.867 164.075 254.736 163.988 254.592 163.931C254.447 163.874 254.292 163.848 254.137 163.853H252.545L251.621 168.376H252.147L252.513 166.578H253.715ZM253.015 164.357H254.074C254.167 164.356 254.26 164.373 254.346 164.409C254.432 164.444 254.511 164.496 254.577 164.563C254.643 164.629 254.695 164.708 254.73 164.795C254.766 164.881 254.783 164.974 254.782 165.068C254.788 165.203 254.765 165.338 254.716 165.464C254.667 165.59 254.592 165.704 254.496 165.799C254.399 165.894 254.285 165.967 254.158 166.015C254.032 166.062 253.898 166.083 253.763 166.075H252.68L253.015 164.357Z" fill="#4B284D"/>
<path d="M259.209 164.293C259.475 164.283 259.737 164.354 259.962 164.496C260.187 164.639 260.363 164.847 260.467 165.092L260.961 164.884C260.816 164.553 260.574 164.273 260.266 164.083C259.959 163.894 259.602 163.802 259.241 163.821C258.906 163.838 258.578 163.921 258.276 164.066C257.973 164.211 257.703 164.416 257.481 164.667C257.258 164.919 257.088 165.213 256.98 165.531C256.872 165.85 256.829 166.187 256.853 166.522C256.839 166.784 256.88 167.045 256.973 167.29C257.066 167.534 257.209 167.757 257.393 167.942C257.576 168.128 257.797 168.274 258.04 168.369C258.283 168.464 258.543 168.508 258.803 168.496C259.104 168.503 259.402 168.444 259.678 168.323C259.953 168.201 260.198 168.02 260.396 167.793L260.006 167.481C259.861 167.638 259.686 167.764 259.492 167.852C259.298 167.94 259.088 167.988 258.875 167.993C258.677 168 258.479 167.964 258.296 167.887C258.112 167.81 257.948 167.695 257.813 167.548C257.679 167.402 257.577 167.228 257.516 167.038C257.454 166.849 257.435 166.648 257.458 166.45C257.409 165.932 257.565 165.415 257.893 165.011C258.22 164.607 258.693 164.349 259.209 164.293Z" fill="#4B284D"/>
<path d="M265.476 163.853L263.167 166.139L263.645 163.853H263.119L262.188 168.376H262.713L263.024 166.858L263.573 166.315L264.775 168.376H265.388L263.963 166.003L266.169 163.853H265.476Z" fill="#4B284D"/>
<path d="M266.821 168.376H267.45L268.024 167.369H270.134L270.301 168.376H270.874L270.078 163.853H269.425L266.821 168.376ZM270.086 166.874H268.294L269.688 164.477L270.086 166.874Z" fill="#4B284D"/>
<path d="M275.556 168.376L276.488 163.853H274.8C274.588 163.842 274.376 163.875 274.177 163.952C273.979 164.028 273.799 164.145 273.648 164.296C273.498 164.447 273.381 164.627 273.305 164.827C273.229 165.026 273.196 165.239 273.207 165.452C273.202 165.706 273.281 165.955 273.433 166.159C273.584 166.363 273.799 166.511 274.043 166.578L272.515 168.416H273.191L274.641 166.618H275.437L275.063 168.416L275.556 168.376ZM274.465 166.083C274.37 166.086 274.274 166.07 274.185 166.035C274.096 166 274.014 165.948 273.946 165.88C273.877 165.813 273.823 165.733 273.787 165.644C273.75 165.555 273.732 165.46 273.733 165.364C273.728 165.229 273.752 165.095 273.802 164.969C273.851 164.844 273.926 164.73 274.022 164.636C274.118 164.541 274.232 164.467 274.358 164.419C274.484 164.371 274.618 164.35 274.752 164.357H275.859L275.501 166.083H274.465Z" fill="#4B284D"/>
<path d="M283.025 168.376L283.113 167.945C284.498 167.881 285.502 166.994 285.502 165.891C285.502 164.996 284.944 164.421 283.869 164.293L283.973 163.829H283.447L283.352 164.277C281.958 164.341 280.963 165.22 280.963 166.331C280.963 167.217 281.512 167.801 282.555 167.929L282.46 168.376H283.025ZM283.782 164.812C284.578 164.884 284.96 165.308 284.96 165.891C284.96 166.69 284.275 167.345 283.224 167.433L283.782 164.812ZM281.528 166.354C281.528 165.555 282.205 164.9 283.264 164.812L282.707 167.425C281.942 167.353 281.528 166.938 281.528 166.354Z" fill="#4B284D"/>
<path d="M286.64 168.376H287.269L287.842 167.369H289.953L290.12 168.376H290.693L289.897 163.853H289.308L286.64 168.376ZM289.905 166.874H288.113L289.507 164.477L289.905 166.874Z" fill="#4B284D"/>
<path d="M296.084 164.357L296.179 163.853H293.44L292.493 168.376H294.197C294.405 168.39 294.614 168.359 294.81 168.287C295.007 168.214 295.185 168.101 295.335 167.955C295.485 167.809 295.603 167.633 295.681 167.439C295.76 167.244 295.796 167.036 295.789 166.826C295.795 166.67 295.768 166.515 295.711 166.37C295.655 166.225 295.569 166.093 295.459 165.983C295.349 165.873 295.218 165.786 295.073 165.729C294.929 165.672 294.774 165.646 294.619 165.651H293.568L293.838 164.357H296.084ZM294.563 166.155C294.656 166.155 294.747 166.173 294.833 166.209C294.918 166.245 294.996 166.297 295.061 166.364C295.126 166.43 295.178 166.508 295.213 166.594C295.247 166.681 295.265 166.773 295.264 166.866C295.269 167.001 295.247 167.136 295.198 167.262C295.148 167.388 295.073 167.502 294.977 167.597C294.881 167.692 294.766 167.765 294.64 167.813C294.514 167.86 294.379 167.881 294.244 167.873H293.13L293.496 166.155H294.563Z" fill="#4B284D"/>
<path d="M298.425 163.853L297.493 168.376H298.019L298.385 166.578H299.555C299.764 166.592 299.973 166.561 300.169 166.489C300.365 166.416 300.544 166.303 300.694 166.157C300.844 166.011 300.962 165.835 301.04 165.641C301.118 165.446 301.155 165.238 301.148 165.028C301.154 164.872 301.127 164.717 301.07 164.572C301.013 164.427 300.927 164.295 300.818 164.185C300.708 164.075 300.576 163.988 300.432 163.931C300.287 163.874 300.133 163.848 299.977 163.853H298.425ZM300.614 165.092C300.622 165.227 300.6 165.363 300.551 165.489C300.502 165.616 300.427 165.73 300.331 165.826C300.234 165.921 300.119 165.994 299.992 166.041C299.865 166.088 299.73 166.108 299.595 166.099H298.488L298.847 164.381H299.914C300.007 164.38 300.099 164.397 300.185 164.433C300.271 164.468 300.349 164.521 300.415 164.587C300.48 164.654 300.531 164.732 300.566 164.819C300.6 164.906 300.617 164.999 300.614 165.092Z" fill="#4B284D"/>
<path d="M305.973 168.376L306.905 163.853H306.363L303.186 167.473L303.935 163.853H303.409L302.478 168.376H302.987L306.204 164.692L305.44 168.376H305.973Z" fill="#4B284D"/>
<path d="M311.523 163.853L309.206 166.139L309.684 163.853H309.158L308.227 168.376H308.752L309.063 166.858L309.612 166.315L310.814 168.376H311.428L310.01 166.003L312.208 163.853H311.523Z" fill="#4B284D"/>
<path d="M312.861 168.376H313.49L314.063 167.369H316.173L316.34 168.376H316.914L316.117 163.853H315.465L312.861 168.376ZM316.125 166.874H314.334L315.727 164.477L316.125 166.874Z" fill="#4B284D"/>
<path d="M320.106 190.383C319.704 190.028 319.236 189.757 318.729 189.584C318.223 189.411 317.686 189.341 317.152 189.376C316.341 189.425 315.563 189.716 314.918 190.212C314.273 190.709 313.791 191.387 313.534 192.161C313.276 192.935 313.256 193.769 313.476 194.554C313.695 195.339 314.143 196.041 314.764 196.568C315.165 196.924 315.633 197.196 316.14 197.369C316.647 197.542 317.183 197.612 317.718 197.575H317.861C318.65 197.495 319.398 197.185 320.014 196.684C320.63 196.183 321.086 195.512 321.327 194.754C321.568 193.996 321.584 193.184 321.371 192.417C321.158 191.651 320.727 190.963 320.13 190.439L320.106 190.383ZM320.106 195.785C319.807 196.134 319.442 196.419 319.032 196.625C318.622 196.831 318.175 196.953 317.718 196.984C316.81 197.019 315.924 196.702 315.244 196.098C314.564 195.494 314.142 194.65 314.066 193.742C313.991 192.834 314.266 191.932 314.837 191.223C315.407 190.514 316.228 190.053 317.128 189.936H317.176C317.872 189.888 318.566 190.049 319.171 190.398C319.776 190.747 320.263 191.268 320.572 191.896C320.881 192.523 320.997 193.229 320.906 193.923C320.814 194.617 320.519 195.268 320.059 195.793L320.106 195.785Z" fill="#4B284D"/>
<path d="M319.008 193.54C319.188 193.278 319.267 192.96 319.231 192.645C319.226 192.456 319.183 192.271 319.103 192.101C319.024 191.93 318.91 191.778 318.769 191.654C318.617 191.527 318.442 191.433 318.253 191.376C318.064 191.32 317.866 191.303 317.67 191.326L315.624 191.462L315.91 195.857L316.842 195.793L316.738 194.235L317.423 194.187L318.387 195.689L319.454 195.617L318.363 194.019C318.625 193.937 318.853 193.768 319.008 193.54ZM318.124 193.148C318.064 193.21 317.992 193.258 317.912 193.291C317.833 193.324 317.748 193.341 317.662 193.34L316.691 193.412L316.611 192.221L317.59 192.157C317.76 192.142 317.929 192.187 318.068 192.285C318.132 192.336 318.184 192.401 318.221 192.474C318.258 192.547 318.279 192.627 318.283 192.709C318.291 192.789 318.28 192.87 318.253 192.946C318.225 193.023 318.181 193.091 318.124 193.148Z" fill="#4B284D"/>
</g>
<defs>
<clipPath id="clip0_3_1404">
<rect width="158" height="155" fill="white" transform="translate(163.5 70)"/>
</clipPath>
</defs>
</svg>
