<svg width="159" height="68" viewBox="0 0 159 68" fill="none" xmlns="http://www.w3.org/2000/svg">
<g clip-path="url(#clip0_91_11425)">
<path d="M40.5981 38.1042C41.3147 34.4283 40.7042 31.4744 38.7667 29.2422C39.9133 31.2719 40.1999 33.7704 39.6266 36.7377C37.8749 45.7728 32.2348 50.2903 22.7063 50.2903H2.71247L2.44971 51.6568H23.6857C33.2089 51.6408 38.8463 47.1233 40.5981 38.1042Z" fill="white"/>
<path d="M102.912 24.3438L97.7209 49.5552H113.71C116.13 49.5552 117.606 48.3006 118.137 45.7914L118.933 42.0357H110.7L111.241 39.4306H116.966C119.355 39.4306 120.868 38.1681 121.393 35.6429L122.19 31.8552H121.131L120.581 34.4922C120.048 37.0174 118.575 38.28 116.146 38.28H110.421L109.625 42.0357H108.598L109.585 37.2971H115.302C117.728 37.2971 119.206 36.0345 119.737 33.5094L120.533 29.7297H113.232L113.741 27.2685H120.422C122.859 27.2685 124.34 26.0139 124.865 23.5047L125.661 19.741H124.602L124.053 22.354C123.522 24.8632 122.044 26.1178 119.618 26.1178H112.937L112.189 29.7297H111.178L112.133 25.1349H118.814C121.25 25.1349 122.731 23.8803 123.257 21.3711L124.053 17.6074H104.306L103.263 22.6976C103.348 22.2439 103.305 21.7752 103.139 21.3446C102.973 20.9139 102.691 20.5384 102.323 20.2604C102.497 20.9474 102.497 21.667 102.323 22.354C101.792 24.8632 100.272 26.1178 97.7607 26.1178H92.9832L88.8348 46.4707C88.2774 49.2195 86.4407 50.5913 83.3247 50.586H79.6938L79.4629 51.7367H84.105C87.2157 51.7367 89.0524 50.3649 89.6151 47.6213L93.7635 27.2685H98.541C100.826 27.2685 102.252 26.3175 102.912 24.3438Z" fill="white"/>
<path d="M118.949 46.7743C118.418 49.2835 116.945 50.538 114.53 50.538H99.5924L99.3535 51.6887H115.342C117.731 51.6887 119.244 50.4341 119.769 47.925L120.566 44.1613H119.507L118.949 46.7743Z" fill="white"/>
<path d="M143.601 35.6429L152.901 27.1726C154.038 26.3106 154.84 25.0789 155.171 23.6885C155.248 23.1291 155.194 22.5593 155.014 22.0241C154.835 21.4889 154.534 21.0028 154.136 20.604L154.04 20.5081C154.349 21.1393 154.458 21.8507 154.351 22.5458C154.024 23.9337 153.224 25.1634 152.089 26.0219L142.789 34.4922L148.434 43.0186C148.823 43.5031 149.097 44.07 149.235 44.6764C149.373 45.2828 149.371 45.9128 149.231 46.5186C148.79 47.7783 147.952 48.8589 146.842 49.5951C146.33 50.0305 145.737 50.3593 145.097 50.5624C144.457 50.7654 143.784 50.8386 143.115 50.7778C142.211 50.6517 141.385 50.1933 140.798 49.4912L140.966 49.7469C141.256 50.3233 141.679 50.8219 142.199 51.2014C142.72 51.5808 143.323 51.83 143.959 51.9285C144.626 51.9874 145.298 51.9132 145.937 51.7102C146.575 51.5072 147.167 51.1795 147.678 50.7458C148.773 50.0031 149.597 48.9233 150.027 47.6693C150.17 47.0624 150.173 46.4306 150.035 45.8225C149.896 45.2144 149.621 44.6461 149.231 44.1613L143.601 35.6429Z" fill="white"/>
<path d="M126.06 50.538H122.445L122.206 51.6887H126.872C129.993 51.6887 131.851 50.3169 132.446 47.5734L134.038 39.8861L139.325 47.6133C139.616 48.1897 140.039 48.6883 140.559 49.0678C141.08 49.4472 141.683 49.6964 142.319 49.7949C142.986 49.8551 143.659 49.7816 144.297 49.5785C144.935 49.3755 145.527 49.047 146.038 48.6122C147.147 47.876 147.986 46.7954 148.427 45.5357C148.569 44.93 148.571 44.2997 148.433 43.693C148.295 43.0863 148.02 42.5193 147.63 42.0357L141.969 33.5094L151.269 25.039C152.403 24.1786 153.205 22.9501 153.538 21.5629C153.615 21.0023 153.562 20.4313 153.382 19.8948C153.203 19.3583 152.902 18.8708 152.503 18.4705C152.113 18.0232 151.616 17.6818 151.06 17.4779C150.503 17.274 149.904 17.2141 149.318 17.3038C147.784 17.5704 146.383 18.3439 145.337 19.5013L136.73 27.2125L138.322 19.741H137.263L135.432 28.3792L134.158 29.5139L136.658 17.6074H127.262L120.55 49.5711H125.216C128.327 49.5711 130.184 48.1993 130.79 45.4558L132.454 37.5767L133.25 38.7194L131.61 46.4387C131.021 49.1769 129.171 50.5433 126.06 50.538Z" fill="white"/>
<path d="M21.735 49.0917C31.2582 49.0917 36.8956 44.5795 38.6474 35.555C39.4065 31.6821 38.6845 28.6083 36.4816 26.3335C39.9771 24.4237 42.1748 21.2833 43.0268 16.8643C43.6877 13.4442 43.1701 10.8471 41.49 9.03316C42.3659 10.7113 42.557 12.8608 42.0474 15.4898C41.1635 20.0686 38.8624 23.281 35.1359 25.1748C34.6683 24.8346 34.1759 24.5301 33.6629 24.2639C37.676 22.4366 40.1576 19.1257 41.1078 14.3311C42.5092 7.07538 38.6421 3.44484 29.5064 3.43951H9.10649L7.99174 9.32882L1.62174 43.2183L0.499023 49.0917H21.735ZM25.4137 34.8119C24.7873 38.1042 22.8737 39.7503 19.6727 39.7503H18.0802L19.4737 32.4226H23.3992C24.1311 32.4082 24.8596 32.5273 25.5491 32.7742C25.6068 33.4564 25.5611 34.1434 25.4137 34.8119ZM27.8821 17.0241C27.3167 19.9568 25.6207 21.4191 22.7702 21.4191H21.5599L22.7463 15.1782H26.2737C26.8527 15.1685 27.4298 15.2466 27.9856 15.4099C28.0228 15.9502 27.988 16.493 27.8821 17.0241ZM20.7955 12.6291H24.3149C26.1861 12.6291 27.3406 13.2204 27.7945 14.4031C27.0359 13.9661 26.1678 13.758 25.2943 13.8037H21.7669L20.3177 21.4191H19.1154L20.7955 12.6291ZM17.5069 29.8735H21.4245C23.4629 29.8735 24.7475 30.5048 25.2783 31.7674C24.4139 31.2441 23.4116 30.9961 22.4039 31.0562H18.4863L16.8222 39.7503H15.6278L17.5069 29.8735Z" fill="white"/>
<path d="M59.7004 45.4398C59.1509 48.1887 60.4409 49.5551 63.5462 49.5551H68.2202L74.5902 17.5914H69.8924C69.0127 17.537 68.1323 17.6834 67.3172 18.0198C66.5021 18.3561 65.7736 18.8736 65.1865 19.5332L54.9786 29.418L56.0695 23.8243C56.38 22.2661 56.0695 21.1474 55.2095 20.4761C55.4127 21.1952 55.4292 21.9544 55.2573 22.6816L53.6648 30.6246L52.4147 31.8233L54.4053 21.6908C54.9361 18.9472 53.6382 17.5754 50.5116 17.5754H45.8854L40.4789 45.4078C39.948 48.1567 41.238 49.5285 44.3486 49.5232C45.1724 49.5356 45.9904 49.3829 46.7547 49.0742C47.5189 48.7655 48.2142 48.3069 48.7997 47.7252L61.7149 35.2673L61.2769 37.4569L49.58 48.74C48.993 49.3219 48.2964 49.7807 47.5308 50.0894C46.7652 50.3981 45.946 50.5506 45.121 50.538C44.0652 50.6139 43.013 50.3478 42.1191 49.7789C42.5491 51.0494 43.8152 51.6887 45.9411 51.6887C46.765 51.702 47.5833 51.5498 48.3477 51.241C49.1121 50.9322 49.8072 50.4731 50.3922 49.8907L60.8071 39.8461L59.7004 45.4398Z" fill="white"/>
<path d="M82.513 49.6031C85.629 49.6031 87.4657 48.2313 88.0231 45.4878L92.1715 25.1349H96.949C99.4705 25.1349 100.991 23.8803 101.512 21.3711C102.032 18.862 101.023 17.6074 98.4858 17.6074H75.7528L75.3468 19.757H75.2194L69.0564 50.538H64.3665C63.3128 50.618 62.2619 50.3515 61.3726 49.7789C61.7972 51.0468 63.0686 51.6834 65.1866 51.6887H69.8526L75.3468 24.152C75.6861 24.513 76.1045 24.7898 76.5688 24.9604C77.0332 25.131 77.5308 25.1907 78.0222 25.1349H82.7997L82.6006 26.1178H78.8503C78.0821 26.1614 77.318 25.9781 76.6526 25.5903C76.995 26.7011 77.9903 27.2684 79.6704 27.2684H82.3458L77.8311 49.6031H82.513Z" fill="white"/>
<path d="M17.73 61.3178H16.8302L13.8284 64.0986L14.4415 61.3178H13.7647L12.5464 66.8315H13.2312L13.6373 64.9776L14.3539 64.3144L15.9225 66.8315H16.7187L14.8635 63.9388L17.73 61.3178Z" fill="white"/>
<path d="M20.6762 61.3178L17.2603 66.8315H18.0565L18.805 65.6089H21.552L21.767 66.8315H22.5155L21.5122 61.3178H20.6762ZM19.1713 64.9936L20.9787 62.029L21.4963 64.9936H19.1713Z" fill="white"/>
<path d="M27.285 63.8749C26.864 64.0018 26.4267 64.0664 25.9871 64.0667C25.1431 64.0667 24.7927 63.6351 24.9679 62.7961L25.2944 61.3577H24.6096L24.2911 62.7881C24.0363 63.9228 24.4902 64.682 25.788 64.682C26.2506 64.6743 26.7106 64.6099 27.1576 64.4902L26.6321 66.8875H27.3168L28.5192 61.3737H27.8344L27.285 63.8749Z" fill="white"/>
<path d="M28.9253 66.8315H32.5323L32.6597 66.2162H29.7375L30.1515 64.3144H33.026L33.1534 63.7071H30.2948L30.693 61.9251H33.6072L33.7426 61.3178H30.1436L28.9253 66.8315Z" fill="white"/>
<path d="M37.3258 61.2219C36.9075 61.2343 36.4957 61.3293 36.114 61.5015C35.7323 61.6737 35.3881 61.9197 35.1012 62.2255C34.8143 62.5312 34.5902 62.8908 34.4418 63.2835C34.2934 63.6762 34.2236 64.0944 34.2363 64.5142C34.2357 64.8422 34.3021 65.1668 34.4315 65.468C34.5609 65.7693 34.7505 66.0406 34.9886 66.2653C35.2267 66.49 35.5082 66.6633 35.8157 66.7745C36.1232 66.8856 36.4502 66.9322 36.7764 66.9114C37.1525 66.9145 37.5253 66.8402 37.8718 66.6932C38.2183 66.5461 38.5311 66.3294 38.7909 66.0564L38.2893 65.6728C37.8967 66.0645 37.3696 66.2903 36.8162 66.3041C36.5701 66.3216 36.3232 66.2862 36.0918 66.2003C35.8605 66.1145 35.65 65.9801 35.4744 65.8062C35.2989 65.6323 35.1623 65.4228 35.0737 65.1918C34.9852 64.9607 34.9467 64.7134 34.9609 64.4662C34.9394 64.1391 34.9825 63.8109 35.0879 63.5006C35.1932 63.1902 35.3587 62.9039 35.5748 62.658C35.791 62.4122 36.0534 62.2116 36.3471 62.068C36.6408 61.9244 36.9599 61.8405 37.286 61.8212C37.6132 61.8109 37.9365 61.894 38.2185 62.0609C38.5004 62.2279 38.7293 62.4717 38.8785 62.7641L39.5234 62.5084C39.3197 62.1042 39.0039 61.7677 38.614 61.5394C38.2241 61.3111 37.7767 61.2009 37.3258 61.2219Z" fill="white"/>
<path d="M40.5347 61.9251H42.2705L41.1956 66.8315H41.8803L42.9553 61.9251H44.6991L44.8344 61.3178H40.6621L40.5347 61.9251Z" fill="white"/>
<path d="M48.3456 61.3178H46.0604L44.8501 66.8315H47.3981C47.6279 66.8605 47.8611 66.8412 48.0831 66.775C48.305 66.7087 48.5109 66.597 48.6875 66.4467C48.8642 66.2965 49.0078 66.111 49.1093 65.9022C49.2108 65.6933 49.268 65.4655 49.2772 65.2333C49.2831 64.9835 49.2089 64.7385 49.0655 64.5342C48.9222 64.33 48.7173 64.1773 48.481 64.0986C48.8355 64.0484 49.16 63.871 49.3942 63.5992C49.6284 63.3274 49.7566 62.9796 49.755 62.6203C49.7569 62.439 49.7208 62.2594 49.6492 62.093C49.5775 61.9267 49.4718 61.7773 49.339 61.6545C49.2061 61.5317 49.049 61.4383 48.8779 61.3803C48.7068 61.3223 48.5255 61.301 48.3456 61.3178ZM48.5765 65.1454C48.5739 65.2963 48.5403 65.4451 48.4776 65.5823C48.415 65.7195 48.3248 65.8423 48.2126 65.9428C48.1004 66.0434 47.9688 66.1196 47.8259 66.1666C47.683 66.2137 47.5319 66.2305 47.3822 66.2162H45.6623L46.0763 64.3144H47.6688C47.7851 64.2977 47.9036 64.3071 48.0158 64.3418C48.128 64.3765 48.2312 64.4357 48.3179 64.5151C48.4047 64.5945 48.4729 64.6922 48.5176 64.8012C48.5623 64.9102 48.5824 65.0277 48.5765 65.1454ZM47.9236 63.707H46.2196L46.6178 61.9251H48.1705C48.2751 61.9197 48.3797 61.9351 48.4783 61.9703C48.577 62.0056 48.6678 62.06 48.7454 62.1306C48.8231 62.2011 48.8861 62.2863 48.9309 62.3813C48.9757 62.4763 49.0014 62.5792 49.0065 62.6842C49.0145 62.8262 48.9913 62.9682 48.9388 63.1002C48.8863 63.2323 48.8056 63.3512 48.7024 63.4487C48.5992 63.5462 48.476 63.6198 48.3415 63.6644C48.207 63.709 48.0644 63.7236 47.9236 63.707Z" fill="white"/>
<path d="M53.7441 61.2219C52.9007 61.249 52.1024 61.611 51.5247 62.2282C50.9469 62.8455 50.6369 63.6677 50.6626 64.5142C50.662 64.8422 50.7284 65.1668 50.8578 65.468C50.9872 65.7692 51.1768 66.0406 51.4149 66.2653C51.653 66.49 51.9345 66.6633 52.242 66.7744C52.5495 66.8856 52.8765 66.9322 53.2027 66.9114C53.621 66.899 54.0328 66.804 54.4145 66.6318C54.7962 66.4596 55.1403 66.2136 55.4272 65.9078C55.7142 65.6021 55.9382 65.2426 56.0866 64.8499C56.235 64.4572 56.3049 64.039 56.2921 63.6192C56.2928 63.2904 56.2262 62.9651 56.0963 62.6633C55.9664 62.3615 55.7761 62.0898 55.5371 61.8649C55.2982 61.6401 55.0157 61.467 54.7072 61.3564C54.3988 61.2458 54.0709 61.2 53.7441 61.2219ZM53.2345 66.3201C52.9888 66.3362 52.7424 66.3 52.5116 66.2136C52.2808 66.1273 52.0709 65.9929 51.8956 65.8193C51.7203 65.6456 51.5837 65.4367 51.4947 65.2062C51.4057 64.9758 51.3663 64.729 51.3792 64.4822C51.3566 64.1548 51.399 63.8262 51.5039 63.5154C51.6089 63.2046 51.7743 62.9179 51.9906 62.6718C52.207 62.4257 52.4698 62.2252 52.764 62.0819C53.0582 61.9386 53.3778 61.8555 53.7043 61.8372C53.9498 61.8223 54.1956 61.8595 54.4258 61.9463C54.656 62.0331 54.8654 62.1675 55.0404 62.3409C55.2154 62.5142 55.3521 62.7226 55.4415 62.9525C55.531 63.1824 55.5712 63.4286 55.5596 63.6751C55.5801 64.002 55.5362 64.3298 55.4304 64.6397C55.3247 64.9495 55.1591 65.2355 54.9432 65.4811C54.7272 65.7267 54.4652 65.9273 54.172 66.0712C53.8788 66.2152 53.5603 66.2997 53.2345 66.3201Z" fill="white"/>
<path d="M60.3532 65.7288L61.3326 61.3178H60.6478L59.4375 66.8315H60.0904L64.2867 62.3326L63.2913 66.8315H63.9841L65.1944 61.3178H64.4937L60.3532 65.7288Z" fill="white"/>
<path d="M71.5327 61.3178H69.2474L68.0371 66.8315H70.5692C70.799 66.8605 71.0322 66.8412 71.2542 66.775C71.4761 66.7088 71.682 66.597 71.8586 66.4467C72.0353 66.2965 72.1789 66.111 72.2804 65.9022C72.3819 65.6933 72.4391 65.4655 72.4483 65.2333C72.4542 64.9836 72.38 64.7385 72.2366 64.5342C72.0933 64.33 71.8884 64.1773 71.6521 64.0986C72.0066 64.0484 72.3311 63.871 72.5653 63.5992C72.7995 63.3274 72.9277 62.9796 72.9261 62.6203C72.9278 62.4405 72.8921 62.2624 72.8214 62.0972C72.7507 61.932 72.6465 61.7834 72.5154 61.6609C72.3843 61.5383 72.2292 61.4445 72.06 61.3855C71.8908 61.3264 71.7112 61.3033 71.5327 61.3178ZM71.7636 65.1454C71.761 65.2963 71.7273 65.4451 71.6646 65.5823C71.602 65.7195 71.5118 65.8423 71.3996 65.9428C71.2875 66.0434 71.1558 66.1196 71.0129 66.1666C70.87 66.2137 70.7189 66.2306 70.5692 66.2162H68.8493L69.2633 64.3144H70.8558C70.9721 64.2977 71.0906 64.3071 71.2028 64.3418C71.315 64.3765 71.4182 64.4357 71.505 64.5151C71.5917 64.5945 71.6599 64.6922 71.7046 64.8012C71.7493 64.9102 71.7694 65.0277 71.7636 65.1454ZM71.1106 63.7071H69.4067L69.8048 61.9251H71.3654C71.47 61.9197 71.5747 61.9351 71.6733 61.9703C71.772 62.0056 71.8628 62.0601 71.9404 62.1306C72.0181 62.2011 72.0811 62.2863 72.1259 62.3813C72.1707 62.4763 72.1964 62.5792 72.2015 62.6842C72.2096 62.827 72.1864 62.9697 72.1334 63.1024C72.0804 63.2351 71.9989 63.3545 71.8948 63.4521C71.7908 63.5497 71.6666 63.6232 71.531 63.6672C71.3955 63.7113 71.252 63.7249 71.1106 63.7071Z" fill="white"/>
<path d="M78.7305 61.3178H77.8307L74.8209 64.0986L75.442 61.3178H74.7572L73.5469 66.8315H74.2317L74.6298 64.9776L75.3464 64.3144L76.915 66.8315H77.7113L75.864 63.9388L78.7305 61.3178Z" fill="white"/>
<path d="M81.1673 64.7379L80.1879 61.3178H79.4553L80.6736 65.3132L80.4825 65.561C80.0684 66.1123 79.8534 66.3601 79.4474 66.3601C79.3147 66.3576 79.1848 66.322 79.0694 66.2564C78.954 66.1909 78.8567 66.0974 78.7865 65.9845L78.3804 66.5359C78.4932 66.6838 78.6414 66.8008 78.8111 66.8762C78.9809 66.9516 79.1668 66.983 79.3518 66.9674C79.707 66.9521 80.0524 66.8457 80.3549 66.6582C80.6574 66.4707 80.907 66.2085 81.0797 65.8966L84.4637 61.3577H83.6675L81.1673 64.7379Z" fill="white"/>
<path d="M87.6886 61.2219C87.2703 61.2343 86.8585 61.3293 86.4768 61.5015C86.0951 61.6737 85.7509 61.9197 85.464 62.2255C85.1771 62.5312 84.953 62.8908 84.8046 63.2835C84.6562 63.6762 84.5864 64.0944 84.5991 64.5142C84.5985 64.8422 84.6649 65.1668 84.7943 65.468C84.9237 65.7693 85.1133 66.0406 85.3514 66.2653C85.5895 66.49 85.871 66.6633 86.1785 66.7745C86.486 66.8856 86.813 66.9322 87.1392 66.9114C87.5154 66.915 87.8884 66.8409 88.2349 66.6938C88.5814 66.5467 88.8941 66.3298 89.1537 66.0564L88.6521 65.6728C88.2595 66.0645 87.7324 66.2903 87.179 66.3041C86.9329 66.3216 86.686 66.2862 86.4546 66.2003C86.2233 66.1145 86.0128 65.9801 85.8372 65.8062C85.6617 65.6323 85.5251 65.4228 85.4365 65.1918C85.348 64.9607 85.3095 64.7134 85.3237 64.4662C85.3021 64.1391 85.3453 63.8109 85.4506 63.5006C85.556 63.1902 85.7215 62.9039 85.9376 62.658C86.1538 62.4122 86.4162 62.2116 86.7099 62.068C87.0036 61.9244 87.3227 61.8405 87.6488 61.8212C87.976 61.8109 88.2993 61.894 88.5813 62.0609C88.8632 62.2279 89.0921 62.4717 89.2413 62.7641L89.8862 62.5084C89.6825 62.1042 89.3667 61.7677 88.9768 61.5394C88.5869 61.3111 88.1395 61.2009 87.6886 61.2219Z" fill="white"/>
<path d="M98.4777 61.2219C98.0593 61.2343 97.6476 61.3293 97.2658 61.5015C96.8841 61.6737 96.54 61.9197 96.2531 62.2255C95.9661 62.5312 95.7421 62.8908 95.5937 63.2835C95.4453 63.6762 95.3755 64.0944 95.3882 64.5142C95.3875 64.8422 95.454 65.1668 95.5834 65.468C95.7128 65.7693 95.9024 66.0406 96.1405 66.2653C96.3786 66.49 96.6601 66.6633 96.9676 66.7745C97.2751 66.8856 97.6021 66.9322 97.9282 66.9114C98.3045 66.915 98.6774 66.8409 99.024 66.6938C99.3705 66.5467 99.6832 66.3298 99.9428 66.0564L99.4411 65.6728C99.0485 66.0645 98.5214 66.2903 97.9681 66.3041C97.722 66.3216 97.4751 66.2862 97.2437 66.2003C97.0123 66.1145 96.8019 65.9801 96.6263 65.8062C96.4507 65.6323 96.3141 65.4228 96.2256 65.1918C96.1371 64.9607 96.0986 64.7134 96.1128 64.4662C96.0912 64.1391 96.1343 63.8109 96.2397 63.5006C96.3451 63.1902 96.5106 62.9039 96.7267 62.658C96.9428 62.4122 97.2053 62.2116 97.499 62.068C97.7926 61.9244 98.1117 61.8405 98.4378 61.8212C98.765 61.8109 99.0884 61.894 99.3703 62.0609C99.6523 62.2279 99.8812 62.4717 100.03 62.7641L100.675 62.5084C100.472 62.1042 100.156 61.7677 99.7658 61.5394C99.3759 61.3111 98.9286 61.2009 98.4777 61.2219Z" fill="white"/>
<path d="M103.86 62.7402L104.187 63.1637L105.27 62.2287L104.258 66.8315H104.943L106.154 61.3178H105.548L103.86 62.7402Z" fill="white"/>
<path d="M109.211 61.2219C108.652 61.2197 108.115 61.4395 107.717 61.8331C107.319 62.2268 107.092 62.7625 107.085 63.3235C107.089 63.5328 107.137 63.739 107.225 63.9286C107.314 64.1182 107.441 64.287 107.599 64.4242C107.756 64.5613 107.941 64.6636 108.141 64.7245C108.34 64.7855 108.55 64.8036 108.757 64.7779C109.358 64.7506 109.927 64.4966 110.35 64.0667C110.339 64.1274 110.32 64.1865 110.294 64.2425C110.063 65.2174 109.498 66.3121 108.431 66.3121C108.181 66.3286 107.932 66.2735 107.712 66.1533C107.492 66.033 107.31 65.8526 107.189 65.6329L106.735 66.0964C106.916 66.3624 107.164 66.5761 107.453 66.7163C107.742 66.8565 108.063 66.9182 108.383 66.8954C110.238 66.8954 111.098 64.7858 111.098 63.2356C111.132 62.9735 111.107 62.7071 111.026 62.4558C110.945 62.2044 110.809 61.9741 110.628 61.7816C110.448 61.5891 110.227 61.4391 109.982 61.3423C109.737 61.2455 109.474 61.2044 109.211 61.2219ZM110.414 63.5313C110.24 63.7347 110.027 63.9001 109.788 64.0169C109.548 64.1338 109.286 64.1997 109.02 64.2105C108.303 64.2105 107.794 63.8349 107.794 63.2356C107.796 62.864 107.945 62.5083 108.207 62.2463C108.47 61.9843 108.825 61.8372 109.195 61.8372C109.365 61.8294 109.534 61.8584 109.691 61.9221C109.848 61.9858 109.989 62.0828 110.106 62.2064C110.222 62.33 110.311 62.4774 110.365 62.6385C110.42 62.7995 110.439 62.9705 110.422 63.1397C110.422 63.2356 110.421 63.4594 110.382 63.5313H110.414Z" fill="white"/>
<path d="M114.403 61.2219C113.844 61.2197 113.306 61.4395 112.908 61.8331C112.51 62.2268 112.283 62.7625 112.277 63.3235C112.281 63.5328 112.328 63.739 112.417 63.9286C112.505 64.1182 112.632 64.287 112.79 64.4242C112.948 64.5613 113.132 64.6636 113.332 64.7245C113.532 64.7855 113.742 64.8036 113.949 64.7779C114.551 64.7562 115.122 64.5013 115.541 64.0667C115.53 64.1264 115.514 64.1852 115.493 64.2425C115.255 65.2174 114.697 66.3121 113.622 66.3121C113.374 66.328 113.125 66.2726 112.907 66.1524C112.688 66.0321 112.508 65.8519 112.388 65.6329L111.926 66.0964C112.109 66.363 112.358 66.5771 112.648 66.7172C112.939 66.8574 113.261 66.9189 113.582 66.8955C115.43 66.8955 116.29 64.7858 116.29 63.2356C116.323 62.9735 116.298 62.7071 116.217 62.4558C116.136 62.2044 116 61.9741 115.82 61.7816C115.639 61.5891 115.419 61.4391 115.174 61.3423C114.929 61.2455 114.665 61.2044 114.403 61.2219ZM115.605 63.5313C115.433 63.7362 115.22 63.9026 114.98 64.0196C114.74 64.1366 114.478 64.2017 114.212 64.2105C113.495 64.2105 112.985 63.8349 112.985 63.2356C112.987 62.864 113.136 62.5083 113.399 62.2463C113.661 61.9843 114.016 61.8372 114.387 61.8372C114.556 61.8294 114.725 61.8584 114.882 61.9221C115.039 61.9858 115.181 62.0828 115.297 62.2064C115.414 62.33 115.502 62.4774 115.557 62.6385C115.611 62.7995 115.63 62.9705 115.613 63.1397C115.613 63.2356 115.613 63.4594 115.605 63.5313Z" fill="white"/>
<path d="M117.365 62.7402L117.683 63.1637L118.774 62.2287L117.763 66.8315H118.44L119.658 61.3178H119.053L117.365 62.7402Z" fill="white"/>
<path d="M122.5 66.8315H123.185L124.26 61.9251H127.174L127.31 61.3178H123.711L122.5 66.8315Z" fill="white"/>
<path d="M130.742 61.2219C130.323 61.2343 129.912 61.3293 129.53 61.5015C129.148 61.6737 128.804 61.9197 128.517 62.2255C128.23 62.5312 128.006 62.8907 127.858 63.2834C127.709 63.6761 127.64 64.0944 127.652 64.5142C127.652 64.8422 127.718 65.1668 127.848 65.468C127.977 65.7692 128.167 66.0406 128.405 66.2653C128.643 66.49 128.924 66.6633 129.232 66.7744C129.539 66.8856 129.866 66.9322 130.192 66.9114C131.036 66.8843 131.834 66.5224 132.412 65.9051C132.99 65.2878 133.3 64.4657 133.274 63.6192C133.274 63.2919 133.208 62.9679 133.079 62.6673C132.95 62.3666 132.762 62.0957 132.524 61.8711C132.287 61.6465 132.007 61.473 131.7 61.3614C131.393 61.2497 131.067 61.2022 130.742 61.2219ZM130.232 66.3201C129.986 66.3375 129.739 66.3022 129.508 66.2163C129.276 66.1304 129.066 65.9961 128.89 65.8222C128.715 65.6483 128.578 65.4388 128.49 65.2077C128.401 64.9767 128.363 64.7293 128.377 64.4822C128.354 64.1548 128.397 63.8262 128.502 63.5154C128.607 63.2046 128.772 62.9178 128.988 62.6718C129.205 62.4257 129.468 62.2252 129.762 62.0819C130.056 61.9386 130.376 61.8554 130.702 61.8372C130.947 61.8222 131.193 61.8594 131.422 61.9462C131.652 62.0331 131.861 62.1677 132.036 62.3412C132.21 62.5147 132.346 62.7232 132.434 62.9531C132.523 63.1829 132.562 63.429 132.549 63.6751C132.571 64.0016 132.528 64.3292 132.423 64.639C132.318 64.9488 132.153 65.2349 131.938 65.4806C131.723 65.7264 131.461 65.927 131.169 66.0711C130.876 66.2152 130.558 66.2998 130.232 66.3201Z" fill="white"/>
<path d="M139.763 61.3178H136.403L135.456 64.0826C134.811 65.9525 134.373 66.2082 133.72 66.2801L133.377 67.8783H134.054L134.277 66.8635H138.37L138.147 67.8783H138.832L139.19 66.2801H138.696L139.763 61.3178ZM138.012 66.2162H134.827C135.479 65.6881 135.939 64.9572 136.132 64.1386L136.889 61.9251H138.959L138.012 66.2162Z" fill="white"/>
<path d="M143.115 61.3178L139.691 66.8315H140.488L141.236 65.6089H143.975L144.19 66.8315H144.939L143.935 61.3178H143.115ZM141.602 64.9936L143.418 62.029L143.935 64.9936H141.602Z" fill="white"/>
<path d="M53.6489 6.69983L51.3397 8.98523L51.8175 6.69983H51.292L50.3604 11.2227H50.8859L51.1964 9.70442L51.7458 9.16103L52.9482 11.2227H53.5613L52.136 8.84939L54.3416 6.69983H53.6489Z" fill="white"/>
<path d="M55.663 9.32881C55.6483 9.58984 55.6883 9.85107 55.7804 10.0956C55.8725 10.3402 56.0147 10.5626 56.1977 10.7486C56.3808 10.9346 56.6007 11.08 56.8433 11.1754C57.0858 11.2709 57.3456 11.3142 57.6059 11.3026C57.94 11.2843 58.2672 11.1997 58.5685 11.0537C58.8699 10.9077 59.1394 10.7032 59.3615 10.4521C59.5837 10.2009 59.754 9.90806 59.8626 9.59045C59.9713 9.27284 60.0162 8.93676 59.9946 8.60164C60.0094 8.33991 59.9693 8.07798 59.8767 7.83284C59.7841 7.58771 59.6412 7.36485 59.4572 7.17873C59.2733 6.99261 59.0524 6.84739 58.8089 6.75249C58.5654 6.65759 58.3047 6.61514 58.0438 6.62788C57.71 6.64616 57.3832 6.7308 57.0822 6.87689C56.7813 7.02297 56.5123 7.22759 56.2908 7.47886C56.0693 7.73014 55.8997 8.02306 55.792 8.34064C55.6842 8.65821 55.6404 8.9941 55.663 9.32881ZM59.4293 8.63361C59.4534 8.89387 59.4262 9.15634 59.3492 9.40605C59.2722 9.65575 59.1469 9.88778 58.9806 10.0889C58.8142 10.29 58.61 10.4562 58.3796 10.5781C58.1492 10.7 57.8971 10.7751 57.6377 10.7991C57.4443 10.8032 57.2522 10.7664 57.074 10.6911C56.8957 10.6157 56.7352 10.5035 56.603 10.3618C56.4708 10.2201 56.3698 10.052 56.3066 9.86852C56.2435 9.68503 56.2195 9.49025 56.2363 9.29685C56.211 9.03867 56.2367 8.77802 56.3119 8.52981C56.3871 8.2816 56.5103 8.0507 56.6745 7.85032C56.8387 7.64993 57.0406 7.48399 57.2687 7.36199C57.4968 7.23999 57.7467 7.16432 58.004 7.1393C58.1973 7.13552 58.3893 7.17215 58.5677 7.24686C58.7462 7.32158 58.9072 7.43275 59.0405 7.57329C59.1738 7.71384 59.2765 7.8807 59.3421 8.06324C59.4076 8.24578 59.4346 8.44003 59.4213 8.63361H59.4293Z" fill="white"/>
<path d="M65.059 11.2227L65.9906 6.69983H65.4651L65.0669 8.64962H62.5986L62.9967 6.69983H62.4712L61.5396 11.2227H62.0651L62.495 9.15304H64.9634L64.5334 11.2227H65.059Z" fill="white"/>
<path d="M69.1755 6.69983L68.4509 8.96926C67.9572 10.5035 67.6547 10.7113 67.1132 10.7672L66.8584 12.0538H67.3839L67.5511 11.2547H70.7361L70.5689 12.0538H71.0945L71.3652 10.7193H70.983L71.7792 6.72381L69.1755 6.69983ZM70.4097 10.6953H67.9652C68.4736 10.2565 68.8281 9.66545 68.9764 9.00921L69.5577 7.20326H71.1502L70.4097 10.6953Z" fill="white"/>
<path d="M74.0887 6.69983L73.165 11.2227H73.6667L76.8915 7.53888L76.1271 11.2227H76.6526L77.5842 6.69983H77.0507L73.8737 10.3197L74.6142 6.69983H74.0887Z" fill="white"/>
<path d="M80.4824 11.2227L81.3105 7.20326H82.6562L82.7517 6.69983H79.5508L79.4473 7.20326H80.785L79.9569 11.2227H80.4824Z" fill="white"/>
<path d="M87.3857 7.20326L87.4812 6.69983H84.7182L83.7866 11.2227H86.5576L86.6531 10.7193H84.4077L84.7262 9.16103H86.9318L87.0353 8.65761H84.8377L85.1403 7.20326H87.3857Z" fill="white"/>
<path d="M90.7143 9.42473C90.9228 9.43824 91.1319 9.40777 91.328 9.33529C91.5241 9.26281 91.7029 9.14992 91.8529 9.00389C92.0029 8.85786 92.1208 8.68193 92.199 8.48741C92.2771 8.2929 92.3139 8.08411 92.3068 7.87449C92.3123 7.71873 92.2859 7.56349 92.229 7.41844C92.1721 7.2734 92.0861 7.14166 91.9763 7.03145C91.8665 6.92124 91.7352 6.83491 91.5907 6.77786C91.4462 6.7208 91.2915 6.69424 91.1363 6.69983H89.5438L88.6201 11.2227H89.1456L89.5119 9.42473H90.7143ZM90.0136 7.20326H91.0726C91.1659 7.20219 91.2586 7.21985 91.345 7.25521C91.4315 7.29057 91.51 7.34292 91.576 7.40918C91.6421 7.47543 91.6942 7.55425 91.7295 7.64102C91.7647 7.72779 91.7823 7.82076 91.7812 7.91445C91.787 8.04959 91.7645 8.18445 91.7151 8.31032C91.6657 8.43618 91.5906 8.55024 91.4945 8.64514C91.3985 8.74003 91.2837 8.81364 91.1575 8.86121C91.0313 8.90878 90.8966 8.92926 90.762 8.92131H89.6791L90.0136 7.20326Z" fill="white"/>
<path d="M96.2084 7.13932C96.4741 7.12914 96.7365 7.20008 96.9611 7.34275C97.1858 7.48542 97.362 7.69312 97.4665 7.93841L97.9602 7.73064C97.815 7.3991 97.5727 7.11979 97.2655 6.92992C96.9582 6.74005 96.6006 6.64864 96.2403 6.66785C95.9054 6.68404 95.5772 6.76722 95.2748 6.9125C94.9725 7.05778 94.7021 7.26223 94.4795 7.51384C94.257 7.76545 94.0868 8.05915 93.979 8.3777C93.8711 8.69624 93.8278 9.0332 93.8515 9.36878C93.838 9.63021 93.879 9.89159 93.972 10.1362C94.065 10.3807 94.208 10.6031 94.3917 10.7889C94.5754 10.9748 94.7958 11.12 95.0387 11.2154C95.2816 11.3107 95.5417 11.354 95.8023 11.3425C96.103 11.35 96.4015 11.2908 96.6768 11.1692C96.952 11.0477 97.1972 10.8668 97.3948 10.6393L97.0047 10.3277C96.8599 10.4845 96.6852 10.6106 96.491 10.6984C96.2968 10.7862 96.087 10.8341 95.874 10.8391C95.6756 10.8462 95.478 10.8102 95.2947 10.7335C95.1114 10.6568 94.9469 10.5413 94.8122 10.3948C94.6776 10.2483 94.5762 10.0744 94.5148 9.88487C94.4534 9.69536 94.4336 9.49477 94.4567 9.29686C94.4076 8.77837 94.5638 8.26133 94.8917 7.85757C95.2195 7.4538 95.6925 7.19578 96.2084 7.13932Z" fill="white"/>
<path d="M102.475 6.69983L100.166 8.98523L100.644 6.69983H100.118L99.1865 11.2227H99.712L100.023 9.70442L100.572 9.16103L101.774 11.2227H102.387L100.962 8.84939L103.168 6.69983H102.475Z" fill="white"/>
<path d="M103.82 11.2227H104.449L105.023 10.2158H107.133L107.3 11.2227H107.873L107.077 6.69983H106.424L103.82 11.2227ZM107.085 9.7204H105.293L106.687 7.32313L107.085 9.7204Z" fill="white"/>
<path d="M112.555 11.2227L113.487 6.69982H111.799C111.587 6.68829 111.375 6.72173 111.176 6.79797C110.978 6.8742 110.798 6.99153 110.647 7.1423C110.497 7.29307 110.38 7.4739 110.304 7.67303C110.228 7.87215 110.195 8.0851 110.206 8.29801C110.201 8.55243 110.28 8.80143 110.432 9.00553C110.583 9.20964 110.798 9.35717 111.042 9.42473L109.514 11.2626H110.19L111.64 9.46469H112.436L112.062 11.2626L112.555 11.2227ZM111.464 8.92929C111.369 8.93254 111.273 8.91627 111.184 8.88149C111.095 8.8467 111.013 8.79411 110.945 8.72689C110.877 8.65967 110.822 8.57922 110.786 8.4904C110.749 8.40158 110.731 8.30622 110.732 8.21011C110.727 8.07528 110.751 7.94097 110.801 7.81568C110.85 7.69038 110.926 7.57682 111.021 7.48218C111.117 7.38754 111.231 7.31389 111.357 7.26588C111.483 7.21787 111.617 7.19654 111.751 7.20326H112.858L112.5 8.92929H111.464Z" fill="white"/>
<path d="M120.024 11.2227L120.112 10.7912C121.497 10.7272 122.501 9.84024 122.501 8.7375C122.501 7.84252 121.943 7.26717 120.868 7.13932L120.972 6.67584H120.446L120.351 7.12334C118.957 7.18726 117.962 8.06626 117.962 9.177C117.962 10.064 118.511 10.6473 119.554 10.7752L119.459 11.2227H120.024ZM120.781 7.65873C121.577 7.73064 121.959 8.15416 121.959 8.7375C121.959 9.53659 121.274 10.1918 120.223 10.2797L120.781 7.65873ZM118.527 9.20097C118.527 8.40188 119.204 7.74663 120.263 7.65873L119.706 10.2718C118.941 10.1998 118.527 9.78431 118.527 9.20097Z" fill="white"/>
<path d="M123.639 11.2227H124.268L124.842 10.2158H126.952L127.119 11.2227H127.692L126.896 6.69983H126.307L123.639 11.2227ZM126.904 9.7204H125.112L126.506 7.32313L126.904 9.7204Z" fill="white"/>
<path d="M133.083 7.20326L133.178 6.69983H130.439L129.492 11.2227H131.196C131.404 11.2362 131.613 11.2057 131.809 11.1333C132.006 11.0608 132.184 10.9479 132.334 10.8019C132.484 10.6558 132.602 10.4799 132.68 10.2854C132.759 10.0909 132.795 9.88207 132.788 9.67245C132.794 9.51669 132.767 9.36145 132.71 9.2164C132.654 9.07136 132.568 8.93962 132.458 8.82941C132.348 8.7192 132.217 8.63287 132.072 8.57582C131.928 8.51876 131.773 8.4922 131.618 8.49779H130.567L130.837 7.20326H133.083ZM131.562 9.00122C131.655 9.00121 131.746 9.01966 131.832 9.0555C131.917 9.09134 131.995 9.14385 132.06 9.21C132.125 9.27614 132.177 9.35461 132.212 9.44085C132.246 9.52709 132.264 9.6194 132.263 9.71241C132.268 9.84755 132.246 9.98242 132.197 10.1083C132.147 10.2341 132.072 10.3482 131.976 10.4431C131.88 10.538 131.765 10.6116 131.639 10.6592C131.513 10.7067 131.378 10.7272 131.243 10.7193H130.129L130.495 9.00122H131.562Z" fill="white"/>
<path d="M135.424 6.69983L134.492 11.2227H135.018L135.384 9.42473H136.554C136.763 9.43824 136.972 9.40777 137.168 9.33529C137.364 9.26281 137.543 9.14992 137.693 9.00389C137.843 8.85786 137.961 8.68193 138.039 8.48741C138.117 8.2929 138.154 8.08411 138.147 7.87449C138.153 7.71873 138.126 7.56349 138.069 7.41844C138.012 7.2734 137.926 7.14166 137.817 7.03145C137.707 6.92124 137.575 6.83491 137.431 6.77786C137.286 6.7208 137.132 6.69424 136.976 6.69983H135.424ZM137.613 7.93842C137.621 8.07388 137.599 8.20931 137.55 8.33576C137.501 8.46221 137.426 8.57679 137.33 8.67196C137.233 8.76712 137.118 8.84068 136.991 8.8878C136.864 8.93491 136.729 8.95451 136.594 8.94528H135.488L135.846 7.22723H136.913C137.006 7.22613 137.098 7.24383 137.184 7.27929C137.27 7.31474 137.348 7.36722 137.414 7.43359C137.479 7.49996 137.53 7.57886 137.565 7.66559C137.599 7.75232 137.616 7.84511 137.613 7.93842Z" fill="white"/>
<path d="M142.972 11.2227L143.904 6.69983H143.362L140.185 10.3197L140.934 6.69983H140.408L139.477 11.2227H139.986L143.203 7.53888L142.439 11.2227H142.972Z" fill="white"/>
<path d="M148.522 6.69983L146.205 8.98523L146.683 6.69983H146.157L145.226 11.2227H145.751L146.062 9.70442L146.611 9.16103L147.813 11.2227H148.427L147.009 8.84939L149.207 6.69983H148.522Z" fill="white"/>
<path d="M149.86 11.2227H150.489L151.062 10.2158H153.172L153.339 11.2227H153.913L153.117 6.69983H152.464L149.86 11.2227ZM153.124 9.7204H151.333L152.726 7.32313L153.124 9.7204Z" fill="white"/>
<path d="M157.105 33.2297C156.703 32.8747 156.236 32.603 155.729 32.4302C155.222 32.2574 154.686 32.187 154.151 32.2229C153.34 32.2712 152.562 32.5624 151.917 33.0587C151.272 33.5551 150.79 34.2339 150.533 35.0077C150.276 35.7816 150.255 36.6149 150.475 37.4004C150.694 38.1859 151.142 38.8874 151.763 39.4147C152.164 39.7704 152.632 40.0426 153.139 40.2154C153.646 40.3883 154.182 40.4583 154.717 40.4215H154.86C155.649 40.3414 156.397 40.0317 157.013 39.5305C157.629 39.0293 158.085 38.3585 158.326 37.6004C158.567 36.8424 158.583 36.0302 158.37 35.2636C158.157 34.4971 157.726 33.8096 157.129 33.2856L157.105 33.2297ZM157.105 38.6316C156.806 38.9801 156.441 39.2655 156.031 39.4712C155.621 39.677 155.174 39.799 154.717 39.8302C153.809 39.8654 152.923 39.5481 152.243 38.9443C151.563 38.3406 151.141 37.4969 151.065 36.5888C150.99 35.6808 151.265 34.7784 151.836 34.0693C152.406 33.3603 153.227 32.8993 154.127 32.7822H154.175C154.871 32.7344 155.565 32.8951 156.17 33.244C156.775 33.593 157.262 34.1143 157.571 34.742C157.88 35.3696 157.996 36.0752 157.905 36.7691C157.813 37.4631 157.518 38.1141 157.058 38.6396L157.105 38.6316Z" fill="white"/>
<path d="M156.007 36.3861C156.187 36.1248 156.266 35.8067 156.23 35.4911C156.225 35.3028 156.182 35.1175 156.102 34.947C156.023 34.7764 155.909 34.6243 155.768 34.5002C155.616 34.3735 155.441 34.2791 155.252 34.2228C155.063 34.1664 154.865 34.1494 154.669 34.1726L152.623 34.3085L152.909 38.7035L153.841 38.6395L153.737 37.0813L154.422 37.0334L155.386 38.5356L156.453 38.4637L155.362 36.8655C155.624 36.7834 155.852 36.6144 156.007 36.3861ZM155.123 35.9945C155.063 36.0561 154.991 36.1048 154.911 36.1378C154.832 36.1707 154.747 36.1873 154.661 36.1863L153.69 36.2582L153.61 35.0676L154.589 35.0037C154.759 34.9881 154.928 35.0334 155.067 35.1315C155.131 35.1827 155.183 35.2469 155.22 35.32C155.257 35.393 155.278 35.4732 155.282 35.555C155.29 35.6356 155.279 35.7168 155.252 35.7929C155.224 35.8689 155.18 35.9378 155.123 35.9945Z" fill="white"/>
</g>
<defs>
<clipPath id="clip0_91_11425">
<rect width="158" height="68" fill="white" transform="translate(0.499023)"/>
</clipPath>
</defs>
</svg>
