<svg width="177" height="174" viewBox="0 0 177 174" fill="none" xmlns="http://www.w3.org/2000/svg">
<path d="M57.909 78.2691C59.7343 78.0761 61.5683 77.9778 63.4038 77.9748H63.9122L67.7121 83.3796H67.6408L67.8816 83.6205L68.0065 83.7899C66.16 83.7364 64.0906 83.7007 61.9498 83.7007C57.9001 83.7007 54.4213 83.8345 51.5669 84.0932L57.909 78.2691Z" fill="#F8D88B"/>
<path d="M79.0137 64.427L97.0589 51.6908L96.8448 84.2091L79.87 92.4859L79.0137 64.427Z" fill="#FFF9B4"/>
<path d="M96.6127 52.5559L96.3986 83.9326L80.3426 91.7812L79.5041 64.6589L96.6573 52.5559H96.6127ZM97.5493 50.8257L78.5942 64.204L79.4862 93.1904L97.3263 84.4945L97.5493 50.8257Z" fill="#4B284D"/>
<path d="M68.1758 53.867H58.1318V49.6216C58.1318 49.6216 61.8693 49.0062 63.136 49.0062C64.4026 49.0062 68.1758 49.6216 68.1758 49.6216V53.867Z" fill="#FBB37B"/>
<path d="M68.5146 59.477H57.8105V56.4802C59.5814 56.1525 61.3677 55.9144 63.1626 55.7667C64.9576 55.9134 66.7439 56.1516 68.5146 56.4802V59.477Z" fill="#FBB37B"/>
<path d="M64.4918 74.0059V76.7886C64.0458 76.7886 63.5998 76.7886 63.1448 76.7886C61.4798 76.7828 59.8164 76.8961 58.1675 77.1275V62.6611C59.7758 62.1703 61.4559 61.9561 63.1359 62.0278C64.8224 61.9568 66.5087 62.174 68.1222 62.67V74.0238H65.3838V73.9613L64.4918 74.0059Z" fill="#FBB37B"/>
<path d="M121.312 75.2991L124.069 75.5043V74.327L124.229 59.8605C124.229 59.5662 124.827 59.3343 125.558 59.3343C126.29 59.3343 126.888 59.5662 126.888 59.8605L127.048 74.5945V75.7718L128.261 75.861V74.6481L128.449 54.0811C128.449 53.7065 129.037 53.4032 129.76 53.4032C130.482 53.4032 131.08 53.7065 131.08 54.0811L131.241 74.8799L131.062 76.6637L134.978 76.9491L138.93 85.2705L121.312 83.897V75.2991Z" fill="#E95235"/>
<path d="M82.1983 52.0297L96.8003 41.2378V49.0419L79.0138 62.2062L79.0049 62.1259L82.1983 52.0297Z" fill="#FBB37B"/>
<path d="M98.6909 39.124H100.314C100.435 39.1301 100.556 39.1115 100.669 39.0694C100.783 39.0273 100.887 38.9626 100.974 38.8791C101.062 38.7957 101.131 38.6953 101.179 38.5841C101.227 38.4729 101.251 38.3531 101.251 38.2322V35.8954H103.311C103.454 35.896 103.595 35.8623 103.722 35.7973C104.275 35.5496 104.774 35.1953 105.191 34.7545C105.607 34.3138 105.932 33.7953 106.148 33.2286C106.331 33.165 106.488 33.0436 106.596 32.8827C106.704 32.7218 106.756 32.5301 106.746 32.3368V31.4449C107.429 30.9349 108.191 30.5402 109.002 30.2765C109.8 30.5407 110.551 30.9323 111.224 31.4359V32.3278C111.212 32.5201 111.263 32.7109 111.37 32.8717C111.476 33.0325 111.631 33.1546 111.812 33.2197C112.231 34.3559 113.08 35.2818 114.176 35.7973C114.304 35.8602 114.444 35.8937 114.586 35.8954H116.647V38.1876C116.647 38.3085 116.671 38.4283 116.719 38.5395C116.766 38.6507 116.836 38.7511 116.924 38.8345C117.011 38.918 117.115 38.9827 117.228 39.0248C117.342 39.0669 117.463 39.0855 117.584 39.0795H119.207V95.6075L98.6909 95.6878V39.124Z" fill="#F179AF"/>
<path d="M122.633 90.0242L126.343 90.2918V90.2115C126.348 90.1492 126.348 90.0866 126.343 90.0242C126.274 89.5825 126.045 89.1816 125.7 88.8972C125.354 88.6129 124.917 88.4649 124.47 88.4813C123.435 88.4813 122.597 89.0699 122.597 89.7924C122.592 89.8517 122.592 89.9114 122.597 89.9707L122.633 90.0242Z" fill="#4B284D"/>
<path d="M128.6 90.4523L132.302 90.7199V90.5772C132.311 90.5181 132.311 90.458 132.302 90.3988C132.231 89.9619 132.004 89.5656 131.662 89.2834C131.321 89.0013 130.889 88.8526 130.447 88.8648C129.412 88.8648 128.573 89.4534 128.573 90.1759C128.565 90.238 128.565 90.301 128.573 90.3632L128.6 90.4523Z" fill="#4B284D"/>
<path d="M134.558 90.8894L138.269 91.1569V90.9518C138.274 90.8894 138.274 90.8269 138.269 90.7645C138.2 90.322 137.971 89.92 137.626 89.6342C137.281 89.3485 136.844 89.1985 136.396 89.2126C135.361 89.2126 134.523 89.8013 134.523 90.5326C134.518 90.592 134.518 90.6516 134.523 90.711L134.558 90.8894Z" fill="#4B284D"/>
<path d="M12.256 94.011H40.4432C42.1291 93.9575 47.0708 94.3499 47.6417 96.6867C47.8558 97.6677 48.7834 97.7213 50.1928 97.8015C51.0848 97.855 52.4853 97.8996 54.2693 97.9442C57.5607 98.0156 62.3865 98.0691 68.6127 98.0958C72.4185 98.0958 76.7566 98.0958 81.627 98.0958C90.1723 98.0958 100.359 98.0958 112 98.0156C143.175 97.8729 174.716 97.5964 175.029 97.5875C175.194 97.6018 175.36 97.5816 175.517 97.5283C175.673 97.4749 175.817 97.3895 175.94 97.2776C176.062 97.1656 176.159 97.0295 176.226 96.8779C176.293 96.7263 176.327 96.5624 176.327 96.3968C176.327 96.2312 176.293 96.0673 176.226 95.9157C176.159 95.7641 176.062 95.628 175.94 95.516C175.817 95.404 175.673 95.3187 175.517 95.2653C175.36 95.212 175.194 95.1918 175.029 95.2061L156.056 95.3667L155.627 48.9259C155.632 48.8934 155.632 48.8603 155.627 48.8278C155.627 48.1321 154.316 47.5613 152.693 47.5613C151.069 47.5613 149.767 48.1321 149.767 48.8278V48.9081L149.348 95.4113H148.652L148.224 53.0375C148.228 53.005 148.228 52.972 148.224 52.9394C148.224 52.2438 146.913 51.6729 145.298 51.6729C143.684 51.6729 142.363 52.2438 142.363 52.9394C142.363 52.9394 142.363 52.9929 142.363 53.0197L141.935 95.4558H141.043L140.883 86.5994L120.286 84.9226L140.802 86.4834L135.994 75.2188L132.667 74.9691L130.348 25.7635C130.353 25.719 130.353 25.6742 130.348 25.6297C130.348 24.6487 128.564 23.846 126.254 23.846C123.944 23.846 122.204 24.6487 122.204 25.6297C122.2 25.6653 122.2 25.7012 122.204 25.7368L120.304 66.291V38.0716H117.744V34.8341H114.622C114.116 34.6069 113.672 34.2615 113.327 33.8269C112.983 33.3923 112.748 32.8812 112.642 32.3368V32.2387H112.267V31.3468H112.829L112.553 31.1327C112.446 31.0524 110.028 29.2597 108.985 29.2597C107.932 29.2597 105.488 31.0435 105.417 31.1327L105.131 31.3468H105.702V32.2387H105.256V32.3368C105.152 32.8821 104.918 33.3941 104.573 33.829C104.228 34.264 103.783 34.6088 103.276 34.8341H100.19V38.0716H97.6295V39.1062L96.5858 39.8822V32.2476C96.5901 32.212 96.5901 32.1761 96.5858 32.1405C96.5858 31.873 96.3182 31.6233 95.8633 31.4092L95.6314 13.0006C95.6356 12.983 95.6356 12.9647 95.6314 12.9471C95.6314 12.5992 94.9981 12.3049 94.2131 12.3049C94 12.3051 93.7876 12.329 93.5798 12.3762L93.8563 30.8919L93.2676 30.8205L93.0178 11.5646V11.52C93.0178 11.1365 92.3132 10.8333 91.439 10.8333C90.5648 10.8333 89.8512 11.1365 89.8512 11.52L89.6015 30.776L89.0217 30.8919L89.2625 12.4476C89.0159 12.3771 88.7608 12.341 88.5043 12.3406C88.3036 12.3423 88.1034 12.3632 87.9067 12.403C87.425 12.51 87.0949 12.733 87.0949 12.9827L86.8719 31.4003C86.4081 31.6143 86.1494 31.8641 86.1494 32.1316C86.1451 32.1582 86.1451 32.1853 86.1494 32.2119V47.6327L82.3673 50.4421L82.1265 51.1913H80.1462V54.4289H78.7458L76.9618 1.53086C76.9618 1.53086 76.9618 1.48627 76.9618 1.46843C76.9618 0.96897 76.0698 0.576538 74.8745 0.576538C73.6792 0.576538 72.7961 0.977889 72.7961 1.46843C72.792 1.48602 72.792 1.50435 72.7961 1.52194L69.8525 52.217C69.469 52.1546 69.0497 52.11 68.6127 52.0565V49.9605C68.6127 49.5948 67.8991 49.2648 66.7662 49.0686L65.8742 20.8225C65.8786 20.7989 65.8786 20.7747 65.8742 20.7511C65.8742 20.2606 64.9822 19.8592 63.7958 19.8592C62.6095 19.8592 61.7175 20.2695 61.7175 20.7511V20.8046L60.103 48.9259C58.649 49.1489 57.6946 49.5146 57.6946 49.9427V52.0832C55.0185 52.4043 53.297 52.9305 53.297 53.537V55.3208C53.2521 55.3738 53.2242 55.439 53.2167 55.5081C53.2167 56.07 55.0542 56.5694 57.8373 56.8459C58.2833 56.3465 60.5133 55.954 63.1893 55.954C65.8653 55.954 68.1756 56.3465 68.5413 56.8459L69.576 56.8102L69.4957 58.1927L68.684 58.0946V56.9886H68.4699V57.8805H66.3024C65.3569 57.827 64.3578 57.8002 63.3231 57.8002C62.2884 57.8002 61.2893 57.8002 60.3527 57.8805H57.7838V56.9886H57.5786V58.1035H57.8908C55.1167 58.4246 53.2791 58.9954 53.2791 59.6286V61.341C53.2326 61.3965 53.2045 61.4651 53.1989 61.5373C53.1989 62.0546 54.7955 62.5183 57.2486 62.8127V77.957L49.836 84.7978L49.5684 85.0475L49.3989 85.1367H49.2562L49.3276 94.7067C47.16 91.585 41.2995 91.6296 40.4075 91.6564H39.6939V87.8302L41.5404 89.498C41.9639 89.88 42.5218 90.0782 43.0914 90.0489C43.6609 90.0197 44.1956 89.7654 44.5777 89.3419C44.9597 88.9185 45.1579 88.3607 45.1286 87.7912C45.0994 87.2216 44.845 86.6871 44.4216 86.3051L42.2272 84.3251V81.7297C42.6879 81.8843 43.1873 81.8784 43.6441 81.7128C44.1009 81.5473 44.4882 81.2319 44.7427 80.818C44.9973 80.4042 45.1041 79.9163 45.0458 79.434C44.9874 78.9517 44.7674 78.5033 44.4216 78.1621L42.2272 76.1821V74.5945C42.6879 74.7492 43.1873 74.7433 43.6441 74.5777C44.1009 74.4122 44.4882 74.0967 44.7427 73.6829C44.9973 73.2691 45.1041 72.7812 45.0458 72.2989C44.9874 71.8166 44.7674 71.3682 44.4216 71.027L42.2272 69.047V67.4594C42.6879 67.6141 43.1873 67.6081 43.6441 67.4426C44.1009 67.277 44.4882 66.9616 44.7427 66.5478C44.9973 66.1339 45.1041 65.6461 45.0458 65.1638C44.9874 64.6814 44.7674 64.2331 44.4216 63.8918L38.7217 58.7456C38.2948 58.3956 37.7496 58.2231 37.199 58.264C36.6484 58.305 36.1347 58.5561 35.7643 58.9655C35.3939 59.3748 35.1952 59.911 35.2093 60.4628C35.2235 61.0147 35.4495 61.5399 35.8405 61.9297L38.0348 63.8918V65.4081C37.5742 65.2534 37.0748 65.2593 36.6179 65.4249C36.1611 65.5904 35.7739 65.9058 35.5193 66.3197C35.2648 66.7335 35.158 67.2214 35.2163 67.7037C35.2746 68.186 35.4946 68.6344 35.8405 68.9756L38.0348 71.027V72.5878C37.5742 72.4331 37.0748 72.439 36.6179 72.6046C36.1611 72.7701 35.7739 73.0856 35.5193 73.4994C35.2648 73.9132 35.158 74.4011 35.2163 74.8834C35.2746 75.3657 35.4946 75.8141 35.8405 76.1553L38.0348 78.1621V80.7575C37.5742 80.6028 37.0748 80.6088 36.6179 80.7743C36.1611 80.9399 35.7739 81.2553 35.5193 81.6691C35.2648 82.083 35.158 82.5708 35.2163 83.0531C35.2746 83.5355 35.4946 83.9838 35.8405 84.3251L38.5165 86.7153V91.6029H28.312V88.4902L29.4359 89.498C29.8594 89.88 30.4173 90.0782 30.9869 90.0489C31.5565 90.0197 32.0911 89.7654 32.4732 89.3419C32.8553 88.9185 33.0535 88.3607 33.0242 87.7912C32.9949 87.2216 32.7406 86.6871 32.3171 86.3051L30.1228 84.3251V81.7297C30.5834 81.8843 31.0828 81.8784 31.5396 81.7128C31.9965 81.5473 32.3837 81.2319 32.6382 80.818C32.8928 80.4042 32.9996 79.9163 32.9413 79.434C32.883 78.9517 32.6629 78.5033 32.3171 78.1621L30.1228 76.1821V74.5945C30.5834 74.7492 31.0828 74.7433 31.5396 74.5777C31.9965 74.4122 32.3837 74.0967 32.6382 73.6829C32.8928 73.2691 32.9996 72.7812 32.9413 72.2989C32.883 71.8166 32.6629 71.3682 32.3171 71.027L30.1228 69.047V67.4594C30.5834 67.6141 31.0828 67.6081 31.5396 67.4426C31.9965 67.277 32.3837 66.9616 32.6382 66.5478C32.8928 66.1339 32.9996 65.6461 32.9413 65.1638C32.883 64.6814 32.6629 64.2331 32.3171 63.8918L26.6172 58.7456C26.1903 58.3956 25.6451 58.2231 25.0945 58.264C24.5439 58.305 24.0302 58.5561 23.6598 58.9655C23.2894 59.3748 23.0907 59.911 23.1049 60.4628C23.1191 61.0147 23.3451 61.5399 23.736 61.9297L25.9214 63.8918V65.4081C25.4608 65.2534 24.9614 65.2593 24.5046 65.4249C24.0477 65.5904 23.6605 65.9058 23.4059 66.3197C23.1514 66.7335 23.0446 67.2214 23.1029 67.7037C23.1612 68.186 23.3813 68.6344 23.7271 68.9756L25.9214 71.027V72.5878C25.4608 72.4331 24.9614 72.439 24.5046 72.6046C24.0477 72.7701 23.6605 73.0856 23.4059 73.4994C23.1514 73.9132 23.0446 74.4011 23.1029 74.8834C23.1612 75.3657 23.3813 75.8141 23.7271 76.1553L25.9214 78.1621V80.7575C25.4608 80.6028 24.9614 80.6088 24.5046 80.7743C24.0477 80.9399 23.6605 81.2553 23.4059 81.6691C23.1514 82.083 23.0446 82.5708 23.1029 83.0531C23.1612 83.5355 23.3813 83.9838 23.7271 84.3251L27.0989 87.3664V91.6029H12.256C12.0909 91.5886 11.9247 91.6087 11.7679 91.6621C11.611 91.7154 11.467 91.8008 11.3449 91.9128C11.2228 92.0247 11.1253 92.1608 11.0586 92.3125C10.992 92.4641 10.9575 92.6279 10.9575 92.7936C10.9575 92.9592 10.992 93.123 11.0586 93.2747C11.1253 93.4263 11.2228 93.5624 11.3449 93.6744C11.467 93.7863 11.611 93.8717 11.7679 93.925C11.9247 93.9784 12.0909 93.9985 12.256 93.9842V94.011ZM139.866 95.5361H138.26V91.6564L134.549 91.3977V95.5629H132.293V91.2283L128.591 90.9696V95.5896H126.334V90.8269L122.623 90.5683V95.6342H121.366L121.312 87.081L139.723 88.6151L139.866 95.5361ZM139.723 87.7499V88.1423L121.312 86.5637V86.2515L139.723 87.7499ZM121.312 75.2991L124.068 75.5043V74.327L124.229 59.8605C124.229 59.5662 124.827 59.3343 125.558 59.3343C126.29 59.3343 126.887 59.5662 126.887 59.8605L127.048 74.5945V75.7718L128.261 75.861V74.648L128.448 54.0811C128.448 53.7065 129.037 53.4032 129.759 53.4032C130.482 53.4032 131.08 53.7065 131.08 54.0811L131.24 74.8799L131.062 76.6637L134.978 76.9491L138.929 85.2705L121.312 83.8969V75.2991ZM98.691 39.124H100.314C100.435 39.1301 100.556 39.1115 100.669 39.0694C100.783 39.0273 100.887 38.9626 100.974 38.8791C101.062 38.7957 101.132 38.6953 101.179 38.5841C101.227 38.4729 101.251 38.3531 101.251 38.2322V35.8954H103.312C103.454 35.896 103.595 35.8623 103.722 35.7973C104.275 35.5496 104.774 35.1953 105.191 34.7545C105.607 34.3138 105.932 33.7953 106.148 33.2286C106.331 33.165 106.488 33.0436 106.596 32.8827C106.704 32.7218 106.756 32.5301 106.746 32.3368V31.4449C107.429 30.9349 108.192 30.5402 109.003 30.2765C109.801 30.5407 110.551 30.9323 111.224 31.436V32.3278C111.212 32.5201 111.263 32.7109 111.37 32.8717C111.476 33.0325 111.631 33.1546 111.812 33.2197C112.231 34.3559 113.08 35.2818 114.176 35.7973C114.304 35.8602 114.444 35.8937 114.586 35.8954H116.647V38.1876C116.647 38.3085 116.671 38.4283 116.719 38.5395C116.766 38.6507 116.836 38.7511 116.924 38.8345C117.011 38.918 117.115 38.9827 117.229 39.0248C117.342 39.0669 117.463 39.0855 117.584 39.0795H119.207V95.6075L98.691 95.6877V39.124ZM79.834 86.0107V84.9583V86.0107ZM79.834 83.7186H79.7538L79.3256 71.357L79.834 71.0716V83.7186ZM79.834 69.8854L79.2899 70.1975L79.1472 66.0948L79.834 65.7827V69.8854ZM82.5725 88.6864L81.5645 89.2215V83.9683L82.5725 83.4064V88.6864ZM82.5725 82.1578L81.5645 82.7286V70.1351L82.5725 69.5554V82.1578ZM82.5725 68.2978L81.5645 68.8864V64.427L82.5725 63.8918V68.2978ZM85.3199 87.2326L84.1067 87.8748V82.5234L85.3199 81.8456V87.2326ZM85.3199 80.6059L84.1067 81.2926V68.6724L85.3199 67.9856V80.6059ZM85.3199 66.7191L84.1067 67.4594V62.7502L85.3199 62.0189V66.7191ZM88.0672 85.7788L86.6489 86.528V81.1767L88.0672 80.3829V85.7788ZM88.0672 79.054L86.6489 79.8567V67.2275L88.0672 66.4159V79.054ZM88.0672 65.1316L86.6489 65.9521V61.0467L88.0672 60.1548V65.1316ZM90.8146 84.3161L89.1822 85.208V79.714L90.8146 78.8221V84.3161ZM90.8146 77.4932L89.1822 78.3851V65.7827L90.8146 64.8908V77.4932ZM90.8146 63.544L89.2001 64.4894V59.3521L90.8324 58.2551L90.8146 63.544ZM93.553 82.8624L91.769 83.8345V78.287L93.553 77.2613V82.8624ZM93.553 75.9413L91.769 76.9848V64.3378L93.553 63.2854V75.9413ZM93.553 61.9654L91.769 63.0178V57.6486L93.553 56.3732V61.9654ZM96.3361 81.3818L96.1844 81.4888L94.2934 82.4878V76.8689L96.3361 75.7272V81.3818ZM96.3361 74.3894L94.2934 75.5399V62.884L96.3361 61.7246V74.3894ZM96.3361 60.3778L94.2934 61.5551V55.9451L96.3361 54.4913V60.3778ZM82.1979 52.0297L96.7999 41.2378V49.0419L79.0134 62.2062V62.1081L82.1979 52.0297ZM67.9258 84.548C63.9386 84.4053 58.872 84.4053 54.3139 84.6461C56.7936 84.5034 59.4161 84.4499 61.9405 84.4499C64.0724 84.4499 66.124 84.4499 67.9615 84.5391L67.9258 84.548ZM76.5961 84.0486L75.3473 83.9951H75.0797H74.3393L74.4018 74.6926H74.5712L75.6327 74.9334L76.5961 75.1653V84.0486ZM74.1966 64.0256C74.1966 63.7937 74.6248 63.6064 75.151 63.6064C75.6773 63.6064 76.1144 63.7937 76.1144 64.0256L76.2125 74.327L77.3454 74.5945L74.4553 73.8989H74.1074L74.2055 64.0167L74.1966 64.0256ZM70.361 64.6499C70.361 64.4181 70.7981 64.2308 71.3243 64.2308C71.8506 64.2308 72.2788 64.4181 72.2788 64.6499L72.368 73.9256H70.2718L70.3699 64.6054L70.361 64.6499ZM58.1852 50.1032C58.1852 50.1032 58.1852 50.0408 58.1852 50.0051C58.4795 49.7286 60.1743 49.2202 63.1179 49.2202C66.0615 49.2202 67.7563 49.7286 68.0507 50.0051C68.0457 50.0376 68.0457 50.0707 68.0507 50.1032V51.887H66.008C65.116 51.887 64.224 51.8246 63.332 51.8246C62.44 51.8246 61.548 51.8246 60.656 51.887H58.1852V50.1032ZM68.684 56.4356C67.5066 55.5438 63.6174 55.5438 63.1536 55.5438C61.1198 55.5438 58.5776 55.7756 57.6499 56.4356C56.308 56.372 54.988 56.07 53.7519 55.5438C54.6544 55.1293 55.6245 54.8815 56.6152 54.8124C58.8338 54.53 61.0688 54.3959 63.3052 54.411C65.4426 54.401 67.5786 54.5231 69.7009 54.7767L69.576 56.3286L68.684 56.4356ZM73.2154 75.1653L73.367 83.1388L69.0854 83.3083L65.3747 78.0729V75.2456L73.2154 75.1653ZM64.4916 74.0059V76.7886C64.0456 76.7886 63.5996 76.7886 63.1447 76.7886C61.4796 76.7828 59.8162 76.896 58.1673 77.1275V62.661C59.7757 62.1702 61.4557 61.9561 63.1358 62.0278C64.8223 61.9568 66.5086 62.174 68.1221 62.67V74.0237H65.3836V73.9613L64.4916 74.0059ZM69.0765 65.2475V62.8751H69.2103L69.0765 65.2475ZM53.7341 61.5729C54.6363 61.1591 55.6068 60.9142 56.5974 60.8505C58.8153 60.5603 61.0506 60.4232 63.2874 60.4402C65.3078 60.4322 67.327 60.5394 69.3352 60.7613L69.2371 62.3845L68.6662 62.447C67.4887 61.5551 63.5996 61.5551 63.1358 61.5551C61.102 61.5551 58.5598 61.787 57.6321 62.447C56.2912 62.389 54.9713 62.093 53.7341 61.5729ZM57.9086 78.2691C59.7339 78.0761 61.5679 77.9778 63.4034 77.9748H63.9118L67.7117 83.3797H67.6404L67.8812 83.6205L68.0061 83.7899C66.1596 83.7364 64.0902 83.7007 61.9494 83.7007C57.8997 83.7007 54.4209 83.8345 51.5665 84.0932L57.9086 78.2691Z" fill="#4B284D"/>
<path d="M30.9972 67.5218C30.4852 67.5192 29.9913 67.3324 29.6057 66.9956L23.5936 61.6443C23.2607 61.2562 23.0805 60.7603 23.0866 60.2492C23.0926 59.738 23.2845 59.2465 23.6264 58.8665C23.9683 58.4864 24.4368 58.2437 24.9445 58.1837C25.4523 58.1238 25.9645 58.2506 26.3855 58.5405L32.3976 63.8918C32.8128 64.2635 33.0645 64.784 33.0979 65.3401C33.1314 65.8963 32.9438 66.4432 32.576 66.8618C32.3748 67.0776 32.1299 67.2481 31.8577 67.3619C31.5855 67.4757 31.2921 67.5302 30.9972 67.5218Z" fill="#F179AF"/>
<path d="M30.9434 82.024C30.4311 82.023 29.9366 81.836 29.5519 81.4978L23.5309 76.1464C23.1327 75.7711 22.8962 75.2556 22.8717 74.7089C22.8472 74.1623 23.0366 73.6277 23.3996 73.2183C23.7627 72.8089 24.2709 72.5569 24.8166 72.5158C25.3623 72.4747 25.9025 72.6477 26.3228 72.9981L32.3349 78.3494C32.6556 78.6321 32.8825 79.0058 32.9856 79.4207C33.0886 79.8355 33.0629 80.2719 32.9118 80.6718C32.7608 81.0717 32.4915 81.4161 32.1399 81.6593C31.7883 81.9024 31.3709 82.0327 30.9434 82.0329V82.024Z" fill="#F179AF"/>
<path d="M43.2354 74.8621C42.7214 74.8619 42.2256 74.6713 41.8439 74.327L35.8229 68.9756C35.4246 68.6003 35.1882 68.0848 35.1637 67.5381C35.1392 66.9915 35.3286 66.4569 35.6916 66.0475C36.0547 65.6381 36.5629 65.3861 37.1086 65.345C37.6543 65.3039 38.1945 65.4769 38.6148 65.8273L44.6269 71.1786C44.8346 71.3613 45.0041 71.5833 45.1255 71.8318C45.247 72.0803 45.3181 72.3504 45.3346 72.6265C45.3512 72.9026 45.313 73.1792 45.2221 73.4404C45.1313 73.7017 44.9896 73.9424 44.8053 74.1486C44.6104 74.3734 44.3692 74.5535 44.0983 74.6767C43.8273 74.7998 43.533 74.8631 43.2354 74.8621Z" fill="#F179AF"/>
<path d="M43.2354 90.2294C42.7224 90.2325 42.2265 90.045 41.8439 89.7032L35.8229 84.3518C35.4246 83.9765 35.1882 83.4609 35.1637 82.9143C35.1392 82.3677 35.3286 81.833 35.6916 81.4236C36.0547 81.0142 36.5629 80.7623 37.1086 80.7212C37.6543 80.6801 38.1945 80.8531 38.6148 81.2035L44.6269 86.5548C44.8346 86.7375 45.0041 86.9595 45.1255 87.208C45.247 87.4565 45.3181 87.7266 45.3346 88.0026C45.3512 88.2787 45.313 88.5554 45.2221 88.8166C45.1313 89.0779 44.9896 89.3185 44.8053 89.5248C44.6099 89.7484 44.3684 89.9272 44.0975 90.0488C43.8265 90.1704 43.5324 90.232 43.2354 90.2294Z" fill="#F179AF"/>
<path d="M43.2354 81.9081C42.7224 81.9112 42.2265 81.7236 41.8439 81.3818L35.8229 76.0305C35.4246 75.6552 35.1882 75.1396 35.1637 74.593C35.1392 74.0464 35.3286 73.5117 35.6916 73.1023C36.0547 72.6929 36.5629 72.4409 37.1086 72.3998C37.6543 72.3587 38.1945 72.5317 38.6148 72.8821L44.6269 78.2335C44.9443 78.5169 45.1683 78.8899 45.2694 79.3031C45.3705 79.7164 45.3439 80.1507 45.1932 80.5486C45.0426 80.9465 44.7748 81.2894 44.4253 81.5321C44.0758 81.7748 43.6609 81.9058 43.2354 81.9081Z" fill="#F8D88B"/>
<path d="M43.378 67.4594C42.8653 67.4608 42.3699 67.2735 41.9865 66.9332L35.9744 61.5819C35.6908 61.1894 35.5513 60.7112 35.5792 60.2279C35.6071 59.7445 35.8008 59.2856 36.1277 58.9284C36.4545 58.5712 36.8946 58.3376 37.3736 58.267C37.8526 58.1963 38.3413 58.2929 38.7574 58.5405L44.7784 63.8918C45.1937 64.2635 45.4454 64.784 45.4788 65.3401C45.5122 65.8963 45.3246 66.4432 44.9568 66.8618C44.7505 67.0668 44.5032 67.2259 44.2311 67.3289C43.9591 67.4319 43.6684 67.4763 43.378 67.4594Z" fill="#F8D88B"/>
<path d="M31.0417 89.4891C30.5289 89.4906 30.0336 89.3033 29.6502 88.9629L23.6381 83.6116C23.4116 83.4348 23.2237 83.2136 23.0859 82.9616C22.9482 82.7095 22.8635 82.4319 22.8371 82.1459C22.8106 81.8599 22.843 81.5715 22.9323 81.2984C23.0215 81.0254 23.1657 80.7735 23.3559 80.5583C23.5462 80.3431 23.7785 80.1691 24.0385 80.047C24.2985 79.9249 24.5808 79.8573 24.868 79.8484C25.1551 79.8395 25.441 79.8894 25.7081 79.9952C25.9752 80.1009 26.2179 80.2602 26.4211 80.4632L32.4332 85.8145C32.8518 86.1836 33.1067 86.7038 33.1418 87.2608C33.1769 87.8177 32.9894 88.3658 32.6205 88.7845C32.4212 89.0057 32.1777 89.1827 31.9057 89.304C31.6338 89.4254 31.3395 89.4885 31.0417 89.4891Z" fill="#F8D88B"/>
<path d="M31.0415 74.5945C30.5288 74.596 30.0334 74.4087 29.65 74.0683L23.6379 68.717C23.3692 68.5571 23.1395 68.3394 22.9655 68.0796C22.7915 67.8199 22.6775 67.5247 22.6319 67.2154C22.5863 66.9061 22.6101 66.5906 22.7017 66.2917C22.7933 65.9927 22.9503 65.718 23.1614 65.4873C23.3724 65.2567 23.6322 65.076 23.9219 64.9582C24.2115 64.8405 24.5238 64.7888 24.8359 64.8068C25.1481 64.8249 25.4523 64.9122 25.7264 65.0625C26.0006 65.2128 26.2378 65.4222 26.4209 65.6756L32.433 71.027C32.718 71.315 32.9133 71.6795 32.9955 72.0762C33.0776 72.473 33.0429 72.885 32.8957 73.2625C32.7484 73.6399 32.495 73.9666 32.1659 74.2031C31.8368 74.4395 31.4463 74.5754 31.0415 74.5945Z" fill="#F8D88B"/>
<path d="M139.866 95.5361H138.261V91.6564L134.55 91.3977V95.5629H132.293V91.2283L128.591 90.9696V95.5896H126.334V90.8269L122.624 90.5683V95.6342H121.366L121.312 87.081L139.723 88.615L139.866 95.5361Z" fill="#DE66A6"/>
<path d="M74.1966 64.0256C74.1966 63.7937 74.6248 63.6064 75.1511 63.6064C75.6774 63.6064 76.1144 63.7937 76.1144 64.0256L76.2126 74.327L77.3454 74.5945L74.4553 73.8989H74.1074L74.2055 64.0167L74.1966 64.0256Z" fill="#FBB37B"/>
<path d="M70.3612 64.65C70.3612 64.4181 70.7983 64.2308 71.3245 64.2308C71.8508 64.2308 72.279 64.4181 72.279 64.65L72.3682 73.9256H70.272L70.3701 64.6054L70.3612 64.65Z" fill="#FBB37B"/>
<path d="M68.6841 56.4357C67.5066 55.5438 63.6175 55.5438 63.1537 55.5438C61.1199 55.5438 58.5777 55.7757 57.65 56.4357C56.308 56.372 54.9881 56.07 53.752 55.5438C54.6545 55.1293 55.6245 54.8815 56.6153 54.8124C58.8339 54.53 61.0688 54.3959 63.3053 54.4111C65.4427 54.401 67.5786 54.5231 69.701 54.7767L69.5761 56.3286L68.6841 56.4357Z" fill="#4B284D"/>
<path d="M73.1979 75.1743L73.3495 83.1477L69.0679 83.3172L65.375 78.0729H65.3839V75.2456L73.1979 75.1743Z" fill="#F179AF"/>
<path d="M53.7344 61.5729C54.6366 61.1591 55.6071 60.9142 56.5977 60.8505C58.8156 60.5603 61.0509 60.4232 63.2877 60.4402C65.3081 60.4322 67.3273 60.5394 69.3355 60.7613L69.2374 62.3845L68.6665 62.447C67.489 61.5551 63.5999 61.5551 63.1361 61.5551C61.1023 61.5551 58.5601 61.787 57.6324 62.447C56.2915 62.389 54.9716 62.093 53.7344 61.5729Z" fill="#4B284D"/>
<path d="M76.6318 84.0486L75.383 83.9951H75.1154H74.375L74.4374 74.6927H74.6069L75.6684 74.9335L76.6318 75.1654V84.0486Z" fill="#F285B5"/>
<path d="M107.317 45.1621V39.1419C107.313 39.1033 107.313 39.0645 107.317 39.0259C107.317 38.473 108.075 38.0003 108.976 38.0003C109.877 38.0003 110.635 38.473 110.635 39.0259C110.64 39.0675 110.64 39.1093 110.635 39.1508V45.1621H107.317Z" fill="#FFF9B4"/>
<path d="M108.958 38.4462C109.707 38.4462 110.171 38.8208 110.162 39.0616V39.1419V44.743H107.78V39.1151V39.0259C107.78 38.8208 108.235 38.4462 108.993 38.4462H108.958ZM108.993 37.5543C107.825 37.5543 106.888 38.2143 106.888 39.0259C106.884 39.0942 106.884 39.1628 106.888 39.2311V45.6349H111.054V39.2311C111.059 39.1628 111.059 39.0942 111.054 39.0259C111.054 38.2143 110.108 37.5543 108.949 37.5543H108.993Z" fill="#4B284D"/>
<path d="M103.018 45.1621V41.8354C103.018 41.5589 103.392 41.3003 103.91 41.3003C104.427 41.3003 104.802 41.5589 104.802 41.7908V45.1621H103.018Z" fill="#FFF9B4"/>
<path d="M103.892 41.7462C104.042 41.7434 104.191 41.7836 104.32 41.8621V44.743H103.428V41.8621C103.556 41.7836 103.705 41.7434 103.856 41.7462H103.892ZM103.856 40.8543C103.124 40.8543 102.527 41.2735 102.527 41.7462C102.522 41.7907 102.522 41.8355 102.527 41.88V45.5902H105.203V41.9246C105.207 41.8801 105.207 41.8353 105.203 41.7908C105.203 41.2735 104.605 40.8989 103.865 40.8989L103.856 40.8543Z" fill="#4B284D"/>
<path d="M113.142 45.1621V41.8354C113.142 41.5589 113.516 41.3003 114.034 41.3003C114.551 41.3003 114.926 41.5589 114.926 41.7908V45.1621H113.142Z" fill="#FFF9B4"/>
<path d="M114.016 41.7462C114.166 41.7434 114.315 41.7836 114.444 41.8621V44.743H113.552V41.8621C113.68 41.7822 113.829 41.7418 113.98 41.7462H114.016ZM113.98 40.8543C113.248 40.8543 112.651 41.2735 112.651 41.7462C112.646 41.7907 112.646 41.8355 112.651 41.88V45.5902H115.327V41.9246C115.331 41.8801 115.331 41.8353 115.327 41.7908C115.327 41.2735 114.729 40.8989 113.989 40.8989L113.98 40.8543Z" fill="#4B284D"/>
<path d="M105.827 59.7446H103.588V69.7605H105.827V59.7446Z" fill="#FFF9B4"/>
<path d="M105.381 60.1905V69.3146H104.034V60.1905H105.381ZM106.273 59.2986H103.142V70.2065H106.273V59.2986Z" fill="#4B284D"/>
<path d="M110.867 71.7048H107.771V80.0797H110.867V71.7048Z" fill="#FFF9B4"/>
<path d="M110.421 72.1508V79.6337H108.218V72.1508H110.421ZM111.313 71.2589H107.326V80.5256H111.313V71.2589Z" fill="#4B284D"/>
<path d="M110.867 59.7446H107.771V69.7605H110.867V59.7446Z" fill="#FFF9B4"/>
<path d="M110.421 60.1905V69.3146H108.218V60.1905H110.421ZM111.313 59.2986H107.326V70.2065H111.313V59.2986Z" fill="#4B284D"/>
<path d="M112.812 57.8002V51.557C113.554 52.2337 114.143 53.0612 114.54 53.9841C114.937 54.907 115.132 55.904 115.113 56.9083C115.11 57.2066 115.089 57.5045 115.05 57.8002H112.812Z" fill="#FFF9B4"/>
<path d="M113.284 52.6541C114.209 53.8579 114.706 55.3366 114.693 56.8549C114.702 57.0212 114.702 57.1879 114.693 57.3543H113.284V52.6541ZM112.392 50.6562V58.2462H115.523V57.8359C115.562 57.5103 115.583 57.1828 115.585 56.8549C115.621 55.6297 115.347 54.4152 114.789 53.3239C114.231 52.2326 113.407 51.2997 112.392 50.6116V50.6562Z" fill="#4B284D"/>
<path d="M107.771 57.8002V50.4332C108.27 50.2737 108.791 50.1925 109.315 50.1924C109.841 50.1925 110.365 50.2738 110.867 50.4332V57.8002H107.771Z" fill="#FFF9B4"/>
<path d="M109.315 50.6383C109.688 50.6383 110.059 50.6832 110.421 50.7721V57.3543H108.218V50.7721C108.577 50.6832 108.945 50.6383 109.315 50.6383ZM109.315 49.7465C108.634 49.7475 107.96 49.8745 107.326 50.1211V58.2462H111.313V50.1211C110.676 49.8736 109.998 49.7466 109.315 49.7465Z" fill="#4B284D"/>
<path d="M115.05 59.7446H112.812V69.7605H115.05V59.7446Z" fill="#FFF9B4"/>
<path d="M114.604 60.1905V69.3146H113.284V60.1905H114.631H114.604ZM115.523 59.2986H112.392V70.2065H115.523V59.2986Z" fill="#4B284D"/>
<path d="M115.05 71.7048H112.812V80.0797H115.05V71.7048Z" fill="#FFF9B4"/>
<path d="M114.604 72.1508V79.6337H113.284V72.1508H114.631H114.604ZM115.523 71.2589H112.392V80.5256H115.523V71.2589Z" fill="#4B284D"/>
<path d="M105.827 71.7048H103.588V80.0797H105.827V71.7048Z" fill="#FFF9B4"/>
<path d="M105.381 72.1508V79.6337H104.034V72.1508H105.381ZM106.273 71.2589H103.142V80.5256H106.273V71.2589Z" fill="#4B284D"/>
<path d="M103.579 57.8002C103.54 57.4866 103.519 57.1709 103.517 56.8548C103.497 55.8504 103.693 54.8534 104.089 53.9306C104.486 53.0077 105.076 52.1802 105.818 51.5035V57.7467L103.579 57.8002Z" fill="#FFF9B4"/>
<path d="M105.381 52.6541V57.3543H103.99C103.99 57.1759 103.99 57.0065 103.99 56.8549C103.977 55.335 104.476 53.8551 105.408 52.6541H105.381ZM106.3 50.6562C105.284 51.3439 104.458 52.2764 103.899 53.3677C103.339 54.4589 103.063 55.6736 103.098 56.8995C103.099 57.2277 103.123 57.5555 103.169 57.8805V58.2908H106.3V50.6562Z" fill="#4B284D"/>
<path d="M44.9214 140.371C45.7242 136.269 45.0403 132.972 42.8698 130.48C44.1543 132.746 44.4754 135.534 43.8331 138.846C41.8707 148.931 35.5524 153.973 24.8781 153.973H2.47991L2.18555 155.498H25.9753C36.6436 155.48 42.959 150.438 44.9214 140.371Z" fill="#4B284D"/>
<path d="M114.729 125.013L108.914 153.152H126.825C129.537 153.152 131.19 151.752 131.785 148.951L132.677 144.76H123.453L124.06 141.852H130.473C133.149 141.852 134.844 140.443 135.433 137.624L136.325 133.397H135.138L134.523 136.34C133.925 139.158 132.275 140.568 129.555 140.568H123.141L122.249 144.76H121.098L122.204 139.471H128.609C131.327 139.471 132.983 138.061 133.577 135.243L134.469 131.024H126.29L126.861 128.277H134.345C137.074 128.277 138.733 126.877 139.322 124.077L140.214 119.876H139.028L138.412 122.792C137.817 125.593 136.161 126.993 133.444 126.993H125.96L125.121 131.024H123.988L125.059 125.896H132.543C135.272 125.896 136.931 124.496 137.52 121.695L138.412 117.494H116.29L115.122 123.176C115.217 122.669 115.17 122.146 114.984 121.666C114.798 121.185 114.481 120.766 114.069 120.456C114.264 121.222 114.264 122.026 114.069 122.792C113.475 125.593 111.771 126.993 108.958 126.993H103.606L98.9588 149.71C98.3344 152.778 96.2769 154.309 92.7862 154.303H88.7186L88.46 155.587H93.6603C97.1451 155.587 99.2026 154.056 99.833 150.994L104.48 128.277H109.832C112.392 128.277 113.989 127.216 114.729 125.013Z" fill="#4B284D"/>
<path d="M132.694 150.049C132.1 152.849 130.449 154.249 127.744 154.249H111.01L110.742 155.534H128.654C131.33 155.534 133.024 154.133 133.613 151.333L134.505 147.132H133.319L132.694 150.049Z" fill="#4B284D"/>
<path d="M160.311 137.624L170.729 128.17C172.002 127.208 172.901 125.834 173.272 124.282C173.358 123.657 173.298 123.021 173.097 122.424C172.895 121.827 172.558 121.284 172.112 120.839L172.005 120.732C172.352 121.436 172.473 122.231 172.353 123.006C171.987 124.555 171.091 125.928 169.82 126.886L159.401 136.34L165.725 145.857C166.161 146.397 166.467 147.03 166.622 147.707C166.776 148.384 166.775 149.087 166.617 149.763C166.124 151.169 165.184 152.375 163.941 153.197C163.368 153.683 162.703 154.05 161.987 154.276C161.27 154.503 160.515 154.585 159.767 154.517C158.753 154.376 157.828 153.864 157.171 153.081L157.358 153.366C157.683 154.01 158.157 154.566 158.74 154.99C159.324 155.413 160 155.691 160.712 155.801C161.459 155.867 162.212 155.784 162.927 155.558C163.642 155.331 164.305 154.965 164.878 154.481C166.104 153.652 167.028 152.447 167.509 151.047C167.669 150.37 167.672 149.665 167.518 148.986C167.363 148.307 167.055 147.673 166.617 147.132L160.311 137.624Z" fill="#4B284D"/>
<path d="M140.66 154.249H136.61L136.343 155.534H141.57C145.066 155.534 147.148 154.003 147.814 150.94L149.598 142.36L155.521 150.985C155.846 151.628 156.32 152.185 156.903 152.608C157.486 153.032 158.162 153.31 158.875 153.42C159.622 153.487 160.375 153.405 161.09 153.178C161.805 152.952 162.468 152.585 163.04 152.1C164.283 151.278 165.223 150.072 165.716 148.666C165.876 147.99 165.878 147.286 165.724 146.609C165.569 145.932 165.261 145.299 164.824 144.76L158.482 135.243L168.901 125.789C170.171 124.829 171.07 123.458 171.443 121.909C171.529 121.284 171.469 120.646 171.268 120.048C171.067 119.449 170.73 118.905 170.283 118.458C169.846 117.959 169.29 117.578 168.666 117.35C168.043 117.122 167.372 117.056 166.715 117.156C164.997 117.453 163.427 118.316 162.255 119.608L152.613 128.215L154.397 119.876H153.21L151.159 129.517L149.732 130.784L152.533 117.495H142.007L134.487 153.17H139.714C143.199 153.17 145.281 151.639 145.958 148.577L147.823 139.783L148.715 141.058L146.877 149.674C146.217 152.73 144.145 154.255 140.66 154.249Z" fill="#4B284D"/>
<path d="M23.7897 152.635C34.458 152.635 40.7734 147.599 42.7358 137.526C43.5862 133.204 42.7775 129.773 40.3096 127.234C44.2255 125.102 46.6874 121.597 47.6418 116.665C48.3822 112.848 47.8024 109.949 45.9203 107.925C46.9015 109.797 47.1156 112.197 46.5447 115.131C45.5546 120.242 42.9767 123.827 38.8021 125.941C38.2783 125.561 37.7267 125.221 37.1519 124.924C41.6476 122.884 44.4277 119.189 45.4921 113.838C47.062 105.739 42.7299 101.687 32.4956 101.681H9.64255L8.39374 108.255L1.25772 146.08L0 152.635H23.7897ZM27.9108 136.697C27.209 140.372 25.0653 142.209 21.4794 142.209H19.6954L21.2564 134.03H25.654C26.4739 134.014 27.29 134.147 28.0624 134.423C28.127 135.184 28.0759 135.951 27.9108 136.697ZM30.676 116.843C30.0426 120.117 28.1427 121.749 24.9493 121.749H23.5935L24.9225 114.783H28.8741C29.5228 114.772 30.1693 114.859 30.7919 115.042C30.8336 115.645 30.7946 116.251 30.676 116.843ZM22.7371 111.938H26.6798C28.776 111.938 30.0694 112.598 30.5778 113.918C29.728 113.43 28.7555 113.198 27.777 113.249H23.8254L22.2019 121.749H20.855L22.7371 111.938ZM19.0532 131.185H23.4418C25.7253 131.185 27.1644 131.89 27.7591 133.299C26.7907 132.715 25.6679 132.438 24.539 132.505H20.1503L18.286 142.209H16.948L19.0532 131.185Z" fill="#4B284D"/>
<path d="M66.3202 148.559C65.7047 151.627 67.1498 153.152 70.6286 153.152H75.8646L83.0007 117.477H77.7378C76.7524 117.416 75.7661 117.579 74.853 117.955C73.9398 118.33 73.1238 118.908 72.4661 119.644L61.0306 130.677L62.2527 124.433C62.6006 122.694 62.2527 121.446 61.2893 120.696C61.5169 121.499 61.5354 122.346 61.3428 123.158L59.5588 132.023L58.1584 133.361L60.3884 122.052C60.9831 118.99 59.5291 117.459 56.0265 117.459H50.844L44.7873 148.523C44.1926 151.591 45.6376 153.123 49.1224 153.117C50.0452 153.13 50.9616 152.96 51.8177 152.616C52.6739 152.271 53.4528 151.759 54.1087 151.11L68.577 137.205L68.0864 139.649L54.9828 152.243C54.3253 152.892 53.5449 153.404 52.6872 153.749C51.8296 154.093 50.9118 154.263 49.9876 154.249C48.8049 154.334 47.6261 154.037 46.6248 153.402C47.1065 154.82 48.5247 155.534 50.9064 155.534C51.8294 155.548 52.746 155.379 53.6023 155.034C54.4586 154.689 55.2374 154.177 55.8927 153.527L67.5601 142.316L66.3202 148.559Z" fill="#4B284D"/>
<path d="M91.876 153.206C95.3667 153.206 97.4243 151.675 98.0487 148.613L102.696 125.896H108.048C110.873 125.896 112.576 124.496 113.159 121.695C113.742 118.895 112.612 117.494 109.77 117.494H84.3029L83.848 119.894H83.7053L76.8012 154.249H71.5473C70.367 154.339 69.1896 154.041 68.1934 153.402C68.6691 154.817 70.0933 155.528 72.466 155.534H77.6932L83.848 124.799C84.2281 125.202 84.6968 125.511 85.217 125.701C85.7373 125.892 86.2947 125.958 86.8451 125.896H92.1971L91.9741 126.993H87.7728C86.9122 127.042 86.0563 126.837 85.3109 126.404C85.6944 127.644 86.8094 128.277 88.6916 128.277H91.6887L86.631 153.206H91.876Z" fill="#4B284D"/>
<path d="M19.303 166.281H18.2951L14.9322 169.385L15.6191 166.281H14.8609L13.4961 172.435H14.2632L14.7181 170.366L15.5209 169.625L17.2782 172.435H18.1702L16.0918 169.206L19.303 166.281Z" fill="#4B284D"/>
<path d="M22.6035 166.281L18.7769 172.435H19.6689L20.5073 171.07H23.5848L23.8256 172.435H24.6641L23.5402 166.281H22.6035ZM20.9177 170.384L22.9425 167.075L23.5223 170.384H20.9177Z" fill="#4B284D"/>
<path d="M30.0067 169.135C29.535 169.277 29.0452 169.349 28.5527 169.349C27.6072 169.349 27.2147 168.867 27.411 167.931L27.7767 166.325H27.0096L26.6528 167.922C26.3673 169.188 26.8758 170.036 28.3297 170.036C28.848 170.027 29.3632 169.955 29.864 169.822L29.2753 172.497H30.0424L31.3893 166.343H30.6222L30.0067 169.135Z" fill="#4B284D"/>
<path d="M31.8447 172.435H35.8855L36.0282 171.748H32.7546L33.2184 169.625H36.4385L36.5812 168.948H33.379L33.825 166.959H37.0897L37.2413 166.281H33.2095L31.8447 172.435Z" fill="#4B284D"/>
<path d="M41.2551 166.174C40.7865 166.188 40.3252 166.294 39.8976 166.486C39.47 166.678 39.0844 166.953 38.763 167.294C38.4416 167.635 38.1906 168.036 38.0243 168.475C37.8581 168.913 37.7799 169.38 37.7941 169.848C37.7934 170.215 37.8678 170.577 38.0128 170.913C38.1577 171.249 38.3701 171.552 38.6369 171.803C38.9036 172.054 39.2189 172.247 39.5634 172.371C39.9079 172.495 40.2742 172.547 40.6396 172.524C41.061 172.528 41.4787 172.445 41.8668 172.28C42.2549 172.116 42.6053 171.874 42.8964 171.57L42.3344 171.142C41.8946 171.579 41.3041 171.831 40.6842 171.846C40.4086 171.866 40.1319 171.826 39.8727 171.73C39.6136 171.635 39.3778 171.485 39.1811 171.29C38.9845 171.096 38.8314 170.863 38.7322 170.605C38.633 170.347 38.59 170.071 38.6059 169.795C38.5817 169.43 38.63 169.063 38.748 168.717C38.8661 168.371 39.0515 168.051 39.2936 167.777C39.5357 167.502 39.8297 167.279 40.1587 167.118C40.4877 166.958 40.8452 166.864 41.2105 166.843C41.577 166.831 41.9393 166.924 42.2551 167.11C42.571 167.297 42.8274 167.569 42.9945 167.895L43.717 167.61C43.4888 167.159 43.135 166.783 42.6982 166.528C42.2614 166.273 41.7602 166.15 41.2551 166.174Z" fill="#4B284D"/>
<path d="M44.8496 166.959H46.7942L45.59 172.435H46.3571L47.5613 166.959H49.5148L49.6664 166.281H44.9923L44.8496 166.959Z" fill="#4B284D"/>
<path d="M53.6005 166.281H51.0404L49.6846 172.435H52.539C52.7964 172.467 53.0577 172.446 53.3063 172.372C53.555 172.298 53.7855 172.173 53.9835 172.005C54.1814 171.838 54.3423 171.631 54.456 171.398C54.5697 171.164 54.6338 170.91 54.6441 170.651C54.6506 170.372 54.5675 170.099 54.4069 169.871C54.2463 169.643 54.0168 169.472 53.7521 169.385C54.1493 169.329 54.5127 169.131 54.7751 168.827C55.0375 168.524 55.1811 168.136 55.1793 167.735C55.1814 167.532 55.141 167.332 55.0607 167.146C54.9805 166.96 54.8621 166.794 54.7132 166.657C54.5644 166.52 54.3884 166.415 54.1968 166.351C54.0051 166.286 53.8019 166.262 53.6005 166.281ZM53.8591 170.553C53.8562 170.721 53.8185 170.887 53.7483 171.041C53.6782 171.194 53.5771 171.331 53.4514 171.443C53.3258 171.555 53.1783 171.64 53.0182 171.693C52.8581 171.745 52.6889 171.764 52.5211 171.748H50.5944L51.0583 169.625H52.8423C52.9725 169.607 53.1052 169.617 53.2309 169.656C53.3567 169.695 53.4722 169.761 53.5694 169.849C53.6666 169.938 53.743 170.047 53.7931 170.169C53.8432 170.29 53.8657 170.422 53.8591 170.553ZM53.1277 168.948H51.2188L51.6648 166.959H53.4042C53.5214 166.953 53.6386 166.97 53.7491 167.009C53.8597 167.049 53.9613 167.109 54.0483 167.188C54.1353 167.267 54.206 167.362 54.2561 167.468C54.3063 167.574 54.3351 167.689 54.3408 167.806C54.3497 167.964 54.3238 168.123 54.265 168.27C54.2061 168.418 54.1157 168.55 54.0001 168.659C53.8845 168.768 53.7466 168.85 53.5958 168.9C53.4451 168.95 53.2854 168.966 53.1277 168.948Z" fill="#4B284D"/>
<path d="M59.6481 166.174C58.7032 166.204 57.809 166.608 57.1617 167.297C56.5145 167.986 56.1672 168.904 56.196 169.848C56.1953 170.215 56.2697 170.577 56.4146 170.913C56.5596 171.249 56.772 171.552 57.0387 171.803C57.3055 172.054 57.6208 172.247 57.9653 172.371C58.3098 172.495 58.6761 172.547 59.0415 172.524C59.5101 172.51 59.9714 172.404 60.399 172.212C60.8266 172.02 61.2122 171.745 61.5336 171.404C61.855 171.063 62.106 170.661 62.2723 170.223C62.4385 169.785 62.5167 169.318 62.5025 168.849C62.5033 168.483 62.4286 168.119 62.2831 167.783C62.1376 167.446 61.9244 167.142 61.6567 166.892C61.389 166.641 61.0725 166.447 60.727 166.324C60.3814 166.2 60.0142 166.149 59.6481 166.174ZM59.0772 171.864C58.8019 171.882 58.5259 171.842 58.2673 171.745C58.0088 171.649 57.7736 171.499 57.5773 171.305C57.3809 171.111 57.2278 170.878 57.1281 170.621C57.0284 170.364 56.9844 170.088 56.9988 169.813C56.9734 169.447 57.0209 169.081 57.1385 168.734C57.2561 168.387 57.4414 168.067 57.6837 167.792C57.9261 167.517 58.2205 167.294 58.5501 167.134C58.8797 166.974 59.2377 166.881 59.6035 166.861C59.8784 166.844 60.1538 166.885 60.4117 166.982C60.6696 167.079 60.9042 167.229 61.1002 167.423C61.2963 167.616 61.4494 167.849 61.5496 168.105C61.6498 168.362 61.6948 168.637 61.6818 168.912C61.7048 169.277 61.6556 169.643 61.5371 169.988C61.4187 170.334 61.2332 170.653 60.9913 170.928C60.7494 171.202 60.4558 171.426 60.1274 171.586C59.799 171.747 59.4421 171.841 59.0772 171.864Z" fill="#4B284D"/>
<path d="M67.0517 171.204L68.1488 166.281H67.3817L66.0259 172.435H66.7573L71.4582 167.414L70.3432 172.435H71.1192L72.475 166.281H71.6901L67.0517 171.204Z" fill="#4B284D"/>
<path d="M79.5756 166.281H77.0155L75.6597 172.435H78.4962C78.7536 172.467 79.0149 172.446 79.2636 172.372C79.5122 172.298 79.7428 172.173 79.9407 172.005C80.1386 171.838 80.2995 171.631 80.4133 171.398C80.527 171.164 80.591 170.91 80.6014 170.651C80.6079 170.372 80.5248 170.099 80.3642 169.871C80.2036 169.643 79.9741 169.472 79.7094 169.385C80.1065 169.329 80.47 169.131 80.7324 168.827C80.9947 168.524 81.1383 168.136 81.1366 167.735C81.1385 167.534 81.0985 167.335 81.0193 167.151C80.9401 166.966 80.8233 166.801 80.6765 166.664C80.5296 166.527 80.3559 166.422 80.1664 166.356C79.9768 166.29 79.7756 166.265 79.5756 166.281ZM79.8342 170.553C79.8313 170.721 79.7936 170.887 79.7234 171.041C79.6533 171.194 79.5522 171.331 79.4265 171.443C79.3009 171.555 79.1534 171.64 78.9933 171.693C78.8332 171.745 78.664 171.764 78.4962 171.748H76.5695L77.0334 169.625H78.8174C78.9476 169.607 79.0803 169.617 79.206 169.656C79.3318 169.695 79.4473 169.761 79.5445 169.849C79.6417 169.938 79.7181 170.047 79.7682 170.169C79.8183 170.29 79.8408 170.422 79.8342 170.553ZM79.1028 168.948H77.1939L77.6399 166.959H79.3882C79.5054 166.953 79.6226 166.97 79.7331 167.009C79.8437 167.049 79.9454 167.109 80.0324 167.188C80.1194 167.267 80.19 167.362 80.2402 167.468C80.2904 167.574 80.3191 167.689 80.3248 167.806C80.3339 167.965 80.3079 168.125 80.2485 168.273C80.1891 168.421 80.0979 168.554 79.9813 168.663C79.8647 168.772 79.7256 168.854 79.5737 168.903C79.4219 168.952 79.2611 168.967 79.1028 168.948Z" fill="#4B284D"/>
<path d="M87.639 166.281H86.631L83.2592 169.385L83.955 166.281H83.1879L81.832 172.435H82.5992L83.0452 170.366L83.848 169.625L85.6052 172.435H86.4972L84.4278 169.206L87.639 166.281Z" fill="#4B284D"/>
<path d="M90.3686 170.098L89.2714 166.281H88.4508L89.8156 170.74L89.6015 171.017C89.1376 171.632 88.8968 171.909 88.4419 171.909C88.2933 171.906 88.1478 171.866 88.0185 171.793C87.8892 171.72 87.7802 171.615 87.7015 171.489L87.2466 172.105C87.373 172.27 87.539 172.401 87.7291 172.485C87.9193 172.569 88.1276 172.604 88.3348 172.587C88.7328 172.569 89.1197 172.451 89.4586 172.241C89.7975 172.032 90.077 171.74 90.2705 171.391L94.0615 166.325H93.1695L90.3686 170.098Z" fill="#4B284D"/>
<path d="M97.6741 166.174C97.2054 166.188 96.7441 166.294 96.3165 166.486C95.8889 166.678 95.5034 166.953 95.182 167.294C94.8605 167.635 94.6095 168.036 94.4433 168.475C94.277 168.913 94.1988 169.38 94.2131 169.848C94.2123 170.215 94.2868 170.577 94.4317 170.913C94.5767 171.249 94.7891 171.552 95.0558 171.803C95.3225 172.054 95.6379 172.247 95.9824 172.371C96.3269 172.495 96.6932 172.547 97.0586 172.524C97.4801 172.528 97.8979 172.445 98.2861 172.281C98.6743 172.117 99.0246 171.875 99.3154 171.57L98.7534 171.142C98.3136 171.579 97.7231 171.831 97.1032 171.846C96.8275 171.866 96.5509 171.826 96.2917 171.73C96.0325 171.635 95.7967 171.485 95.6001 171.29C95.4034 171.096 95.2504 170.863 95.1512 170.605C95.052 170.347 95.0089 170.071 95.0248 169.795C95.0006 169.43 95.049 169.063 95.167 168.717C95.285 168.371 95.4704 168.051 95.7125 167.777C95.9547 167.502 96.2487 167.279 96.5777 167.118C96.9067 166.958 97.2641 166.864 97.6295 166.843C97.996 166.831 98.3583 166.924 98.6741 167.11C98.9899 167.297 99.2464 167.569 99.4135 167.895L100.136 167.61C99.9078 167.159 99.554 166.783 99.1172 166.528C98.6804 166.273 98.1792 166.15 97.6741 166.174Z" fill="#4B284D"/>
<path d="M109.761 166.174C109.292 166.188 108.831 166.294 108.403 166.486C107.976 166.678 107.59 166.953 107.269 167.294C106.947 167.635 106.696 168.036 106.53 168.475C106.364 168.913 106.286 169.38 106.3 169.848C106.299 170.215 106.374 170.577 106.519 170.913C106.664 171.249 106.876 171.552 107.143 171.803C107.409 172.054 107.725 172.247 108.069 172.371C108.414 172.495 108.78 172.547 109.145 172.524C109.567 172.528 109.985 172.445 110.373 172.281C110.761 172.117 111.112 171.875 111.402 171.57L110.84 171.142C110.4 171.579 109.81 171.831 109.19 171.846C108.914 171.866 108.638 171.826 108.379 171.73C108.119 171.635 107.884 171.485 107.687 171.29C107.49 171.096 107.337 170.863 107.238 170.605C107.139 170.347 107.096 170.071 107.112 169.795C107.088 169.43 107.136 169.063 107.254 168.717C107.372 168.371 107.557 168.051 107.799 167.777C108.042 167.502 108.336 167.279 108.665 167.118C108.994 166.958 109.351 166.864 109.716 166.843C110.083 166.831 110.445 166.924 110.761 167.11C111.077 167.297 111.333 167.569 111.5 167.895L112.223 167.61C111.995 167.159 111.641 166.783 111.204 166.528C110.767 166.273 110.266 166.15 109.761 166.174Z" fill="#4B284D"/>
<path d="M115.791 167.868L116.157 168.341L117.37 167.298L116.237 172.435H117.004L118.36 166.281H117.682L115.791 167.868Z" fill="#4B284D"/>
<path d="M121.785 166.174C121.159 166.171 120.557 166.417 120.111 166.856C119.665 167.295 119.41 167.893 119.403 168.519C119.408 168.753 119.461 168.983 119.56 169.195C119.659 169.406 119.802 169.595 119.979 169.748C120.155 169.901 120.362 170.015 120.586 170.083C120.809 170.151 121.044 170.172 121.276 170.143C121.95 170.112 122.587 169.829 123.06 169.349C123.048 169.417 123.027 169.483 122.998 169.545C122.739 170.633 122.106 171.855 120.911 171.855C120.631 171.874 120.351 171.812 120.105 171.678C119.859 171.544 119.655 171.342 119.519 171.097L119.011 171.614C119.214 171.911 119.491 172.15 119.815 172.306C120.139 172.463 120.498 172.532 120.857 172.506C122.936 172.506 123.899 170.152 123.899 168.421C123.936 168.129 123.909 167.832 123.818 167.551C123.727 167.27 123.575 167.013 123.373 166.799C123.17 166.584 122.923 166.416 122.649 166.308C122.374 166.2 122.079 166.154 121.785 166.174ZM123.132 168.751C122.938 168.978 122.699 169.163 122.43 169.293C122.162 169.424 121.869 169.497 121.571 169.509C120.768 169.509 120.197 169.09 120.197 168.421C120.199 168.007 120.366 167.61 120.66 167.317C120.954 167.025 121.352 166.861 121.767 166.861C121.957 166.852 122.146 166.884 122.322 166.955C122.498 167.026 122.657 167.135 122.787 167.273C122.917 167.411 123.017 167.575 123.078 167.755C123.139 167.935 123.16 168.126 123.141 168.314C123.141 168.421 123.141 168.671 123.096 168.751H123.132Z" fill="#4B284D"/>
<path d="M127.601 166.174C126.975 166.171 126.373 166.417 125.927 166.856C125.481 167.295 125.226 167.893 125.219 168.519C125.224 168.753 125.277 168.983 125.376 169.195C125.475 169.406 125.618 169.595 125.794 169.748C125.971 169.901 126.178 170.015 126.401 170.083C126.625 170.151 126.86 170.172 127.092 170.143C127.767 170.119 128.407 169.834 128.876 169.349C128.864 169.416 128.846 169.481 128.823 169.545C128.555 170.633 127.931 171.855 126.727 171.855C126.448 171.873 126.17 171.811 125.925 171.677C125.68 171.543 125.479 171.342 125.344 171.097L124.827 171.614C125.031 171.912 125.31 172.151 125.636 172.307C125.961 172.464 126.322 172.532 126.682 172.506C128.752 172.506 129.715 170.152 129.715 168.421C129.752 168.129 129.725 167.832 129.634 167.551C129.543 167.27 129.391 167.013 129.189 166.799C128.986 166.584 128.739 166.416 128.465 166.308C128.19 166.2 127.895 166.154 127.601 166.174ZM128.948 168.751C128.755 168.98 128.517 169.166 128.248 169.296C127.979 169.427 127.686 169.5 127.387 169.509C126.584 169.509 126.013 169.09 126.013 168.421C126.015 168.007 126.182 167.61 126.476 167.317C126.77 167.025 127.168 166.861 127.583 166.861C127.773 166.852 127.962 166.884 128.138 166.955C128.314 167.026 128.473 167.135 128.603 167.273C128.733 167.411 128.833 167.575 128.894 167.755C128.955 167.935 128.976 168.126 128.957 168.314C128.957 168.421 128.957 168.671 128.948 168.751Z" fill="#4B284D"/>
<path d="M130.919 167.868L131.276 168.341L132.498 167.298L131.365 172.435H132.123L133.488 166.281H132.81L130.919 167.868Z" fill="#4B284D"/>
<path d="M136.672 172.435H137.439L138.644 166.959H141.908L142.06 166.281H138.028L136.672 172.435Z" fill="#4B284D"/>
<path d="M145.905 166.174C145.436 166.188 144.975 166.294 144.547 166.486C144.12 166.678 143.734 166.953 143.413 167.294C143.091 167.635 142.84 168.037 142.674 168.475C142.508 168.913 142.43 169.38 142.444 169.848C142.443 170.215 142.518 170.577 142.663 170.913C142.808 171.249 143.02 171.552 143.287 171.803C143.553 172.054 143.869 172.247 144.213 172.371C144.558 172.495 144.924 172.547 145.29 172.524C146.234 172.494 147.129 172.09 147.776 171.401C148.423 170.712 148.77 169.794 148.742 168.85C148.742 168.484 148.668 168.123 148.524 167.787C148.379 167.452 148.168 167.149 147.902 166.898C147.636 166.648 147.322 166.454 146.978 166.33C146.635 166.205 146.27 166.152 145.905 166.174ZM145.334 171.864C145.058 171.884 144.782 171.844 144.523 171.748C144.263 171.652 144.028 171.502 143.831 171.308C143.634 171.114 143.481 170.88 143.382 170.623C143.283 170.365 143.24 170.089 143.256 169.813C143.23 169.447 143.278 169.081 143.395 168.734C143.513 168.387 143.698 168.067 143.941 167.792C144.183 167.517 144.478 167.294 144.807 167.134C145.137 166.974 145.495 166.881 145.86 166.861C146.135 166.844 146.41 166.885 146.667 166.982C146.925 167.079 147.159 167.229 147.354 167.423C147.55 167.617 147.702 167.85 147.801 168.106C147.9 168.363 147.944 168.637 147.93 168.912C147.954 169.276 147.906 169.642 147.789 169.988C147.671 170.334 147.486 170.653 147.245 170.927C147.004 171.201 146.711 171.425 146.383 171.586C146.055 171.747 145.699 171.841 145.334 171.864Z" fill="#4B284D"/>
<path d="M156.011 166.281H152.247L151.186 169.367C150.463 171.454 149.972 171.739 149.241 171.819L148.857 173.603H149.616L149.865 172.471H154.45L154.2 173.603H154.968L155.369 171.819H154.816L156.011 166.281ZM154.049 171.748H150.481C151.212 171.159 151.727 170.343 151.944 169.429L152.791 166.959H155.11L154.049 171.748Z" fill="#4B284D"/>
<path d="M159.766 166.281L155.931 172.435H156.823L157.661 171.07H160.73L160.97 172.435H161.809L160.685 166.281H159.766ZM158.071 170.384L160.105 167.075L160.685 170.384H158.071Z" fill="#4B284D"/>
<path d="M59.5409 105.32L56.9541 107.871L57.4893 105.32H56.9006L55.8569 110.368H56.4457L56.7935 108.674L57.409 108.067L58.7559 110.368H59.4428L57.8461 107.719L60.3169 105.32H59.5409Z" fill="#4B284D"/>
<path d="M61.798 108.255C61.7815 108.546 61.8263 108.837 61.9295 109.11C62.0326 109.383 62.1919 109.632 62.397 109.839C62.6021 110.047 62.8485 110.209 63.1202 110.316C63.3919 110.422 63.6829 110.47 63.9745 110.457C64.3488 110.437 64.7153 110.343 65.0529 110.18C65.3905 110.017 65.6924 109.789 65.9413 109.508C66.1901 109.228 66.3809 108.901 66.5026 108.547C66.6244 108.192 66.6746 107.817 66.6505 107.443C66.6671 107.151 66.6221 106.858 66.5184 106.585C66.4147 106.311 66.2546 106.063 66.0485 105.855C65.8424 105.647 65.5949 105.485 65.3222 105.379C65.0494 105.273 64.7574 105.226 64.4651 105.24C64.0911 105.26 63.725 105.355 63.3879 105.518C63.0508 105.681 62.7494 105.909 62.5013 106.19C62.2531 106.47 62.0632 106.797 61.9425 107.152C61.8217 107.506 61.7726 107.881 61.798 108.255ZM66.0172 107.479C66.0442 107.769 66.0137 108.062 65.9274 108.341C65.8412 108.619 65.7009 108.878 65.5145 109.103C65.3281 109.327 65.0993 109.513 64.8412 109.649C64.5831 109.785 64.3007 109.869 64.0102 109.896C63.7935 109.9 63.5783 109.859 63.3786 109.775C63.1789 109.691 62.9991 109.566 62.851 109.407C62.7029 109.249 62.5898 109.062 62.519 108.857C62.4482 108.652 62.4214 108.435 62.4402 108.219C62.4119 107.931 62.4407 107.64 62.5249 107.363C62.6091 107.086 62.7472 106.828 62.9311 106.604C63.115 106.381 63.3412 106.195 63.5968 106.059C63.8523 105.923 64.1322 105.839 64.4205 105.811C64.637 105.807 64.8521 105.847 65.052 105.931C65.2519 106.014 65.4323 106.138 65.5816 106.295C65.7309 106.452 65.846 106.638 65.9194 106.842C65.9929 107.046 66.0231 107.263 66.0082 107.479H66.0172Z" fill="#4B284D"/>
<path d="M72.3235 110.368L73.3671 105.32H72.7784L72.3324 107.496H69.5672L70.0132 105.32H69.4245L68.3809 110.368H68.9696L69.4513 108.058H72.2165L71.7348 110.368H72.3235Z" fill="#4B284D"/>
<path d="M76.9351 105.32L76.1234 107.853C75.5703 109.566 75.2314 109.797 74.6248 109.86L74.3394 111.296H74.9281L75.1154 110.404H78.6834L78.4961 111.296H79.0848L79.3881 109.806H78.9599L79.8519 105.347L76.9351 105.32ZM78.3177 109.78H75.5792C76.1488 109.29 76.5459 108.63 76.7121 107.898L77.3632 105.882H79.1473L78.3177 109.78Z" fill="#4B284D"/>
<path d="M82.439 105.32L81.4043 110.368H81.9663L85.5789 106.257L84.7226 110.368H85.3113L86.3549 105.32H85.7573L82.1982 109.36L83.0277 105.32H82.439Z" fill="#4B284D"/>
<path d="M89.6015 110.368L90.5292 105.882H92.0366L92.1437 105.32H88.5579L88.4419 105.882H89.9405L89.0128 110.368H89.6015Z" fill="#4B284D"/>
<path d="M97.3356 105.882L97.4426 105.32H94.3474L93.3037 110.368H96.4079L96.5149 109.806H93.9995L94.3563 108.067H96.8271L96.9431 107.505H94.4812L94.8201 105.882H97.3356Z" fill="#4B284D"/>
<path d="M101.064 108.362C101.297 108.377 101.532 108.343 101.751 108.262C101.971 108.181 102.171 108.055 102.339 107.892C102.507 107.729 102.639 107.532 102.727 107.315C102.815 107.098 102.856 106.865 102.848 106.631C102.854 106.457 102.824 106.284 102.761 106.122C102.697 105.96 102.601 105.813 102.478 105.69C102.355 105.567 102.207 105.471 102.046 105.407C101.884 105.344 101.71 105.314 101.537 105.32H99.7525L98.7178 110.368H99.3065L99.7168 108.362H101.064ZM100.279 105.882H101.465C101.57 105.881 101.674 105.901 101.77 105.94C101.867 105.98 101.955 106.038 102.029 106.112C102.103 106.186 102.162 106.274 102.201 106.371C102.241 106.468 102.26 106.571 102.259 106.676C102.266 106.827 102.24 106.977 102.185 107.118C102.13 107.258 102.045 107.386 101.938 107.491C101.83 107.597 101.702 107.679 101.56 107.733C101.419 107.786 101.268 107.809 101.117 107.8H99.9041L100.279 105.882Z" fill="#4B284D"/>
<path d="M107.219 105.811C107.516 105.799 107.81 105.879 108.062 106.038C108.314 106.197 108.511 106.429 108.628 106.703L109.181 106.471C109.018 106.101 108.747 105.789 108.403 105.577C108.059 105.365 107.658 105.263 107.254 105.285C106.879 105.303 106.512 105.395 106.173 105.558C105.834 105.72 105.531 105.948 105.282 106.229C105.033 106.51 104.842 106.837 104.721 107.193C104.6 107.548 104.552 107.925 104.578 108.299C104.563 108.591 104.609 108.883 104.713 109.156C104.818 109.429 104.978 109.677 105.183 109.884C105.389 110.092 105.636 110.254 105.908 110.36C106.18 110.467 106.472 110.515 106.764 110.502C107.101 110.51 107.435 110.444 107.743 110.309C108.052 110.173 108.326 109.971 108.548 109.717L108.111 109.369C107.948 109.544 107.753 109.685 107.535 109.783C107.318 109.881 107.083 109.935 106.844 109.94C106.622 109.948 106.4 109.908 106.195 109.822C105.99 109.737 105.805 109.608 105.655 109.444C105.504 109.281 105.39 109.087 105.321 108.875C105.253 108.664 105.23 108.44 105.256 108.219C105.201 107.64 105.376 107.063 105.744 106.612C106.111 106.162 106.641 105.874 107.219 105.811Z" fill="#4B284D"/>
<path d="M114.239 105.32L111.652 107.871L112.187 105.32H111.598L110.555 110.368H111.143L111.491 108.674L112.107 108.067L113.454 110.368H114.141L112.544 107.719L115.015 105.32H114.239Z" fill="#4B284D"/>
<path d="M115.746 110.368H116.451L117.093 109.245H119.457L119.644 110.368H120.286L119.394 105.32H118.663L115.746 110.368ZM119.403 108.692H117.396L118.957 106.016L119.403 108.692Z" fill="#4B284D"/>
<path d="M125.531 110.368L126.575 105.32H124.684C124.446 105.307 124.209 105.345 123.986 105.43C123.764 105.515 123.562 105.646 123.394 105.814C123.226 105.982 123.095 106.184 123.01 106.406C122.925 106.629 122.887 106.866 122.9 107.104C122.894 107.388 122.983 107.666 123.152 107.894C123.322 108.122 123.563 108.286 123.837 108.362L122.124 110.413H122.882L124.506 108.406H125.398L124.978 110.413L125.531 110.368ZM124.309 107.809C124.202 107.812 124.095 107.794 123.995 107.755C123.895 107.716 123.804 107.658 123.727 107.583C123.651 107.508 123.59 107.418 123.549 107.319C123.508 107.22 123.488 107.113 123.489 107.006C123.484 106.855 123.51 106.706 123.566 106.566C123.621 106.426 123.706 106.299 123.813 106.193C123.92 106.088 124.048 106.006 124.189 105.952C124.33 105.898 124.48 105.875 124.631 105.882H125.87L125.469 107.809H124.309Z" fill="#4B284D"/>
<path d="M133.899 110.368L133.997 109.887C135.549 109.815 136.673 108.825 136.673 107.594C136.673 106.596 136.048 105.953 134.844 105.811L134.96 105.293H134.371L134.264 105.793C132.703 105.864 131.588 106.845 131.588 108.085C131.588 109.075 132.204 109.726 133.372 109.869L133.265 110.368H133.899ZM134.746 106.39C135.638 106.471 136.066 106.943 136.066 107.594C136.066 108.486 135.299 109.218 134.122 109.316L134.746 106.39ZM132.222 108.112C132.222 107.22 132.98 106.489 134.166 106.39L133.542 109.307C132.686 109.227 132.222 108.763 132.222 108.112Z" fill="#4B284D"/>
<path d="M137.948 110.368H138.653L139.295 109.245H141.659L141.846 110.368H142.489L141.597 105.32H140.936L137.948 110.368ZM141.605 108.692H139.598L141.159 106.016L141.605 108.692Z" fill="#4B284D"/>
<path d="M148.527 105.882L148.634 105.32H145.566L144.504 110.368H146.413C146.647 110.383 146.881 110.349 147.101 110.268C147.321 110.188 147.521 110.062 147.689 109.899C147.857 109.736 147.989 109.539 148.077 109.322C148.164 109.105 148.205 108.872 148.197 108.638C148.204 108.464 148.174 108.291 148.11 108.129C148.046 107.967 147.95 107.82 147.827 107.697C147.704 107.574 147.557 107.478 147.395 107.414C147.233 107.35 147.06 107.321 146.886 107.327H145.709L146.012 105.882H148.527ZM146.824 107.889C146.927 107.889 147.03 107.909 147.126 107.949C147.222 107.989 147.309 108.048 147.382 108.122C147.455 108.196 147.512 108.283 147.551 108.38C147.59 108.476 147.61 108.579 147.609 108.683C147.615 108.833 147.59 108.984 147.535 109.124C147.479 109.265 147.395 109.392 147.287 109.498C147.18 109.604 147.051 109.686 146.91 109.739C146.768 109.792 146.618 109.815 146.467 109.806H145.218L145.628 107.889H146.824Z" fill="#4B284D"/>
<path d="M151.15 105.32L150.106 110.368H150.695L151.105 108.362H152.416C152.65 108.377 152.884 108.343 153.104 108.262C153.323 108.181 153.524 108.055 153.692 107.892C153.86 107.729 153.992 107.532 154.08 107.315C154.167 107.098 154.208 106.865 154.2 106.631C154.206 106.457 154.177 106.284 154.113 106.122C154.049 105.96 153.953 105.813 153.83 105.69C153.707 105.567 153.56 105.471 153.398 105.407C153.236 105.344 153.063 105.314 152.889 105.32H151.15ZM153.603 106.703C153.611 106.854 153.586 107.005 153.531 107.146C153.477 107.287 153.392 107.415 153.285 107.521C153.177 107.628 153.047 107.71 152.905 107.762C152.763 107.815 152.612 107.837 152.461 107.826H151.221L151.622 105.909H152.818C152.922 105.908 153.025 105.927 153.122 105.967C153.218 106.007 153.305 106.065 153.379 106.139C153.452 106.213 153.509 106.301 153.548 106.398C153.586 106.495 153.605 106.598 153.603 106.703Z" fill="#4B284D"/>
<path d="M159.606 110.368L160.649 105.32H160.043L156.484 109.36L157.322 105.32H156.734L155.69 110.368H156.261L159.865 106.257L159.008 110.368H159.606Z" fill="#4B284D"/>
<path d="M165.823 105.32L163.228 107.871L163.763 105.32H163.174L162.13 110.368H162.719L163.067 108.674L163.682 108.067L165.029 110.368H165.716L164.128 107.719L166.59 105.32H165.823Z" fill="#4B284D"/>
<path d="M167.322 110.368H168.026L168.669 109.245H171.032L171.22 110.368H171.862L170.97 105.32H170.239L167.322 110.368ZM170.979 108.692H168.972L170.533 106.016L170.979 108.692Z" fill="#4B284D"/>
<path d="M175.439 134.931C174.989 134.535 174.464 134.231 173.897 134.039C173.329 133.846 172.728 133.767 172.13 133.807C171.221 133.861 170.349 134.186 169.626 134.74C168.904 135.294 168.364 136.052 168.076 136.915C167.788 137.779 167.765 138.709 168.011 139.586C168.256 140.463 168.759 141.246 169.454 141.834C169.903 142.231 170.427 142.535 170.996 142.728C171.564 142.921 172.164 142.999 172.763 142.958H172.924C173.807 142.868 174.646 142.523 175.335 141.963C176.025 141.404 176.537 140.655 176.807 139.809C177.077 138.963 177.094 138.057 176.856 137.201C176.617 136.345 176.134 135.578 175.466 134.993L175.439 134.931ZM175.439 140.96C175.104 141.349 174.694 141.668 174.235 141.897C173.776 142.127 173.275 142.263 172.763 142.298C171.747 142.337 170.754 141.983 169.992 141.309C169.23 140.635 168.758 139.694 168.673 138.68C168.588 137.667 168.897 136.659 169.536 135.868C170.175 135.077 171.094 134.562 172.103 134.431H172.156C172.936 134.378 173.714 134.557 174.391 134.947C175.069 135.336 175.615 135.918 175.961 136.619C176.307 137.319 176.437 138.107 176.335 138.881C176.232 139.656 175.902 140.383 175.385 140.969L175.439 140.96Z" fill="#4B284D"/>
<path d="M174.208 138.454C174.41 138.162 174.498 137.807 174.458 137.455C174.453 137.245 174.404 137.038 174.315 136.848C174.226 136.657 174.099 136.487 173.94 136.349C173.771 136.208 173.574 136.102 173.363 136.039C173.151 135.976 172.929 135.957 172.709 135.983L170.417 136.135L170.738 141.04L171.782 140.969L171.666 139.23L172.433 139.176L173.512 140.853L174.708 140.773L173.485 138.989C173.78 138.897 174.035 138.709 174.208 138.454ZM173.218 138.017C173.151 138.086 173.07 138.14 172.981 138.177C172.892 138.214 172.797 138.232 172.701 138.231L171.612 138.311L171.523 136.982L172.62 136.911C172.81 136.893 173 136.944 173.155 137.054C173.227 137.111 173.285 137.182 173.327 137.264C173.368 137.345 173.392 137.435 173.396 137.526C173.405 137.616 173.393 137.707 173.363 137.792C173.332 137.877 173.282 137.954 173.218 138.017Z" fill="#4B284D"/>
</svg>
